G04 #@! TF.GenerationSoftware,KiCad,Pcbnew,5.1.5-52549c5~84~ubuntu18.04.1*
G04 #@! TF.CreationDate,2020-01-08T12:56:45+02:00*
G04 #@! TF.ProjectId,bq76920,62713736-3932-4302-9e6b-696361645f70,rev?*
G04 #@! TF.SameCoordinates,Original*
G04 #@! TF.FileFunction,Legend,Bot*
G04 #@! TF.FilePolarity,Positive*
%FSLAX46Y46*%
G04 Gerber Fmt 4.6, Leading zero omitted, Abs format (unit mm)*
G04 Created by KiCad (PCBNEW 5.1.5-52549c5~84~ubuntu18.04.1) date 2020-01-08 12:56:45*
%MOMM*%
%LPD*%
G04 APERTURE LIST*
%ADD10C,0.120000*%
%ADD11C,0.150000*%
G04 APERTURE END LIST*
D10*
X73840000Y-26613748D02*
X73840000Y-27136252D01*
X75260000Y-26613748D02*
X75260000Y-27136252D01*
X54790000Y-33336252D02*
X54790000Y-32813748D01*
X56210000Y-33336252D02*
X56210000Y-32813748D01*
X60130000Y-50160000D02*
X59200000Y-50160000D01*
X56970000Y-50160000D02*
X57900000Y-50160000D01*
X56970000Y-50160000D02*
X56970000Y-48000000D01*
X60130000Y-50160000D02*
X60130000Y-48700000D01*
X43940000Y-57686252D02*
X43940000Y-57163748D01*
X45360000Y-57686252D02*
X45360000Y-57163748D01*
X45990000Y-57163748D02*
X45990000Y-57686252D01*
X47410000Y-57163748D02*
X47410000Y-57686252D01*
X57860000Y-53236252D02*
X57860000Y-52713748D01*
X56440000Y-53236252D02*
X56440000Y-52713748D01*
X61710000Y-52713748D02*
X61710000Y-53236252D01*
X60290000Y-52713748D02*
X60290000Y-53236252D01*
X60888748Y-38640000D02*
X61411252Y-38640000D01*
X60888748Y-40060000D02*
X61411252Y-40060000D01*
X62410000Y-29186252D02*
X62410000Y-28663748D01*
X60990000Y-29186252D02*
X60990000Y-28663748D01*
X53610436Y-28040000D02*
X54814564Y-28040000D01*
X53610436Y-29860000D02*
X54814564Y-29860000D01*
X53610436Y-27560000D02*
X54814564Y-27560000D01*
X53610436Y-25740000D02*
X54814564Y-25740000D01*
X58250000Y-51300000D02*
X59950000Y-51300000D01*
X59950000Y-51300000D02*
X59950000Y-54450000D01*
X58250000Y-51300000D02*
X58250000Y-54450000D01*
X41050000Y-25300000D02*
X42750000Y-25300000D01*
X42750000Y-25300000D02*
X42750000Y-28450000D01*
X41050000Y-25300000D02*
X41050000Y-28450000D01*
X41050000Y-30200000D02*
X42750000Y-30200000D01*
X42750000Y-30200000D02*
X42750000Y-33350000D01*
X41050000Y-30200000D02*
X41050000Y-33350000D01*
X41050000Y-35200000D02*
X41050000Y-38350000D01*
X42750000Y-35200000D02*
X42750000Y-38350000D01*
X41050000Y-35200000D02*
X42750000Y-35200000D01*
X41050000Y-40200000D02*
X42750000Y-40200000D01*
X42750000Y-40200000D02*
X42750000Y-43350000D01*
X41050000Y-40200000D02*
X41050000Y-43350000D01*
X41050000Y-45350000D02*
X42750000Y-45350000D01*
X42750000Y-45350000D02*
X42750000Y-48500000D01*
X41050000Y-45350000D02*
X41050000Y-48500000D01*
X74660000Y-47986252D02*
X74660000Y-47463748D01*
X73240000Y-47986252D02*
X73240000Y-47463748D01*
D11*
X73257142Y-26232142D02*
X73304761Y-26184523D01*
X73352380Y-26041666D01*
X73352380Y-25946428D01*
X73304761Y-25803571D01*
X73209523Y-25708333D01*
X73114285Y-25660714D01*
X72923809Y-25613095D01*
X72780952Y-25613095D01*
X72590476Y-25660714D01*
X72495238Y-25708333D01*
X72400000Y-25803571D01*
X72352380Y-25946428D01*
X72352380Y-26041666D01*
X72400000Y-26184523D01*
X72447619Y-26232142D01*
X73352380Y-27184523D02*
X73352380Y-26613095D01*
X73352380Y-26898809D02*
X72352380Y-26898809D01*
X72495238Y-26803571D01*
X72590476Y-26708333D01*
X72638095Y-26613095D01*
X73352380Y-27660714D02*
X73352380Y-27851190D01*
X73304761Y-27946428D01*
X73257142Y-27994047D01*
X73114285Y-28089285D01*
X72923809Y-28136904D01*
X72542857Y-28136904D01*
X72447619Y-28089285D01*
X72400000Y-28041666D01*
X72352380Y-27946428D01*
X72352380Y-27755952D01*
X72400000Y-27660714D01*
X72447619Y-27613095D01*
X72542857Y-27565476D01*
X72780952Y-27565476D01*
X72876190Y-27613095D01*
X72923809Y-27660714D01*
X72971428Y-27755952D01*
X72971428Y-27946428D01*
X72923809Y-28041666D01*
X72876190Y-28089285D01*
X72780952Y-28136904D01*
X54257142Y-32883333D02*
X54304761Y-32835714D01*
X54352380Y-32692857D01*
X54352380Y-32597619D01*
X54304761Y-32454761D01*
X54209523Y-32359523D01*
X54114285Y-32311904D01*
X53923809Y-32264285D01*
X53780952Y-32264285D01*
X53590476Y-32311904D01*
X53495238Y-32359523D01*
X53400000Y-32454761D01*
X53352380Y-32597619D01*
X53352380Y-32692857D01*
X53400000Y-32835714D01*
X53447619Y-32883333D01*
X53352380Y-33740476D02*
X53352380Y-33550000D01*
X53400000Y-33454761D01*
X53447619Y-33407142D01*
X53590476Y-33311904D01*
X53780952Y-33264285D01*
X54161904Y-33264285D01*
X54257142Y-33311904D01*
X54304761Y-33359523D01*
X54352380Y-33454761D01*
X54352380Y-33645238D01*
X54304761Y-33740476D01*
X54257142Y-33788095D01*
X54161904Y-33835714D01*
X53923809Y-33835714D01*
X53828571Y-33788095D01*
X53780952Y-33740476D01*
X53733333Y-33645238D01*
X53733333Y-33454761D01*
X53780952Y-33359523D01*
X53828571Y-33311904D01*
X53923809Y-33264285D01*
X61797619Y-49304761D02*
X61750000Y-49209523D01*
X61654761Y-49114285D01*
X61511904Y-48971428D01*
X61464285Y-48876190D01*
X61464285Y-48780952D01*
X61702380Y-48828571D02*
X61654761Y-48733333D01*
X61559523Y-48638095D01*
X61369047Y-48590476D01*
X61035714Y-48590476D01*
X60845238Y-48638095D01*
X60750000Y-48733333D01*
X60702380Y-48828571D01*
X60702380Y-49019047D01*
X60750000Y-49114285D01*
X60845238Y-49209523D01*
X61035714Y-49257142D01*
X61369047Y-49257142D01*
X61559523Y-49209523D01*
X61654761Y-49114285D01*
X61702380Y-49019047D01*
X61702380Y-48828571D01*
X60797619Y-49638095D02*
X60750000Y-49685714D01*
X60702380Y-49780952D01*
X60702380Y-50019047D01*
X60750000Y-50114285D01*
X60797619Y-50161904D01*
X60892857Y-50209523D01*
X60988095Y-50209523D01*
X61130952Y-50161904D01*
X61702380Y-49590476D01*
X61702380Y-50209523D01*
X45102380Y-54383333D02*
X44626190Y-54050000D01*
X45102380Y-53811904D02*
X44102380Y-53811904D01*
X44102380Y-54192857D01*
X44150000Y-54288095D01*
X44197619Y-54335714D01*
X44292857Y-54383333D01*
X44435714Y-54383333D01*
X44530952Y-54335714D01*
X44578571Y-54288095D01*
X44626190Y-54192857D01*
X44626190Y-53811904D01*
X45102380Y-54859523D02*
X45102380Y-55050000D01*
X45054761Y-55145238D01*
X45007142Y-55192857D01*
X44864285Y-55288095D01*
X44673809Y-55335714D01*
X44292857Y-55335714D01*
X44197619Y-55288095D01*
X44150000Y-55240476D01*
X44102380Y-55145238D01*
X44102380Y-54954761D01*
X44150000Y-54859523D01*
X44197619Y-54811904D01*
X44292857Y-54764285D01*
X44530952Y-54764285D01*
X44626190Y-54811904D01*
X44673809Y-54859523D01*
X44721428Y-54954761D01*
X44721428Y-55145238D01*
X44673809Y-55240476D01*
X44626190Y-55288095D01*
X44530952Y-55335714D01*
X48852380Y-55557142D02*
X48376190Y-55223809D01*
X48852380Y-54985714D02*
X47852380Y-54985714D01*
X47852380Y-55366666D01*
X47900000Y-55461904D01*
X47947619Y-55509523D01*
X48042857Y-55557142D01*
X48185714Y-55557142D01*
X48280952Y-55509523D01*
X48328571Y-55461904D01*
X48376190Y-55366666D01*
X48376190Y-54985714D01*
X48852380Y-56509523D02*
X48852380Y-55938095D01*
X48852380Y-56223809D02*
X47852380Y-56223809D01*
X47995238Y-56128571D01*
X48090476Y-56033333D01*
X48138095Y-55938095D01*
X48852380Y-57461904D02*
X48852380Y-56890476D01*
X48852380Y-57176190D02*
X47852380Y-57176190D01*
X47995238Y-57080952D01*
X48090476Y-56985714D01*
X48138095Y-56890476D01*
X56597619Y-56942857D02*
X57073809Y-57276190D01*
X56597619Y-57514285D02*
X57597619Y-57514285D01*
X57597619Y-57133333D01*
X57550000Y-57038095D01*
X57502380Y-56990476D01*
X57407142Y-56942857D01*
X57264285Y-56942857D01*
X57169047Y-56990476D01*
X57121428Y-57038095D01*
X57073809Y-57133333D01*
X57073809Y-57514285D01*
X56597619Y-55990476D02*
X56597619Y-56561904D01*
X56597619Y-56276190D02*
X57597619Y-56276190D01*
X57454761Y-56371428D01*
X57359523Y-56466666D01*
X57311904Y-56561904D01*
X57502380Y-55609523D02*
X57550000Y-55561904D01*
X57597619Y-55466666D01*
X57597619Y-55228571D01*
X57550000Y-55133333D01*
X57502380Y-55085714D01*
X57407142Y-55038095D01*
X57311904Y-55038095D01*
X57169047Y-55085714D01*
X56597619Y-55657142D01*
X56597619Y-55038095D01*
X61452380Y-56007142D02*
X60976190Y-55673809D01*
X61452380Y-55435714D02*
X60452380Y-55435714D01*
X60452380Y-55816666D01*
X60500000Y-55911904D01*
X60547619Y-55959523D01*
X60642857Y-56007142D01*
X60785714Y-56007142D01*
X60880952Y-55959523D01*
X60928571Y-55911904D01*
X60976190Y-55816666D01*
X60976190Y-55435714D01*
X61452380Y-56959523D02*
X61452380Y-56388095D01*
X61452380Y-56673809D02*
X60452380Y-56673809D01*
X60595238Y-56578571D01*
X60690476Y-56483333D01*
X60738095Y-56388095D01*
X60452380Y-57292857D02*
X60452380Y-57911904D01*
X60833333Y-57578571D01*
X60833333Y-57721428D01*
X60880952Y-57816666D01*
X60928571Y-57864285D01*
X61023809Y-57911904D01*
X61261904Y-57911904D01*
X61357142Y-57864285D01*
X61404761Y-57816666D01*
X61452380Y-57721428D01*
X61452380Y-57435714D01*
X61404761Y-57340476D01*
X61357142Y-57292857D01*
X65092857Y-39852380D02*
X65426190Y-39376190D01*
X65664285Y-39852380D02*
X65664285Y-38852380D01*
X65283333Y-38852380D01*
X65188095Y-38900000D01*
X65140476Y-38947619D01*
X65092857Y-39042857D01*
X65092857Y-39185714D01*
X65140476Y-39280952D01*
X65188095Y-39328571D01*
X65283333Y-39376190D01*
X65664285Y-39376190D01*
X64140476Y-39852380D02*
X64711904Y-39852380D01*
X64426190Y-39852380D02*
X64426190Y-38852380D01*
X64521428Y-38995238D01*
X64616666Y-39090476D01*
X64711904Y-39138095D01*
X63283333Y-39185714D02*
X63283333Y-39852380D01*
X63521428Y-38804761D02*
X63759523Y-39519047D01*
X63140476Y-39519047D01*
X60652380Y-28307142D02*
X60176190Y-27973809D01*
X60652380Y-27735714D02*
X59652380Y-27735714D01*
X59652380Y-28116666D01*
X59700000Y-28211904D01*
X59747619Y-28259523D01*
X59842857Y-28307142D01*
X59985714Y-28307142D01*
X60080952Y-28259523D01*
X60128571Y-28211904D01*
X60176190Y-28116666D01*
X60176190Y-27735714D01*
X60652380Y-29259523D02*
X60652380Y-28688095D01*
X60652380Y-28973809D02*
X59652380Y-28973809D01*
X59795238Y-28878571D01*
X59890476Y-28783333D01*
X59938095Y-28688095D01*
X59652380Y-30164285D02*
X59652380Y-29688095D01*
X60128571Y-29640476D01*
X60080952Y-29688095D01*
X60033333Y-29783333D01*
X60033333Y-30021428D01*
X60080952Y-30116666D01*
X60128571Y-30164285D01*
X60223809Y-30211904D01*
X60461904Y-30211904D01*
X60557142Y-30164285D01*
X60604761Y-30116666D01*
X60652380Y-30021428D01*
X60652380Y-29783333D01*
X60604761Y-29688095D01*
X60557142Y-29640476D01*
X51016666Y-29307142D02*
X51064285Y-29354761D01*
X51207142Y-29402380D01*
X51302380Y-29402380D01*
X51445238Y-29354761D01*
X51540476Y-29259523D01*
X51588095Y-29164285D01*
X51635714Y-28973809D01*
X51635714Y-28830952D01*
X51588095Y-28640476D01*
X51540476Y-28545238D01*
X51445238Y-28450000D01*
X51302380Y-28402380D01*
X51207142Y-28402380D01*
X51064285Y-28450000D01*
X51016666Y-28497619D01*
X50683333Y-28402380D02*
X50016666Y-28402380D01*
X50445238Y-29402380D01*
X50866666Y-27007142D02*
X50914285Y-27054761D01*
X51057142Y-27102380D01*
X51152380Y-27102380D01*
X51295238Y-27054761D01*
X51390476Y-26959523D01*
X51438095Y-26864285D01*
X51485714Y-26673809D01*
X51485714Y-26530952D01*
X51438095Y-26340476D01*
X51390476Y-26245238D01*
X51295238Y-26150000D01*
X51152380Y-26102380D01*
X51057142Y-26102380D01*
X50914285Y-26150000D01*
X50866666Y-26197619D01*
X50295238Y-26530952D02*
X50390476Y-26483333D01*
X50438095Y-26435714D01*
X50485714Y-26340476D01*
X50485714Y-26292857D01*
X50438095Y-26197619D01*
X50390476Y-26150000D01*
X50295238Y-26102380D01*
X50104761Y-26102380D01*
X50009523Y-26150000D01*
X49961904Y-26197619D01*
X49914285Y-26292857D01*
X49914285Y-26340476D01*
X49961904Y-26435714D01*
X50009523Y-26483333D01*
X50104761Y-26530952D01*
X50295238Y-26530952D01*
X50390476Y-26578571D01*
X50438095Y-26626190D01*
X50485714Y-26721428D01*
X50485714Y-26911904D01*
X50438095Y-27007142D01*
X50390476Y-27054761D01*
X50295238Y-27102380D01*
X50104761Y-27102380D01*
X50009523Y-27054761D01*
X49961904Y-27007142D01*
X49914285Y-26911904D01*
X49914285Y-26721428D01*
X49961904Y-26626190D01*
X50009523Y-26578571D01*
X50104761Y-26530952D01*
X59552380Y-55811904D02*
X58552380Y-55811904D01*
X58552380Y-56050000D01*
X58600000Y-56192857D01*
X58695238Y-56288095D01*
X58790476Y-56335714D01*
X58980952Y-56383333D01*
X59123809Y-56383333D01*
X59314285Y-56335714D01*
X59409523Y-56288095D01*
X59504761Y-56192857D01*
X59552380Y-56050000D01*
X59552380Y-55811904D01*
X58647619Y-56764285D02*
X58600000Y-56811904D01*
X58552380Y-56907142D01*
X58552380Y-57145238D01*
X58600000Y-57240476D01*
X58647619Y-57288095D01*
X58742857Y-57335714D01*
X58838095Y-57335714D01*
X58980952Y-57288095D01*
X59552380Y-56716666D01*
X59552380Y-57335714D01*
X40502380Y-26461904D02*
X39502380Y-26461904D01*
X39502380Y-26700000D01*
X39550000Y-26842857D01*
X39645238Y-26938095D01*
X39740476Y-26985714D01*
X39930952Y-27033333D01*
X40073809Y-27033333D01*
X40264285Y-26985714D01*
X40359523Y-26938095D01*
X40454761Y-26842857D01*
X40502380Y-26700000D01*
X40502380Y-26461904D01*
X39502380Y-27366666D02*
X39502380Y-27985714D01*
X39883333Y-27652380D01*
X39883333Y-27795238D01*
X39930952Y-27890476D01*
X39978571Y-27938095D01*
X40073809Y-27985714D01*
X40311904Y-27985714D01*
X40407142Y-27938095D01*
X40454761Y-27890476D01*
X40502380Y-27795238D01*
X40502380Y-27509523D01*
X40454761Y-27414285D01*
X40407142Y-27366666D01*
X40502380Y-31361904D02*
X39502380Y-31361904D01*
X39502380Y-31600000D01*
X39550000Y-31742857D01*
X39645238Y-31838095D01*
X39740476Y-31885714D01*
X39930952Y-31933333D01*
X40073809Y-31933333D01*
X40264285Y-31885714D01*
X40359523Y-31838095D01*
X40454761Y-31742857D01*
X40502380Y-31600000D01*
X40502380Y-31361904D01*
X39502380Y-32838095D02*
X39502380Y-32361904D01*
X39978571Y-32314285D01*
X39930952Y-32361904D01*
X39883333Y-32457142D01*
X39883333Y-32695238D01*
X39930952Y-32790476D01*
X39978571Y-32838095D01*
X40073809Y-32885714D01*
X40311904Y-32885714D01*
X40407142Y-32838095D01*
X40454761Y-32790476D01*
X40502380Y-32695238D01*
X40502380Y-32457142D01*
X40454761Y-32361904D01*
X40407142Y-32314285D01*
X40502380Y-36361904D02*
X39502380Y-36361904D01*
X39502380Y-36600000D01*
X39550000Y-36742857D01*
X39645238Y-36838095D01*
X39740476Y-36885714D01*
X39930952Y-36933333D01*
X40073809Y-36933333D01*
X40264285Y-36885714D01*
X40359523Y-36838095D01*
X40454761Y-36742857D01*
X40502380Y-36600000D01*
X40502380Y-36361904D01*
X39502380Y-37266666D02*
X39502380Y-37933333D01*
X40502380Y-37504761D01*
X40502380Y-41361904D02*
X39502380Y-41361904D01*
X39502380Y-41600000D01*
X39550000Y-41742857D01*
X39645238Y-41838095D01*
X39740476Y-41885714D01*
X39930952Y-41933333D01*
X40073809Y-41933333D01*
X40264285Y-41885714D01*
X40359523Y-41838095D01*
X40454761Y-41742857D01*
X40502380Y-41600000D01*
X40502380Y-41361904D01*
X40502380Y-42409523D02*
X40502380Y-42600000D01*
X40454761Y-42695238D01*
X40407142Y-42742857D01*
X40264285Y-42838095D01*
X40073809Y-42885714D01*
X39692857Y-42885714D01*
X39597619Y-42838095D01*
X39550000Y-42790476D01*
X39502380Y-42695238D01*
X39502380Y-42504761D01*
X39550000Y-42409523D01*
X39597619Y-42361904D01*
X39692857Y-42314285D01*
X39930952Y-42314285D01*
X40026190Y-42361904D01*
X40073809Y-42409523D01*
X40121428Y-42504761D01*
X40121428Y-42695238D01*
X40073809Y-42790476D01*
X40026190Y-42838095D01*
X39930952Y-42885714D01*
X40502380Y-46035714D02*
X39502380Y-46035714D01*
X39502380Y-46273809D01*
X39550000Y-46416666D01*
X39645238Y-46511904D01*
X39740476Y-46559523D01*
X39930952Y-46607142D01*
X40073809Y-46607142D01*
X40264285Y-46559523D01*
X40359523Y-46511904D01*
X40454761Y-46416666D01*
X40502380Y-46273809D01*
X40502380Y-46035714D01*
X40502380Y-47559523D02*
X40502380Y-46988095D01*
X40502380Y-47273809D02*
X39502380Y-47273809D01*
X39645238Y-47178571D01*
X39740476Y-47083333D01*
X39788095Y-46988095D01*
X39502380Y-48178571D02*
X39502380Y-48273809D01*
X39550000Y-48369047D01*
X39597619Y-48416666D01*
X39692857Y-48464285D01*
X39883333Y-48511904D01*
X40121428Y-48511904D01*
X40311904Y-48464285D01*
X40407142Y-48416666D01*
X40454761Y-48369047D01*
X40502380Y-48273809D01*
X40502380Y-48178571D01*
X40454761Y-48083333D01*
X40407142Y-48035714D01*
X40311904Y-47988095D01*
X40121428Y-47940476D01*
X39883333Y-47940476D01*
X39692857Y-47988095D01*
X39597619Y-48035714D01*
X39550000Y-48083333D01*
X39502380Y-48178571D01*
X72852380Y-47057142D02*
X72376190Y-46723809D01*
X72852380Y-46485714D02*
X71852380Y-46485714D01*
X71852380Y-46866666D01*
X71900000Y-46961904D01*
X71947619Y-47009523D01*
X72042857Y-47057142D01*
X72185714Y-47057142D01*
X72280952Y-47009523D01*
X72328571Y-46961904D01*
X72376190Y-46866666D01*
X72376190Y-46485714D01*
X71852380Y-47390476D02*
X71852380Y-48009523D01*
X72233333Y-47676190D01*
X72233333Y-47819047D01*
X72280952Y-47914285D01*
X72328571Y-47961904D01*
X72423809Y-48009523D01*
X72661904Y-48009523D01*
X72757142Y-47961904D01*
X72804761Y-47914285D01*
X72852380Y-47819047D01*
X72852380Y-47533333D01*
X72804761Y-47438095D01*
X72757142Y-47390476D01*
X71852380Y-48342857D02*
X71852380Y-48961904D01*
X72233333Y-48628571D01*
X72233333Y-48771428D01*
X72280952Y-48866666D01*
X72328571Y-48914285D01*
X72423809Y-48961904D01*
X72661904Y-48961904D01*
X72757142Y-48914285D01*
X72804761Y-48866666D01*
X72852380Y-48771428D01*
X72852380Y-48485714D01*
X72804761Y-48390476D01*
X72757142Y-48342857D01*
M02*
