M48
; DRILL file {KiCad 5.1.5-52549c5~84~ubuntu18.04.1} date Mi 08 ian 2020 12:56:49 +0200
; FORMAT={-:-/ absolute / inch / decimal}
; #@! TF.CreationDate,2020-01-08T12:56:49+02:00
; #@! TF.GenerationSoftware,Kicad,Pcbnew,5.1.5-52549c5~84~ubuntu18.04.1
; #@! TF.FileFunction,Plated,1,2,PTH
FMAT,2
INCH
T1C0.0157
T2C0.0197
T3C0.0295
T4C0.0394
T5C0.0787
%
G90
G05
T1
X1.1053Y-2.2067
X1.8543Y-2.1516
X1.9094Y-2.3012
X1.9528Y-1.8386
X2.0177Y-1.0492
X2.0413Y-1.5423
X2.1831Y-1.2106
X2.2303Y-1.8681
X2.2402Y-1.1732
X2.2411Y-1.312
X2.25Y-1.0492
X2.2795Y-1.2874
X2.2795Y-1.3386
X2.2815Y-0.8799
X2.3563Y-1.6122
X2.3661Y-1.5492
X2.3937Y-1.315
X2.4232Y-1.2362
X2.4291Y-1.0453
X2.4488Y-1.5492
X2.4685Y-1.6122
X2.4705Y-2.0453
X2.5079Y-1.6594
X2.5217Y-2.1516
X2.5906Y-1.2717
X2.6594Y-1.1909
X2.7126Y-1.0827
X2.7244Y-1.7559
X2.7402Y-0.9705
X2.7736Y-1.0827
X2.7913Y-2.0335
X2.7933Y-1.9902
X2.9348Y-1.1321
X2.935Y-0.9823
X2.9587Y-1.5768
X2.9587Y-1.7736
X2.9665Y-1.8386
T2
X1.122Y-1.9961
X1.7067Y-1.1201
X1.7067Y-1.313
X1.7067Y-1.5098
X1.7067Y-1.7067
X1.7067Y-1.9094
X1.7126Y-0.9961
X1.7126Y-1.189
X1.7126Y-1.3819
X1.7165Y-1.5827
X1.7165Y-1.7795
T3
X0.874Y-1.8386
X0.874Y-1.9173
X0.874Y-1.2323
X0.874Y-1.311
X0.874Y-1.3898
X0.874Y-1.4685
X0.874Y-1.5472
X0.874Y-1.626
X0.874Y-2.126
X0.874Y-2.2047
T4
X3.0394Y-1.8386
X3.0394Y-1.9386
X3.0394Y-2.0386
X3.0394Y-2.1386
X3.0394Y-2.2386
X3.0394Y-0.8976
X3.0394Y-0.9976
X3.0394Y-1.0976
X3.0394Y-1.1976
X2.5197Y-0.9118
X2.5197Y-1.0118
X2.5197Y-1.1118
T5
X1.1772Y-0.9843
X2.6358Y-2.1772
X1.3386Y-2.1654
X0.9646Y-0.9843
T0
M30
