G04 #@! TF.GenerationSoftware,KiCad,Pcbnew,5.1.5-52549c5~84~ubuntu18.04.1*
G04 #@! TF.CreationDate,2020-01-08T12:56:45+02:00*
G04 #@! TF.ProjectId,bq76920,62713736-3932-4302-9e6b-696361645f70,rev?*
G04 #@! TF.SameCoordinates,Original*
G04 #@! TF.FileFunction,Copper,L2,Bot*
G04 #@! TF.FilePolarity,Positive*
%FSLAX46Y46*%
G04 Gerber Fmt 4.6, Leading zero omitted, Abs format (unit mm)*
G04 Created by KiCad (PCBNEW 5.1.5-52549c5~84~ubuntu18.04.1) date 2020-01-08 12:56:45*
%MOMM*%
%LPD*%
G04 APERTURE LIST*
%ADD10R,1.700000X1.700000*%
%ADD11O,1.700000X1.700000*%
%ADD12C,0.100000*%
%ADD13O,1.750000X1.200000*%
%ADD14R,0.800000X0.900000*%
%ADD15C,4.000000*%
%ADD16R,1.000000X1.000000*%
%ADD17C,0.800000*%
%ADD18C,1.000000*%
%ADD19C,0.300000*%
%ADD20C,0.254000*%
G04 APERTURE END LIST*
D10*
X64000000Y-28240000D03*
D11*
X64000000Y-25700000D03*
X64000000Y-23160000D03*
G04 #@! TA.AperFunction,SMDPad,CuDef*
D12*
G36*
X75024505Y-25276204D02*
G01*
X75048773Y-25279804D01*
X75072572Y-25285765D01*
X75095671Y-25294030D01*
X75117850Y-25304520D01*
X75138893Y-25317132D01*
X75158599Y-25331747D01*
X75176777Y-25348223D01*
X75193253Y-25366401D01*
X75207868Y-25386107D01*
X75220480Y-25407150D01*
X75230970Y-25429329D01*
X75239235Y-25452428D01*
X75245196Y-25476227D01*
X75248796Y-25500495D01*
X75250000Y-25524999D01*
X75250000Y-26175001D01*
X75248796Y-26199505D01*
X75245196Y-26223773D01*
X75239235Y-26247572D01*
X75230970Y-26270671D01*
X75220480Y-26292850D01*
X75207868Y-26313893D01*
X75193253Y-26333599D01*
X75176777Y-26351777D01*
X75158599Y-26368253D01*
X75138893Y-26382868D01*
X75117850Y-26395480D01*
X75095671Y-26405970D01*
X75072572Y-26414235D01*
X75048773Y-26420196D01*
X75024505Y-26423796D01*
X75000001Y-26425000D01*
X74099999Y-26425000D01*
X74075495Y-26423796D01*
X74051227Y-26420196D01*
X74027428Y-26414235D01*
X74004329Y-26405970D01*
X73982150Y-26395480D01*
X73961107Y-26382868D01*
X73941401Y-26368253D01*
X73923223Y-26351777D01*
X73906747Y-26333599D01*
X73892132Y-26313893D01*
X73879520Y-26292850D01*
X73869030Y-26270671D01*
X73860765Y-26247572D01*
X73854804Y-26223773D01*
X73851204Y-26199505D01*
X73850000Y-26175001D01*
X73850000Y-25524999D01*
X73851204Y-25500495D01*
X73854804Y-25476227D01*
X73860765Y-25452428D01*
X73869030Y-25429329D01*
X73879520Y-25407150D01*
X73892132Y-25386107D01*
X73906747Y-25366401D01*
X73923223Y-25348223D01*
X73941401Y-25331747D01*
X73961107Y-25317132D01*
X73982150Y-25304520D01*
X74004329Y-25294030D01*
X74027428Y-25285765D01*
X74051227Y-25279804D01*
X74075495Y-25276204D01*
X74099999Y-25275000D01*
X75000001Y-25275000D01*
X75024505Y-25276204D01*
G37*
G04 #@! TD.AperFunction*
G04 #@! TA.AperFunction,SMDPad,CuDef*
G36*
X75024505Y-27326204D02*
G01*
X75048773Y-27329804D01*
X75072572Y-27335765D01*
X75095671Y-27344030D01*
X75117850Y-27354520D01*
X75138893Y-27367132D01*
X75158599Y-27381747D01*
X75176777Y-27398223D01*
X75193253Y-27416401D01*
X75207868Y-27436107D01*
X75220480Y-27457150D01*
X75230970Y-27479329D01*
X75239235Y-27502428D01*
X75245196Y-27526227D01*
X75248796Y-27550495D01*
X75250000Y-27574999D01*
X75250000Y-28225001D01*
X75248796Y-28249505D01*
X75245196Y-28273773D01*
X75239235Y-28297572D01*
X75230970Y-28320671D01*
X75220480Y-28342850D01*
X75207868Y-28363893D01*
X75193253Y-28383599D01*
X75176777Y-28401777D01*
X75158599Y-28418253D01*
X75138893Y-28432868D01*
X75117850Y-28445480D01*
X75095671Y-28455970D01*
X75072572Y-28464235D01*
X75048773Y-28470196D01*
X75024505Y-28473796D01*
X75000001Y-28475000D01*
X74099999Y-28475000D01*
X74075495Y-28473796D01*
X74051227Y-28470196D01*
X74027428Y-28464235D01*
X74004329Y-28455970D01*
X73982150Y-28445480D01*
X73961107Y-28432868D01*
X73941401Y-28418253D01*
X73923223Y-28401777D01*
X73906747Y-28383599D01*
X73892132Y-28363893D01*
X73879520Y-28342850D01*
X73869030Y-28320671D01*
X73860765Y-28297572D01*
X73854804Y-28273773D01*
X73851204Y-28249505D01*
X73850000Y-28225001D01*
X73850000Y-27574999D01*
X73851204Y-27550495D01*
X73854804Y-27526227D01*
X73860765Y-27502428D01*
X73869030Y-27479329D01*
X73879520Y-27457150D01*
X73892132Y-27436107D01*
X73906747Y-27416401D01*
X73923223Y-27398223D01*
X73941401Y-27381747D01*
X73961107Y-27367132D01*
X73982150Y-27354520D01*
X74004329Y-27344030D01*
X74027428Y-27335765D01*
X74051227Y-27329804D01*
X74075495Y-27326204D01*
X74099999Y-27325000D01*
X75000001Y-27325000D01*
X75024505Y-27326204D01*
G37*
G04 #@! TD.AperFunction*
G04 #@! TA.AperFunction,SMDPad,CuDef*
G36*
X55974505Y-31476204D02*
G01*
X55998773Y-31479804D01*
X56022572Y-31485765D01*
X56045671Y-31494030D01*
X56067850Y-31504520D01*
X56088893Y-31517132D01*
X56108599Y-31531747D01*
X56126777Y-31548223D01*
X56143253Y-31566401D01*
X56157868Y-31586107D01*
X56170480Y-31607150D01*
X56180970Y-31629329D01*
X56189235Y-31652428D01*
X56195196Y-31676227D01*
X56198796Y-31700495D01*
X56200000Y-31724999D01*
X56200000Y-32375001D01*
X56198796Y-32399505D01*
X56195196Y-32423773D01*
X56189235Y-32447572D01*
X56180970Y-32470671D01*
X56170480Y-32492850D01*
X56157868Y-32513893D01*
X56143253Y-32533599D01*
X56126777Y-32551777D01*
X56108599Y-32568253D01*
X56088893Y-32582868D01*
X56067850Y-32595480D01*
X56045671Y-32605970D01*
X56022572Y-32614235D01*
X55998773Y-32620196D01*
X55974505Y-32623796D01*
X55950001Y-32625000D01*
X55049999Y-32625000D01*
X55025495Y-32623796D01*
X55001227Y-32620196D01*
X54977428Y-32614235D01*
X54954329Y-32605970D01*
X54932150Y-32595480D01*
X54911107Y-32582868D01*
X54891401Y-32568253D01*
X54873223Y-32551777D01*
X54856747Y-32533599D01*
X54842132Y-32513893D01*
X54829520Y-32492850D01*
X54819030Y-32470671D01*
X54810765Y-32447572D01*
X54804804Y-32423773D01*
X54801204Y-32399505D01*
X54800000Y-32375001D01*
X54800000Y-31724999D01*
X54801204Y-31700495D01*
X54804804Y-31676227D01*
X54810765Y-31652428D01*
X54819030Y-31629329D01*
X54829520Y-31607150D01*
X54842132Y-31586107D01*
X54856747Y-31566401D01*
X54873223Y-31548223D01*
X54891401Y-31531747D01*
X54911107Y-31517132D01*
X54932150Y-31504520D01*
X54954329Y-31494030D01*
X54977428Y-31485765D01*
X55001227Y-31479804D01*
X55025495Y-31476204D01*
X55049999Y-31475000D01*
X55950001Y-31475000D01*
X55974505Y-31476204D01*
G37*
G04 #@! TD.AperFunction*
G04 #@! TA.AperFunction,SMDPad,CuDef*
G36*
X55974505Y-33526204D02*
G01*
X55998773Y-33529804D01*
X56022572Y-33535765D01*
X56045671Y-33544030D01*
X56067850Y-33554520D01*
X56088893Y-33567132D01*
X56108599Y-33581747D01*
X56126777Y-33598223D01*
X56143253Y-33616401D01*
X56157868Y-33636107D01*
X56170480Y-33657150D01*
X56180970Y-33679329D01*
X56189235Y-33702428D01*
X56195196Y-33726227D01*
X56198796Y-33750495D01*
X56200000Y-33774999D01*
X56200000Y-34425001D01*
X56198796Y-34449505D01*
X56195196Y-34473773D01*
X56189235Y-34497572D01*
X56180970Y-34520671D01*
X56170480Y-34542850D01*
X56157868Y-34563893D01*
X56143253Y-34583599D01*
X56126777Y-34601777D01*
X56108599Y-34618253D01*
X56088893Y-34632868D01*
X56067850Y-34645480D01*
X56045671Y-34655970D01*
X56022572Y-34664235D01*
X55998773Y-34670196D01*
X55974505Y-34673796D01*
X55950001Y-34675000D01*
X55049999Y-34675000D01*
X55025495Y-34673796D01*
X55001227Y-34670196D01*
X54977428Y-34664235D01*
X54954329Y-34655970D01*
X54932150Y-34645480D01*
X54911107Y-34632868D01*
X54891401Y-34618253D01*
X54873223Y-34601777D01*
X54856747Y-34583599D01*
X54842132Y-34563893D01*
X54829520Y-34542850D01*
X54819030Y-34520671D01*
X54810765Y-34497572D01*
X54804804Y-34473773D01*
X54801204Y-34449505D01*
X54800000Y-34425001D01*
X54800000Y-33774999D01*
X54801204Y-33750495D01*
X54804804Y-33726227D01*
X54810765Y-33702428D01*
X54819030Y-33679329D01*
X54829520Y-33657150D01*
X54842132Y-33636107D01*
X54856747Y-33616401D01*
X54873223Y-33598223D01*
X54891401Y-33581747D01*
X54911107Y-33567132D01*
X54932150Y-33554520D01*
X54954329Y-33544030D01*
X54977428Y-33535765D01*
X55001227Y-33529804D01*
X55025495Y-33526204D01*
X55049999Y-33525000D01*
X55950001Y-33525000D01*
X55974505Y-33526204D01*
G37*
G04 #@! TD.AperFunction*
G04 #@! TA.AperFunction,ComponentPad*
G36*
X22849505Y-40701204D02*
G01*
X22873773Y-40704804D01*
X22897572Y-40710765D01*
X22920671Y-40719030D01*
X22942850Y-40729520D01*
X22963893Y-40742132D01*
X22983599Y-40756747D01*
X23001777Y-40773223D01*
X23018253Y-40791401D01*
X23032868Y-40811107D01*
X23045480Y-40832150D01*
X23055970Y-40854329D01*
X23064235Y-40877428D01*
X23070196Y-40901227D01*
X23073796Y-40925495D01*
X23075000Y-40949999D01*
X23075000Y-41650001D01*
X23073796Y-41674505D01*
X23070196Y-41698773D01*
X23064235Y-41722572D01*
X23055970Y-41745671D01*
X23045480Y-41767850D01*
X23032868Y-41788893D01*
X23018253Y-41808599D01*
X23001777Y-41826777D01*
X22983599Y-41843253D01*
X22963893Y-41857868D01*
X22942850Y-41870480D01*
X22920671Y-41880970D01*
X22897572Y-41889235D01*
X22873773Y-41895196D01*
X22849505Y-41898796D01*
X22825001Y-41900000D01*
X21574999Y-41900000D01*
X21550495Y-41898796D01*
X21526227Y-41895196D01*
X21502428Y-41889235D01*
X21479329Y-41880970D01*
X21457150Y-41870480D01*
X21436107Y-41857868D01*
X21416401Y-41843253D01*
X21398223Y-41826777D01*
X21381747Y-41808599D01*
X21367132Y-41788893D01*
X21354520Y-41767850D01*
X21344030Y-41745671D01*
X21335765Y-41722572D01*
X21329804Y-41698773D01*
X21326204Y-41674505D01*
X21325000Y-41650001D01*
X21325000Y-40949999D01*
X21326204Y-40925495D01*
X21329804Y-40901227D01*
X21335765Y-40877428D01*
X21344030Y-40854329D01*
X21354520Y-40832150D01*
X21367132Y-40811107D01*
X21381747Y-40791401D01*
X21398223Y-40773223D01*
X21416401Y-40756747D01*
X21436107Y-40742132D01*
X21457150Y-40729520D01*
X21479329Y-40719030D01*
X21502428Y-40710765D01*
X21526227Y-40704804D01*
X21550495Y-40701204D01*
X21574999Y-40700000D01*
X22825001Y-40700000D01*
X22849505Y-40701204D01*
G37*
G04 #@! TD.AperFunction*
D13*
X22200000Y-39300000D03*
X22200000Y-37300000D03*
X22200000Y-35300000D03*
X22200000Y-33300000D03*
X22200000Y-31300000D03*
G04 #@! TA.AperFunction,ComponentPad*
D12*
G36*
X22849505Y-55401204D02*
G01*
X22873773Y-55404804D01*
X22897572Y-55410765D01*
X22920671Y-55419030D01*
X22942850Y-55429520D01*
X22963893Y-55442132D01*
X22983599Y-55456747D01*
X23001777Y-55473223D01*
X23018253Y-55491401D01*
X23032868Y-55511107D01*
X23045480Y-55532150D01*
X23055970Y-55554329D01*
X23064235Y-55577428D01*
X23070196Y-55601227D01*
X23073796Y-55625495D01*
X23075000Y-55649999D01*
X23075000Y-56350001D01*
X23073796Y-56374505D01*
X23070196Y-56398773D01*
X23064235Y-56422572D01*
X23055970Y-56445671D01*
X23045480Y-56467850D01*
X23032868Y-56488893D01*
X23018253Y-56508599D01*
X23001777Y-56526777D01*
X22983599Y-56543253D01*
X22963893Y-56557868D01*
X22942850Y-56570480D01*
X22920671Y-56580970D01*
X22897572Y-56589235D01*
X22873773Y-56595196D01*
X22849505Y-56598796D01*
X22825001Y-56600000D01*
X21574999Y-56600000D01*
X21550495Y-56598796D01*
X21526227Y-56595196D01*
X21502428Y-56589235D01*
X21479329Y-56580970D01*
X21457150Y-56570480D01*
X21436107Y-56557868D01*
X21416401Y-56543253D01*
X21398223Y-56526777D01*
X21381747Y-56508599D01*
X21367132Y-56488893D01*
X21354520Y-56467850D01*
X21344030Y-56445671D01*
X21335765Y-56422572D01*
X21329804Y-56398773D01*
X21326204Y-56374505D01*
X21325000Y-56350001D01*
X21325000Y-55649999D01*
X21326204Y-55625495D01*
X21329804Y-55601227D01*
X21335765Y-55577428D01*
X21344030Y-55554329D01*
X21354520Y-55532150D01*
X21367132Y-55511107D01*
X21381747Y-55491401D01*
X21398223Y-55473223D01*
X21416401Y-55456747D01*
X21436107Y-55442132D01*
X21457150Y-55429520D01*
X21479329Y-55419030D01*
X21502428Y-55410765D01*
X21526227Y-55404804D01*
X21550495Y-55401204D01*
X21574999Y-55400000D01*
X22825001Y-55400000D01*
X22849505Y-55401204D01*
G37*
G04 #@! TD.AperFunction*
D13*
X22200000Y-54000000D03*
X22200000Y-46700000D03*
G04 #@! TA.AperFunction,ComponentPad*
D12*
G36*
X22849505Y-48101204D02*
G01*
X22873773Y-48104804D01*
X22897572Y-48110765D01*
X22920671Y-48119030D01*
X22942850Y-48129520D01*
X22963893Y-48142132D01*
X22983599Y-48156747D01*
X23001777Y-48173223D01*
X23018253Y-48191401D01*
X23032868Y-48211107D01*
X23045480Y-48232150D01*
X23055970Y-48254329D01*
X23064235Y-48277428D01*
X23070196Y-48301227D01*
X23073796Y-48325495D01*
X23075000Y-48349999D01*
X23075000Y-49050001D01*
X23073796Y-49074505D01*
X23070196Y-49098773D01*
X23064235Y-49122572D01*
X23055970Y-49145671D01*
X23045480Y-49167850D01*
X23032868Y-49188893D01*
X23018253Y-49208599D01*
X23001777Y-49226777D01*
X22983599Y-49243253D01*
X22963893Y-49257868D01*
X22942850Y-49270480D01*
X22920671Y-49280970D01*
X22897572Y-49289235D01*
X22873773Y-49295196D01*
X22849505Y-49298796D01*
X22825001Y-49300000D01*
X21574999Y-49300000D01*
X21550495Y-49298796D01*
X21526227Y-49295196D01*
X21502428Y-49289235D01*
X21479329Y-49280970D01*
X21457150Y-49270480D01*
X21436107Y-49257868D01*
X21416401Y-49243253D01*
X21398223Y-49226777D01*
X21381747Y-49208599D01*
X21367132Y-49188893D01*
X21354520Y-49167850D01*
X21344030Y-49145671D01*
X21335765Y-49122572D01*
X21329804Y-49098773D01*
X21326204Y-49074505D01*
X21325000Y-49050001D01*
X21325000Y-48349999D01*
X21326204Y-48325495D01*
X21329804Y-48301227D01*
X21335765Y-48277428D01*
X21344030Y-48254329D01*
X21354520Y-48232150D01*
X21367132Y-48211107D01*
X21381747Y-48191401D01*
X21398223Y-48173223D01*
X21416401Y-48156747D01*
X21436107Y-48142132D01*
X21457150Y-48129520D01*
X21479329Y-48119030D01*
X21502428Y-48110765D01*
X21526227Y-48104804D01*
X21550495Y-48101204D01*
X21574999Y-48100000D01*
X22825001Y-48100000D01*
X22849505Y-48101204D01*
G37*
G04 #@! TD.AperFunction*
D14*
X57600000Y-48400000D03*
X59500000Y-48400000D03*
X58550000Y-50400000D03*
G04 #@! TA.AperFunction,SMDPad,CuDef*
D12*
G36*
X45124505Y-55826204D02*
G01*
X45148773Y-55829804D01*
X45172572Y-55835765D01*
X45195671Y-55844030D01*
X45217850Y-55854520D01*
X45238893Y-55867132D01*
X45258599Y-55881747D01*
X45276777Y-55898223D01*
X45293253Y-55916401D01*
X45307868Y-55936107D01*
X45320480Y-55957150D01*
X45330970Y-55979329D01*
X45339235Y-56002428D01*
X45345196Y-56026227D01*
X45348796Y-56050495D01*
X45350000Y-56074999D01*
X45350000Y-56725001D01*
X45348796Y-56749505D01*
X45345196Y-56773773D01*
X45339235Y-56797572D01*
X45330970Y-56820671D01*
X45320480Y-56842850D01*
X45307868Y-56863893D01*
X45293253Y-56883599D01*
X45276777Y-56901777D01*
X45258599Y-56918253D01*
X45238893Y-56932868D01*
X45217850Y-56945480D01*
X45195671Y-56955970D01*
X45172572Y-56964235D01*
X45148773Y-56970196D01*
X45124505Y-56973796D01*
X45100001Y-56975000D01*
X44199999Y-56975000D01*
X44175495Y-56973796D01*
X44151227Y-56970196D01*
X44127428Y-56964235D01*
X44104329Y-56955970D01*
X44082150Y-56945480D01*
X44061107Y-56932868D01*
X44041401Y-56918253D01*
X44023223Y-56901777D01*
X44006747Y-56883599D01*
X43992132Y-56863893D01*
X43979520Y-56842850D01*
X43969030Y-56820671D01*
X43960765Y-56797572D01*
X43954804Y-56773773D01*
X43951204Y-56749505D01*
X43950000Y-56725001D01*
X43950000Y-56074999D01*
X43951204Y-56050495D01*
X43954804Y-56026227D01*
X43960765Y-56002428D01*
X43969030Y-55979329D01*
X43979520Y-55957150D01*
X43992132Y-55936107D01*
X44006747Y-55916401D01*
X44023223Y-55898223D01*
X44041401Y-55881747D01*
X44061107Y-55867132D01*
X44082150Y-55854520D01*
X44104329Y-55844030D01*
X44127428Y-55835765D01*
X44151227Y-55829804D01*
X44175495Y-55826204D01*
X44199999Y-55825000D01*
X45100001Y-55825000D01*
X45124505Y-55826204D01*
G37*
G04 #@! TD.AperFunction*
G04 #@! TA.AperFunction,SMDPad,CuDef*
G36*
X45124505Y-57876204D02*
G01*
X45148773Y-57879804D01*
X45172572Y-57885765D01*
X45195671Y-57894030D01*
X45217850Y-57904520D01*
X45238893Y-57917132D01*
X45258599Y-57931747D01*
X45276777Y-57948223D01*
X45293253Y-57966401D01*
X45307868Y-57986107D01*
X45320480Y-58007150D01*
X45330970Y-58029329D01*
X45339235Y-58052428D01*
X45345196Y-58076227D01*
X45348796Y-58100495D01*
X45350000Y-58124999D01*
X45350000Y-58775001D01*
X45348796Y-58799505D01*
X45345196Y-58823773D01*
X45339235Y-58847572D01*
X45330970Y-58870671D01*
X45320480Y-58892850D01*
X45307868Y-58913893D01*
X45293253Y-58933599D01*
X45276777Y-58951777D01*
X45258599Y-58968253D01*
X45238893Y-58982868D01*
X45217850Y-58995480D01*
X45195671Y-59005970D01*
X45172572Y-59014235D01*
X45148773Y-59020196D01*
X45124505Y-59023796D01*
X45100001Y-59025000D01*
X44199999Y-59025000D01*
X44175495Y-59023796D01*
X44151227Y-59020196D01*
X44127428Y-59014235D01*
X44104329Y-59005970D01*
X44082150Y-58995480D01*
X44061107Y-58982868D01*
X44041401Y-58968253D01*
X44023223Y-58951777D01*
X44006747Y-58933599D01*
X43992132Y-58913893D01*
X43979520Y-58892850D01*
X43969030Y-58870671D01*
X43960765Y-58847572D01*
X43954804Y-58823773D01*
X43951204Y-58799505D01*
X43950000Y-58775001D01*
X43950000Y-58124999D01*
X43951204Y-58100495D01*
X43954804Y-58076227D01*
X43960765Y-58052428D01*
X43969030Y-58029329D01*
X43979520Y-58007150D01*
X43992132Y-57986107D01*
X44006747Y-57966401D01*
X44023223Y-57948223D01*
X44041401Y-57931747D01*
X44061107Y-57917132D01*
X44082150Y-57904520D01*
X44104329Y-57894030D01*
X44127428Y-57885765D01*
X44151227Y-57879804D01*
X44175495Y-57876204D01*
X44199999Y-57875000D01*
X45100001Y-57875000D01*
X45124505Y-57876204D01*
G37*
G04 #@! TD.AperFunction*
G04 #@! TA.AperFunction,SMDPad,CuDef*
G36*
X47174505Y-55826204D02*
G01*
X47198773Y-55829804D01*
X47222572Y-55835765D01*
X47245671Y-55844030D01*
X47267850Y-55854520D01*
X47288893Y-55867132D01*
X47308599Y-55881747D01*
X47326777Y-55898223D01*
X47343253Y-55916401D01*
X47357868Y-55936107D01*
X47370480Y-55957150D01*
X47380970Y-55979329D01*
X47389235Y-56002428D01*
X47395196Y-56026227D01*
X47398796Y-56050495D01*
X47400000Y-56074999D01*
X47400000Y-56725001D01*
X47398796Y-56749505D01*
X47395196Y-56773773D01*
X47389235Y-56797572D01*
X47380970Y-56820671D01*
X47370480Y-56842850D01*
X47357868Y-56863893D01*
X47343253Y-56883599D01*
X47326777Y-56901777D01*
X47308599Y-56918253D01*
X47288893Y-56932868D01*
X47267850Y-56945480D01*
X47245671Y-56955970D01*
X47222572Y-56964235D01*
X47198773Y-56970196D01*
X47174505Y-56973796D01*
X47150001Y-56975000D01*
X46249999Y-56975000D01*
X46225495Y-56973796D01*
X46201227Y-56970196D01*
X46177428Y-56964235D01*
X46154329Y-56955970D01*
X46132150Y-56945480D01*
X46111107Y-56932868D01*
X46091401Y-56918253D01*
X46073223Y-56901777D01*
X46056747Y-56883599D01*
X46042132Y-56863893D01*
X46029520Y-56842850D01*
X46019030Y-56820671D01*
X46010765Y-56797572D01*
X46004804Y-56773773D01*
X46001204Y-56749505D01*
X46000000Y-56725001D01*
X46000000Y-56074999D01*
X46001204Y-56050495D01*
X46004804Y-56026227D01*
X46010765Y-56002428D01*
X46019030Y-55979329D01*
X46029520Y-55957150D01*
X46042132Y-55936107D01*
X46056747Y-55916401D01*
X46073223Y-55898223D01*
X46091401Y-55881747D01*
X46111107Y-55867132D01*
X46132150Y-55854520D01*
X46154329Y-55844030D01*
X46177428Y-55835765D01*
X46201227Y-55829804D01*
X46225495Y-55826204D01*
X46249999Y-55825000D01*
X47150001Y-55825000D01*
X47174505Y-55826204D01*
G37*
G04 #@! TD.AperFunction*
G04 #@! TA.AperFunction,SMDPad,CuDef*
G36*
X47174505Y-57876204D02*
G01*
X47198773Y-57879804D01*
X47222572Y-57885765D01*
X47245671Y-57894030D01*
X47267850Y-57904520D01*
X47288893Y-57917132D01*
X47308599Y-57931747D01*
X47326777Y-57948223D01*
X47343253Y-57966401D01*
X47357868Y-57986107D01*
X47370480Y-58007150D01*
X47380970Y-58029329D01*
X47389235Y-58052428D01*
X47395196Y-58076227D01*
X47398796Y-58100495D01*
X47400000Y-58124999D01*
X47400000Y-58775001D01*
X47398796Y-58799505D01*
X47395196Y-58823773D01*
X47389235Y-58847572D01*
X47380970Y-58870671D01*
X47370480Y-58892850D01*
X47357868Y-58913893D01*
X47343253Y-58933599D01*
X47326777Y-58951777D01*
X47308599Y-58968253D01*
X47288893Y-58982868D01*
X47267850Y-58995480D01*
X47245671Y-59005970D01*
X47222572Y-59014235D01*
X47198773Y-59020196D01*
X47174505Y-59023796D01*
X47150001Y-59025000D01*
X46249999Y-59025000D01*
X46225495Y-59023796D01*
X46201227Y-59020196D01*
X46177428Y-59014235D01*
X46154329Y-59005970D01*
X46132150Y-58995480D01*
X46111107Y-58982868D01*
X46091401Y-58968253D01*
X46073223Y-58951777D01*
X46056747Y-58933599D01*
X46042132Y-58913893D01*
X46029520Y-58892850D01*
X46019030Y-58870671D01*
X46010765Y-58847572D01*
X46004804Y-58823773D01*
X46001204Y-58799505D01*
X46000000Y-58775001D01*
X46000000Y-58124999D01*
X46001204Y-58100495D01*
X46004804Y-58076227D01*
X46010765Y-58052428D01*
X46019030Y-58029329D01*
X46029520Y-58007150D01*
X46042132Y-57986107D01*
X46056747Y-57966401D01*
X46073223Y-57948223D01*
X46091401Y-57931747D01*
X46111107Y-57917132D01*
X46132150Y-57904520D01*
X46154329Y-57894030D01*
X46177428Y-57885765D01*
X46201227Y-57879804D01*
X46225495Y-57876204D01*
X46249999Y-57875000D01*
X47150001Y-57875000D01*
X47174505Y-57876204D01*
G37*
G04 #@! TD.AperFunction*
G04 #@! TA.AperFunction,SMDPad,CuDef*
G36*
X57624505Y-53426204D02*
G01*
X57648773Y-53429804D01*
X57672572Y-53435765D01*
X57695671Y-53444030D01*
X57717850Y-53454520D01*
X57738893Y-53467132D01*
X57758599Y-53481747D01*
X57776777Y-53498223D01*
X57793253Y-53516401D01*
X57807868Y-53536107D01*
X57820480Y-53557150D01*
X57830970Y-53579329D01*
X57839235Y-53602428D01*
X57845196Y-53626227D01*
X57848796Y-53650495D01*
X57850000Y-53674999D01*
X57850000Y-54325001D01*
X57848796Y-54349505D01*
X57845196Y-54373773D01*
X57839235Y-54397572D01*
X57830970Y-54420671D01*
X57820480Y-54442850D01*
X57807868Y-54463893D01*
X57793253Y-54483599D01*
X57776777Y-54501777D01*
X57758599Y-54518253D01*
X57738893Y-54532868D01*
X57717850Y-54545480D01*
X57695671Y-54555970D01*
X57672572Y-54564235D01*
X57648773Y-54570196D01*
X57624505Y-54573796D01*
X57600001Y-54575000D01*
X56699999Y-54575000D01*
X56675495Y-54573796D01*
X56651227Y-54570196D01*
X56627428Y-54564235D01*
X56604329Y-54555970D01*
X56582150Y-54545480D01*
X56561107Y-54532868D01*
X56541401Y-54518253D01*
X56523223Y-54501777D01*
X56506747Y-54483599D01*
X56492132Y-54463893D01*
X56479520Y-54442850D01*
X56469030Y-54420671D01*
X56460765Y-54397572D01*
X56454804Y-54373773D01*
X56451204Y-54349505D01*
X56450000Y-54325001D01*
X56450000Y-53674999D01*
X56451204Y-53650495D01*
X56454804Y-53626227D01*
X56460765Y-53602428D01*
X56469030Y-53579329D01*
X56479520Y-53557150D01*
X56492132Y-53536107D01*
X56506747Y-53516401D01*
X56523223Y-53498223D01*
X56541401Y-53481747D01*
X56561107Y-53467132D01*
X56582150Y-53454520D01*
X56604329Y-53444030D01*
X56627428Y-53435765D01*
X56651227Y-53429804D01*
X56675495Y-53426204D01*
X56699999Y-53425000D01*
X57600001Y-53425000D01*
X57624505Y-53426204D01*
G37*
G04 #@! TD.AperFunction*
G04 #@! TA.AperFunction,SMDPad,CuDef*
G36*
X57624505Y-51376204D02*
G01*
X57648773Y-51379804D01*
X57672572Y-51385765D01*
X57695671Y-51394030D01*
X57717850Y-51404520D01*
X57738893Y-51417132D01*
X57758599Y-51431747D01*
X57776777Y-51448223D01*
X57793253Y-51466401D01*
X57807868Y-51486107D01*
X57820480Y-51507150D01*
X57830970Y-51529329D01*
X57839235Y-51552428D01*
X57845196Y-51576227D01*
X57848796Y-51600495D01*
X57850000Y-51624999D01*
X57850000Y-52275001D01*
X57848796Y-52299505D01*
X57845196Y-52323773D01*
X57839235Y-52347572D01*
X57830970Y-52370671D01*
X57820480Y-52392850D01*
X57807868Y-52413893D01*
X57793253Y-52433599D01*
X57776777Y-52451777D01*
X57758599Y-52468253D01*
X57738893Y-52482868D01*
X57717850Y-52495480D01*
X57695671Y-52505970D01*
X57672572Y-52514235D01*
X57648773Y-52520196D01*
X57624505Y-52523796D01*
X57600001Y-52525000D01*
X56699999Y-52525000D01*
X56675495Y-52523796D01*
X56651227Y-52520196D01*
X56627428Y-52514235D01*
X56604329Y-52505970D01*
X56582150Y-52495480D01*
X56561107Y-52482868D01*
X56541401Y-52468253D01*
X56523223Y-52451777D01*
X56506747Y-52433599D01*
X56492132Y-52413893D01*
X56479520Y-52392850D01*
X56469030Y-52370671D01*
X56460765Y-52347572D01*
X56454804Y-52323773D01*
X56451204Y-52299505D01*
X56450000Y-52275001D01*
X56450000Y-51624999D01*
X56451204Y-51600495D01*
X56454804Y-51576227D01*
X56460765Y-51552428D01*
X56469030Y-51529329D01*
X56479520Y-51507150D01*
X56492132Y-51486107D01*
X56506747Y-51466401D01*
X56523223Y-51448223D01*
X56541401Y-51431747D01*
X56561107Y-51417132D01*
X56582150Y-51404520D01*
X56604329Y-51394030D01*
X56627428Y-51385765D01*
X56651227Y-51379804D01*
X56675495Y-51376204D01*
X56699999Y-51375000D01*
X57600001Y-51375000D01*
X57624505Y-51376204D01*
G37*
G04 #@! TD.AperFunction*
G04 #@! TA.AperFunction,SMDPad,CuDef*
G36*
X61474505Y-53426204D02*
G01*
X61498773Y-53429804D01*
X61522572Y-53435765D01*
X61545671Y-53444030D01*
X61567850Y-53454520D01*
X61588893Y-53467132D01*
X61608599Y-53481747D01*
X61626777Y-53498223D01*
X61643253Y-53516401D01*
X61657868Y-53536107D01*
X61670480Y-53557150D01*
X61680970Y-53579329D01*
X61689235Y-53602428D01*
X61695196Y-53626227D01*
X61698796Y-53650495D01*
X61700000Y-53674999D01*
X61700000Y-54325001D01*
X61698796Y-54349505D01*
X61695196Y-54373773D01*
X61689235Y-54397572D01*
X61680970Y-54420671D01*
X61670480Y-54442850D01*
X61657868Y-54463893D01*
X61643253Y-54483599D01*
X61626777Y-54501777D01*
X61608599Y-54518253D01*
X61588893Y-54532868D01*
X61567850Y-54545480D01*
X61545671Y-54555970D01*
X61522572Y-54564235D01*
X61498773Y-54570196D01*
X61474505Y-54573796D01*
X61450001Y-54575000D01*
X60549999Y-54575000D01*
X60525495Y-54573796D01*
X60501227Y-54570196D01*
X60477428Y-54564235D01*
X60454329Y-54555970D01*
X60432150Y-54545480D01*
X60411107Y-54532868D01*
X60391401Y-54518253D01*
X60373223Y-54501777D01*
X60356747Y-54483599D01*
X60342132Y-54463893D01*
X60329520Y-54442850D01*
X60319030Y-54420671D01*
X60310765Y-54397572D01*
X60304804Y-54373773D01*
X60301204Y-54349505D01*
X60300000Y-54325001D01*
X60300000Y-53674999D01*
X60301204Y-53650495D01*
X60304804Y-53626227D01*
X60310765Y-53602428D01*
X60319030Y-53579329D01*
X60329520Y-53557150D01*
X60342132Y-53536107D01*
X60356747Y-53516401D01*
X60373223Y-53498223D01*
X60391401Y-53481747D01*
X60411107Y-53467132D01*
X60432150Y-53454520D01*
X60454329Y-53444030D01*
X60477428Y-53435765D01*
X60501227Y-53429804D01*
X60525495Y-53426204D01*
X60549999Y-53425000D01*
X61450001Y-53425000D01*
X61474505Y-53426204D01*
G37*
G04 #@! TD.AperFunction*
G04 #@! TA.AperFunction,SMDPad,CuDef*
G36*
X61474505Y-51376204D02*
G01*
X61498773Y-51379804D01*
X61522572Y-51385765D01*
X61545671Y-51394030D01*
X61567850Y-51404520D01*
X61588893Y-51417132D01*
X61608599Y-51431747D01*
X61626777Y-51448223D01*
X61643253Y-51466401D01*
X61657868Y-51486107D01*
X61670480Y-51507150D01*
X61680970Y-51529329D01*
X61689235Y-51552428D01*
X61695196Y-51576227D01*
X61698796Y-51600495D01*
X61700000Y-51624999D01*
X61700000Y-52275001D01*
X61698796Y-52299505D01*
X61695196Y-52323773D01*
X61689235Y-52347572D01*
X61680970Y-52370671D01*
X61670480Y-52392850D01*
X61657868Y-52413893D01*
X61643253Y-52433599D01*
X61626777Y-52451777D01*
X61608599Y-52468253D01*
X61588893Y-52482868D01*
X61567850Y-52495480D01*
X61545671Y-52505970D01*
X61522572Y-52514235D01*
X61498773Y-52520196D01*
X61474505Y-52523796D01*
X61450001Y-52525000D01*
X60549999Y-52525000D01*
X60525495Y-52523796D01*
X60501227Y-52520196D01*
X60477428Y-52514235D01*
X60454329Y-52505970D01*
X60432150Y-52495480D01*
X60411107Y-52482868D01*
X60391401Y-52468253D01*
X60373223Y-52451777D01*
X60356747Y-52433599D01*
X60342132Y-52413893D01*
X60329520Y-52392850D01*
X60319030Y-52370671D01*
X60310765Y-52347572D01*
X60304804Y-52323773D01*
X60301204Y-52299505D01*
X60300000Y-52275001D01*
X60300000Y-51624999D01*
X60301204Y-51600495D01*
X60304804Y-51576227D01*
X60310765Y-51552428D01*
X60319030Y-51529329D01*
X60329520Y-51507150D01*
X60342132Y-51486107D01*
X60356747Y-51466401D01*
X60373223Y-51448223D01*
X60391401Y-51431747D01*
X60411107Y-51417132D01*
X60432150Y-51404520D01*
X60454329Y-51394030D01*
X60477428Y-51385765D01*
X60501227Y-51379804D01*
X60525495Y-51376204D01*
X60549999Y-51375000D01*
X61450001Y-51375000D01*
X61474505Y-51376204D01*
G37*
G04 #@! TD.AperFunction*
G04 #@! TA.AperFunction,SMDPad,CuDef*
G36*
X62524505Y-38651204D02*
G01*
X62548773Y-38654804D01*
X62572572Y-38660765D01*
X62595671Y-38669030D01*
X62617850Y-38679520D01*
X62638893Y-38692132D01*
X62658599Y-38706747D01*
X62676777Y-38723223D01*
X62693253Y-38741401D01*
X62707868Y-38761107D01*
X62720480Y-38782150D01*
X62730970Y-38804329D01*
X62739235Y-38827428D01*
X62745196Y-38851227D01*
X62748796Y-38875495D01*
X62750000Y-38899999D01*
X62750000Y-39800001D01*
X62748796Y-39824505D01*
X62745196Y-39848773D01*
X62739235Y-39872572D01*
X62730970Y-39895671D01*
X62720480Y-39917850D01*
X62707868Y-39938893D01*
X62693253Y-39958599D01*
X62676777Y-39976777D01*
X62658599Y-39993253D01*
X62638893Y-40007868D01*
X62617850Y-40020480D01*
X62595671Y-40030970D01*
X62572572Y-40039235D01*
X62548773Y-40045196D01*
X62524505Y-40048796D01*
X62500001Y-40050000D01*
X61849999Y-40050000D01*
X61825495Y-40048796D01*
X61801227Y-40045196D01*
X61777428Y-40039235D01*
X61754329Y-40030970D01*
X61732150Y-40020480D01*
X61711107Y-40007868D01*
X61691401Y-39993253D01*
X61673223Y-39976777D01*
X61656747Y-39958599D01*
X61642132Y-39938893D01*
X61629520Y-39917850D01*
X61619030Y-39895671D01*
X61610765Y-39872572D01*
X61604804Y-39848773D01*
X61601204Y-39824505D01*
X61600000Y-39800001D01*
X61600000Y-38899999D01*
X61601204Y-38875495D01*
X61604804Y-38851227D01*
X61610765Y-38827428D01*
X61619030Y-38804329D01*
X61629520Y-38782150D01*
X61642132Y-38761107D01*
X61656747Y-38741401D01*
X61673223Y-38723223D01*
X61691401Y-38706747D01*
X61711107Y-38692132D01*
X61732150Y-38679520D01*
X61754329Y-38669030D01*
X61777428Y-38660765D01*
X61801227Y-38654804D01*
X61825495Y-38651204D01*
X61849999Y-38650000D01*
X62500001Y-38650000D01*
X62524505Y-38651204D01*
G37*
G04 #@! TD.AperFunction*
G04 #@! TA.AperFunction,SMDPad,CuDef*
G36*
X60474505Y-38651204D02*
G01*
X60498773Y-38654804D01*
X60522572Y-38660765D01*
X60545671Y-38669030D01*
X60567850Y-38679520D01*
X60588893Y-38692132D01*
X60608599Y-38706747D01*
X60626777Y-38723223D01*
X60643253Y-38741401D01*
X60657868Y-38761107D01*
X60670480Y-38782150D01*
X60680970Y-38804329D01*
X60689235Y-38827428D01*
X60695196Y-38851227D01*
X60698796Y-38875495D01*
X60700000Y-38899999D01*
X60700000Y-39800001D01*
X60698796Y-39824505D01*
X60695196Y-39848773D01*
X60689235Y-39872572D01*
X60680970Y-39895671D01*
X60670480Y-39917850D01*
X60657868Y-39938893D01*
X60643253Y-39958599D01*
X60626777Y-39976777D01*
X60608599Y-39993253D01*
X60588893Y-40007868D01*
X60567850Y-40020480D01*
X60545671Y-40030970D01*
X60522572Y-40039235D01*
X60498773Y-40045196D01*
X60474505Y-40048796D01*
X60450001Y-40050000D01*
X59799999Y-40050000D01*
X59775495Y-40048796D01*
X59751227Y-40045196D01*
X59727428Y-40039235D01*
X59704329Y-40030970D01*
X59682150Y-40020480D01*
X59661107Y-40007868D01*
X59641401Y-39993253D01*
X59623223Y-39976777D01*
X59606747Y-39958599D01*
X59592132Y-39938893D01*
X59579520Y-39917850D01*
X59569030Y-39895671D01*
X59560765Y-39872572D01*
X59554804Y-39848773D01*
X59551204Y-39824505D01*
X59550000Y-39800001D01*
X59550000Y-38899999D01*
X59551204Y-38875495D01*
X59554804Y-38851227D01*
X59560765Y-38827428D01*
X59569030Y-38804329D01*
X59579520Y-38782150D01*
X59592132Y-38761107D01*
X59606747Y-38741401D01*
X59623223Y-38723223D01*
X59641401Y-38706747D01*
X59661107Y-38692132D01*
X59682150Y-38679520D01*
X59704329Y-38669030D01*
X59727428Y-38660765D01*
X59751227Y-38654804D01*
X59775495Y-38651204D01*
X59799999Y-38650000D01*
X60450001Y-38650000D01*
X60474505Y-38651204D01*
G37*
G04 #@! TD.AperFunction*
G04 #@! TA.AperFunction,SMDPad,CuDef*
G36*
X62174505Y-29376204D02*
G01*
X62198773Y-29379804D01*
X62222572Y-29385765D01*
X62245671Y-29394030D01*
X62267850Y-29404520D01*
X62288893Y-29417132D01*
X62308599Y-29431747D01*
X62326777Y-29448223D01*
X62343253Y-29466401D01*
X62357868Y-29486107D01*
X62370480Y-29507150D01*
X62380970Y-29529329D01*
X62389235Y-29552428D01*
X62395196Y-29576227D01*
X62398796Y-29600495D01*
X62400000Y-29624999D01*
X62400000Y-30275001D01*
X62398796Y-30299505D01*
X62395196Y-30323773D01*
X62389235Y-30347572D01*
X62380970Y-30370671D01*
X62370480Y-30392850D01*
X62357868Y-30413893D01*
X62343253Y-30433599D01*
X62326777Y-30451777D01*
X62308599Y-30468253D01*
X62288893Y-30482868D01*
X62267850Y-30495480D01*
X62245671Y-30505970D01*
X62222572Y-30514235D01*
X62198773Y-30520196D01*
X62174505Y-30523796D01*
X62150001Y-30525000D01*
X61249999Y-30525000D01*
X61225495Y-30523796D01*
X61201227Y-30520196D01*
X61177428Y-30514235D01*
X61154329Y-30505970D01*
X61132150Y-30495480D01*
X61111107Y-30482868D01*
X61091401Y-30468253D01*
X61073223Y-30451777D01*
X61056747Y-30433599D01*
X61042132Y-30413893D01*
X61029520Y-30392850D01*
X61019030Y-30370671D01*
X61010765Y-30347572D01*
X61004804Y-30323773D01*
X61001204Y-30299505D01*
X61000000Y-30275001D01*
X61000000Y-29624999D01*
X61001204Y-29600495D01*
X61004804Y-29576227D01*
X61010765Y-29552428D01*
X61019030Y-29529329D01*
X61029520Y-29507150D01*
X61042132Y-29486107D01*
X61056747Y-29466401D01*
X61073223Y-29448223D01*
X61091401Y-29431747D01*
X61111107Y-29417132D01*
X61132150Y-29404520D01*
X61154329Y-29394030D01*
X61177428Y-29385765D01*
X61201227Y-29379804D01*
X61225495Y-29376204D01*
X61249999Y-29375000D01*
X62150001Y-29375000D01*
X62174505Y-29376204D01*
G37*
G04 #@! TD.AperFunction*
G04 #@! TA.AperFunction,SMDPad,CuDef*
G36*
X62174505Y-27326204D02*
G01*
X62198773Y-27329804D01*
X62222572Y-27335765D01*
X62245671Y-27344030D01*
X62267850Y-27354520D01*
X62288893Y-27367132D01*
X62308599Y-27381747D01*
X62326777Y-27398223D01*
X62343253Y-27416401D01*
X62357868Y-27436107D01*
X62370480Y-27457150D01*
X62380970Y-27479329D01*
X62389235Y-27502428D01*
X62395196Y-27526227D01*
X62398796Y-27550495D01*
X62400000Y-27574999D01*
X62400000Y-28225001D01*
X62398796Y-28249505D01*
X62395196Y-28273773D01*
X62389235Y-28297572D01*
X62380970Y-28320671D01*
X62370480Y-28342850D01*
X62357868Y-28363893D01*
X62343253Y-28383599D01*
X62326777Y-28401777D01*
X62308599Y-28418253D01*
X62288893Y-28432868D01*
X62267850Y-28445480D01*
X62245671Y-28455970D01*
X62222572Y-28464235D01*
X62198773Y-28470196D01*
X62174505Y-28473796D01*
X62150001Y-28475000D01*
X61249999Y-28475000D01*
X61225495Y-28473796D01*
X61201227Y-28470196D01*
X61177428Y-28464235D01*
X61154329Y-28455970D01*
X61132150Y-28445480D01*
X61111107Y-28432868D01*
X61091401Y-28418253D01*
X61073223Y-28401777D01*
X61056747Y-28383599D01*
X61042132Y-28363893D01*
X61029520Y-28342850D01*
X61019030Y-28320671D01*
X61010765Y-28297572D01*
X61004804Y-28273773D01*
X61001204Y-28249505D01*
X61000000Y-28225001D01*
X61000000Y-27574999D01*
X61001204Y-27550495D01*
X61004804Y-27526227D01*
X61010765Y-27502428D01*
X61019030Y-27479329D01*
X61029520Y-27457150D01*
X61042132Y-27436107D01*
X61056747Y-27416401D01*
X61073223Y-27398223D01*
X61091401Y-27381747D01*
X61111107Y-27367132D01*
X61132150Y-27354520D01*
X61154329Y-27344030D01*
X61177428Y-27335765D01*
X61201227Y-27329804D01*
X61225495Y-27326204D01*
X61249999Y-27325000D01*
X62150001Y-27325000D01*
X62174505Y-27326204D01*
G37*
G04 #@! TD.AperFunction*
D15*
X24500000Y-25000000D03*
X34000000Y-55000000D03*
X29900000Y-25000000D03*
X66950000Y-55300000D03*
G04 #@! TA.AperFunction,SMDPad,CuDef*
D12*
G36*
X56187004Y-28076204D02*
G01*
X56211273Y-28079804D01*
X56235071Y-28085765D01*
X56258171Y-28094030D01*
X56280349Y-28104520D01*
X56301393Y-28117133D01*
X56321098Y-28131747D01*
X56339277Y-28148223D01*
X56355753Y-28166402D01*
X56370367Y-28186107D01*
X56382980Y-28207151D01*
X56393470Y-28229329D01*
X56401735Y-28252429D01*
X56407696Y-28276227D01*
X56411296Y-28300496D01*
X56412500Y-28325000D01*
X56412500Y-29575000D01*
X56411296Y-29599504D01*
X56407696Y-29623773D01*
X56401735Y-29647571D01*
X56393470Y-29670671D01*
X56382980Y-29692849D01*
X56370367Y-29713893D01*
X56355753Y-29733598D01*
X56339277Y-29751777D01*
X56321098Y-29768253D01*
X56301393Y-29782867D01*
X56280349Y-29795480D01*
X56258171Y-29805970D01*
X56235071Y-29814235D01*
X56211273Y-29820196D01*
X56187004Y-29823796D01*
X56162500Y-29825000D01*
X55237500Y-29825000D01*
X55212996Y-29823796D01*
X55188727Y-29820196D01*
X55164929Y-29814235D01*
X55141829Y-29805970D01*
X55119651Y-29795480D01*
X55098607Y-29782867D01*
X55078902Y-29768253D01*
X55060723Y-29751777D01*
X55044247Y-29733598D01*
X55029633Y-29713893D01*
X55017020Y-29692849D01*
X55006530Y-29670671D01*
X54998265Y-29647571D01*
X54992304Y-29623773D01*
X54988704Y-29599504D01*
X54987500Y-29575000D01*
X54987500Y-28325000D01*
X54988704Y-28300496D01*
X54992304Y-28276227D01*
X54998265Y-28252429D01*
X55006530Y-28229329D01*
X55017020Y-28207151D01*
X55029633Y-28186107D01*
X55044247Y-28166402D01*
X55060723Y-28148223D01*
X55078902Y-28131747D01*
X55098607Y-28117133D01*
X55119651Y-28104520D01*
X55141829Y-28094030D01*
X55164929Y-28085765D01*
X55188727Y-28079804D01*
X55212996Y-28076204D01*
X55237500Y-28075000D01*
X56162500Y-28075000D01*
X56187004Y-28076204D01*
G37*
G04 #@! TD.AperFunction*
G04 #@! TA.AperFunction,SMDPad,CuDef*
G36*
X53212004Y-28076204D02*
G01*
X53236273Y-28079804D01*
X53260071Y-28085765D01*
X53283171Y-28094030D01*
X53305349Y-28104520D01*
X53326393Y-28117133D01*
X53346098Y-28131747D01*
X53364277Y-28148223D01*
X53380753Y-28166402D01*
X53395367Y-28186107D01*
X53407980Y-28207151D01*
X53418470Y-28229329D01*
X53426735Y-28252429D01*
X53432696Y-28276227D01*
X53436296Y-28300496D01*
X53437500Y-28325000D01*
X53437500Y-29575000D01*
X53436296Y-29599504D01*
X53432696Y-29623773D01*
X53426735Y-29647571D01*
X53418470Y-29670671D01*
X53407980Y-29692849D01*
X53395367Y-29713893D01*
X53380753Y-29733598D01*
X53364277Y-29751777D01*
X53346098Y-29768253D01*
X53326393Y-29782867D01*
X53305349Y-29795480D01*
X53283171Y-29805970D01*
X53260071Y-29814235D01*
X53236273Y-29820196D01*
X53212004Y-29823796D01*
X53187500Y-29825000D01*
X52262500Y-29825000D01*
X52237996Y-29823796D01*
X52213727Y-29820196D01*
X52189929Y-29814235D01*
X52166829Y-29805970D01*
X52144651Y-29795480D01*
X52123607Y-29782867D01*
X52103902Y-29768253D01*
X52085723Y-29751777D01*
X52069247Y-29733598D01*
X52054633Y-29713893D01*
X52042020Y-29692849D01*
X52031530Y-29670671D01*
X52023265Y-29647571D01*
X52017304Y-29623773D01*
X52013704Y-29599504D01*
X52012500Y-29575000D01*
X52012500Y-28325000D01*
X52013704Y-28300496D01*
X52017304Y-28276227D01*
X52023265Y-28252429D01*
X52031530Y-28229329D01*
X52042020Y-28207151D01*
X52054633Y-28186107D01*
X52069247Y-28166402D01*
X52085723Y-28148223D01*
X52103902Y-28131747D01*
X52123607Y-28117133D01*
X52144651Y-28104520D01*
X52166829Y-28094030D01*
X52189929Y-28085765D01*
X52213727Y-28079804D01*
X52237996Y-28076204D01*
X52262500Y-28075000D01*
X53187500Y-28075000D01*
X53212004Y-28076204D01*
G37*
G04 #@! TD.AperFunction*
G04 #@! TA.AperFunction,SMDPad,CuDef*
G36*
X53212004Y-25776204D02*
G01*
X53236273Y-25779804D01*
X53260071Y-25785765D01*
X53283171Y-25794030D01*
X53305349Y-25804520D01*
X53326393Y-25817133D01*
X53346098Y-25831747D01*
X53364277Y-25848223D01*
X53380753Y-25866402D01*
X53395367Y-25886107D01*
X53407980Y-25907151D01*
X53418470Y-25929329D01*
X53426735Y-25952429D01*
X53432696Y-25976227D01*
X53436296Y-26000496D01*
X53437500Y-26025000D01*
X53437500Y-27275000D01*
X53436296Y-27299504D01*
X53432696Y-27323773D01*
X53426735Y-27347571D01*
X53418470Y-27370671D01*
X53407980Y-27392849D01*
X53395367Y-27413893D01*
X53380753Y-27433598D01*
X53364277Y-27451777D01*
X53346098Y-27468253D01*
X53326393Y-27482867D01*
X53305349Y-27495480D01*
X53283171Y-27505970D01*
X53260071Y-27514235D01*
X53236273Y-27520196D01*
X53212004Y-27523796D01*
X53187500Y-27525000D01*
X52262500Y-27525000D01*
X52237996Y-27523796D01*
X52213727Y-27520196D01*
X52189929Y-27514235D01*
X52166829Y-27505970D01*
X52144651Y-27495480D01*
X52123607Y-27482867D01*
X52103902Y-27468253D01*
X52085723Y-27451777D01*
X52069247Y-27433598D01*
X52054633Y-27413893D01*
X52042020Y-27392849D01*
X52031530Y-27370671D01*
X52023265Y-27347571D01*
X52017304Y-27323773D01*
X52013704Y-27299504D01*
X52012500Y-27275000D01*
X52012500Y-26025000D01*
X52013704Y-26000496D01*
X52017304Y-25976227D01*
X52023265Y-25952429D01*
X52031530Y-25929329D01*
X52042020Y-25907151D01*
X52054633Y-25886107D01*
X52069247Y-25866402D01*
X52085723Y-25848223D01*
X52103902Y-25831747D01*
X52123607Y-25817133D01*
X52144651Y-25804520D01*
X52166829Y-25794030D01*
X52189929Y-25785765D01*
X52213727Y-25779804D01*
X52237996Y-25776204D01*
X52262500Y-25775000D01*
X53187500Y-25775000D01*
X53212004Y-25776204D01*
G37*
G04 #@! TD.AperFunction*
G04 #@! TA.AperFunction,SMDPad,CuDef*
G36*
X56187004Y-25776204D02*
G01*
X56211273Y-25779804D01*
X56235071Y-25785765D01*
X56258171Y-25794030D01*
X56280349Y-25804520D01*
X56301393Y-25817133D01*
X56321098Y-25831747D01*
X56339277Y-25848223D01*
X56355753Y-25866402D01*
X56370367Y-25886107D01*
X56382980Y-25907151D01*
X56393470Y-25929329D01*
X56401735Y-25952429D01*
X56407696Y-25976227D01*
X56411296Y-26000496D01*
X56412500Y-26025000D01*
X56412500Y-27275000D01*
X56411296Y-27299504D01*
X56407696Y-27323773D01*
X56401735Y-27347571D01*
X56393470Y-27370671D01*
X56382980Y-27392849D01*
X56370367Y-27413893D01*
X56355753Y-27433598D01*
X56339277Y-27451777D01*
X56321098Y-27468253D01*
X56301393Y-27482867D01*
X56280349Y-27495480D01*
X56258171Y-27505970D01*
X56235071Y-27514235D01*
X56211273Y-27520196D01*
X56187004Y-27523796D01*
X56162500Y-27525000D01*
X55237500Y-27525000D01*
X55212996Y-27523796D01*
X55188727Y-27520196D01*
X55164929Y-27514235D01*
X55141829Y-27505970D01*
X55119651Y-27495480D01*
X55098607Y-27482867D01*
X55078902Y-27468253D01*
X55060723Y-27451777D01*
X55044247Y-27433598D01*
X55029633Y-27413893D01*
X55017020Y-27392849D01*
X55006530Y-27370671D01*
X54998265Y-27347571D01*
X54992304Y-27323773D01*
X54988704Y-27299504D01*
X54987500Y-27275000D01*
X54987500Y-26025000D01*
X54988704Y-26000496D01*
X54992304Y-25976227D01*
X54998265Y-25952429D01*
X55006530Y-25929329D01*
X55017020Y-25907151D01*
X55029633Y-25886107D01*
X55044247Y-25866402D01*
X55060723Y-25848223D01*
X55078902Y-25831747D01*
X55098607Y-25817133D01*
X55119651Y-25804520D01*
X55141829Y-25794030D01*
X55164929Y-25785765D01*
X55188727Y-25779804D01*
X55212996Y-25776204D01*
X55237500Y-25775000D01*
X56162500Y-25775000D01*
X56187004Y-25776204D01*
G37*
G04 #@! TD.AperFunction*
D16*
X59100000Y-51950000D03*
X59100000Y-54450000D03*
X41900000Y-25950000D03*
X41900000Y-28450000D03*
X41900000Y-30850000D03*
X41900000Y-33350000D03*
X41900000Y-38350000D03*
X41900000Y-35850000D03*
D10*
X77200000Y-46700000D03*
D11*
X77200000Y-49240000D03*
X77200000Y-51780000D03*
X77200000Y-54320000D03*
X77200000Y-56860000D03*
D16*
X41900000Y-40850000D03*
X41900000Y-43350000D03*
X41900000Y-46000000D03*
X41900000Y-48500000D03*
G04 #@! TA.AperFunction,SMDPad,CuDef*
D12*
G36*
X74424505Y-48176204D02*
G01*
X74448773Y-48179804D01*
X74472572Y-48185765D01*
X74495671Y-48194030D01*
X74517850Y-48204520D01*
X74538893Y-48217132D01*
X74558599Y-48231747D01*
X74576777Y-48248223D01*
X74593253Y-48266401D01*
X74607868Y-48286107D01*
X74620480Y-48307150D01*
X74630970Y-48329329D01*
X74639235Y-48352428D01*
X74645196Y-48376227D01*
X74648796Y-48400495D01*
X74650000Y-48424999D01*
X74650000Y-49075001D01*
X74648796Y-49099505D01*
X74645196Y-49123773D01*
X74639235Y-49147572D01*
X74630970Y-49170671D01*
X74620480Y-49192850D01*
X74607868Y-49213893D01*
X74593253Y-49233599D01*
X74576777Y-49251777D01*
X74558599Y-49268253D01*
X74538893Y-49282868D01*
X74517850Y-49295480D01*
X74495671Y-49305970D01*
X74472572Y-49314235D01*
X74448773Y-49320196D01*
X74424505Y-49323796D01*
X74400001Y-49325000D01*
X73499999Y-49325000D01*
X73475495Y-49323796D01*
X73451227Y-49320196D01*
X73427428Y-49314235D01*
X73404329Y-49305970D01*
X73382150Y-49295480D01*
X73361107Y-49282868D01*
X73341401Y-49268253D01*
X73323223Y-49251777D01*
X73306747Y-49233599D01*
X73292132Y-49213893D01*
X73279520Y-49192850D01*
X73269030Y-49170671D01*
X73260765Y-49147572D01*
X73254804Y-49123773D01*
X73251204Y-49099505D01*
X73250000Y-49075001D01*
X73250000Y-48424999D01*
X73251204Y-48400495D01*
X73254804Y-48376227D01*
X73260765Y-48352428D01*
X73269030Y-48329329D01*
X73279520Y-48307150D01*
X73292132Y-48286107D01*
X73306747Y-48266401D01*
X73323223Y-48248223D01*
X73341401Y-48231747D01*
X73361107Y-48217132D01*
X73382150Y-48204520D01*
X73404329Y-48194030D01*
X73427428Y-48185765D01*
X73451227Y-48179804D01*
X73475495Y-48176204D01*
X73499999Y-48175000D01*
X74400001Y-48175000D01*
X74424505Y-48176204D01*
G37*
G04 #@! TD.AperFunction*
G04 #@! TA.AperFunction,SMDPad,CuDef*
G36*
X74424505Y-46126204D02*
G01*
X74448773Y-46129804D01*
X74472572Y-46135765D01*
X74495671Y-46144030D01*
X74517850Y-46154520D01*
X74538893Y-46167132D01*
X74558599Y-46181747D01*
X74576777Y-46198223D01*
X74593253Y-46216401D01*
X74607868Y-46236107D01*
X74620480Y-46257150D01*
X74630970Y-46279329D01*
X74639235Y-46302428D01*
X74645196Y-46326227D01*
X74648796Y-46350495D01*
X74650000Y-46374999D01*
X74650000Y-47025001D01*
X74648796Y-47049505D01*
X74645196Y-47073773D01*
X74639235Y-47097572D01*
X74630970Y-47120671D01*
X74620480Y-47142850D01*
X74607868Y-47163893D01*
X74593253Y-47183599D01*
X74576777Y-47201777D01*
X74558599Y-47218253D01*
X74538893Y-47232868D01*
X74517850Y-47245480D01*
X74495671Y-47255970D01*
X74472572Y-47264235D01*
X74448773Y-47270196D01*
X74424505Y-47273796D01*
X74400001Y-47275000D01*
X73499999Y-47275000D01*
X73475495Y-47273796D01*
X73451227Y-47270196D01*
X73427428Y-47264235D01*
X73404329Y-47255970D01*
X73382150Y-47245480D01*
X73361107Y-47232868D01*
X73341401Y-47218253D01*
X73323223Y-47201777D01*
X73306747Y-47183599D01*
X73292132Y-47163893D01*
X73279520Y-47142850D01*
X73269030Y-47120671D01*
X73260765Y-47097572D01*
X73254804Y-47073773D01*
X73251204Y-47049505D01*
X73250000Y-47025001D01*
X73250000Y-46374999D01*
X73251204Y-46350495D01*
X73254804Y-46326227D01*
X73260765Y-46302428D01*
X73269030Y-46279329D01*
X73279520Y-46257150D01*
X73292132Y-46236107D01*
X73306747Y-46216401D01*
X73323223Y-46198223D01*
X73341401Y-46181747D01*
X73361107Y-46167132D01*
X73382150Y-46154520D01*
X73404329Y-46144030D01*
X73427428Y-46135765D01*
X73451227Y-46129804D01*
X73475495Y-46126204D01*
X73499999Y-46125000D01*
X74400001Y-46125000D01*
X74424505Y-46126204D01*
G37*
G04 #@! TD.AperFunction*
D10*
X77200000Y-22800000D03*
D11*
X77200000Y-25340000D03*
X77200000Y-27880000D03*
X77200000Y-30420000D03*
D17*
X49600000Y-46700000D03*
X57950000Y-22350000D03*
X56650000Y-47450000D03*
X57900000Y-32700000D03*
X63700000Y-42150000D03*
X69200000Y-44600000D03*
X69600000Y-24650000D03*
X67550000Y-30250000D03*
X65800000Y-32300000D03*
X75150000Y-40050000D03*
X51850000Y-39175000D03*
X56925000Y-33325000D03*
X28075000Y-56050000D03*
X51250000Y-26650000D03*
D18*
X28500000Y-50700000D03*
D17*
X55450000Y-30750000D03*
X56900000Y-29800000D03*
X62750000Y-51950000D03*
D18*
X43350000Y-28450000D03*
X43500000Y-25300000D03*
X43350000Y-33350000D03*
X43500002Y-30200000D03*
X43350000Y-38350000D03*
X43500002Y-35100000D03*
X43350000Y-43350000D03*
X43600000Y-40200000D03*
X43350000Y-48500000D03*
X43600000Y-45200000D03*
D17*
X48500000Y-58450000D03*
X47100000Y-54650000D03*
X60800000Y-33400000D03*
X57900000Y-34000000D03*
X57150000Y-26650000D03*
X62200000Y-39350000D03*
X75150000Y-45050000D03*
X61700000Y-26550000D03*
X75350000Y-46700000D03*
X74550000Y-24950000D03*
X74545000Y-28755000D03*
X64050000Y-54650000D03*
X70950000Y-50550000D03*
X70900000Y-51650000D03*
X68900000Y-27500000D03*
X70450000Y-27500000D03*
X62700000Y-40950000D03*
X59850000Y-40950000D03*
X60100000Y-39350000D03*
X61550000Y-31400000D03*
D19*
X52725000Y-26650000D02*
X51250000Y-26650000D01*
X43900000Y-50700000D02*
X28500000Y-50700000D01*
X48600000Y-46000000D02*
X43900000Y-50700000D01*
X55450000Y-30750000D02*
X50000000Y-30750000D01*
X48600000Y-32150000D02*
X48600000Y-46000000D01*
X50000000Y-30750000D02*
X48600000Y-32150000D01*
X55450000Y-32000000D02*
X55500000Y-32050000D01*
X55450000Y-30750000D02*
X55450000Y-32000000D01*
X56615685Y-28950000D02*
X55700000Y-28950000D01*
X56900000Y-29800000D02*
X56900000Y-29234315D01*
X56900000Y-29234315D02*
X56615685Y-28950000D01*
X57850000Y-54000000D02*
X58300000Y-54450000D01*
X57150000Y-54000000D02*
X57850000Y-54000000D01*
X58300000Y-54450000D02*
X59100000Y-54450000D01*
X58550000Y-50400000D02*
X56650000Y-50400000D01*
X56650000Y-50400000D02*
X55800000Y-51250000D01*
X55800000Y-51250000D02*
X55800000Y-53750000D01*
X56050000Y-54000000D02*
X57150000Y-54000000D01*
X55800000Y-53750000D02*
X56050000Y-54000000D01*
X61000000Y-51950000D02*
X62750000Y-51950000D01*
X61000000Y-51950000D02*
X59100000Y-51950000D01*
X59100000Y-51950000D02*
X57150000Y-51950000D01*
X43350000Y-28450000D02*
X41900000Y-28450000D01*
X43350000Y-33350000D02*
X41900000Y-33350000D01*
X43350000Y-38350000D02*
X41900000Y-38350000D01*
X23375000Y-39300000D02*
X24200000Y-40125000D01*
X22200000Y-39300000D02*
X23375000Y-39300000D01*
X24200000Y-40125000D02*
X24200000Y-46100000D01*
X23600000Y-46700000D02*
X22200000Y-46700000D01*
X24200000Y-46100000D02*
X23600000Y-46700000D01*
X43350000Y-43350000D02*
X41900000Y-43350000D01*
X43350000Y-48500000D02*
X41900000Y-48500000D01*
X48500000Y-58450000D02*
X46700000Y-58450000D01*
X44650000Y-58450000D02*
X46700000Y-58450000D01*
X47100000Y-54650000D02*
X45450000Y-54650000D01*
X44650000Y-55450000D02*
X45450000Y-54650000D01*
X44650000Y-56400000D02*
X44650000Y-55450000D01*
X60050000Y-33400000D02*
X59500000Y-33950000D01*
X58950000Y-44350000D02*
X59500000Y-44900000D01*
X60800000Y-33400000D02*
X60050000Y-33400000D01*
X59500000Y-44900000D02*
X59500000Y-48400000D01*
X58950000Y-38350000D02*
X58950000Y-44350000D01*
X59500000Y-33950000D02*
X59500000Y-37800000D01*
X59500000Y-37800000D02*
X58950000Y-38350000D01*
X46700000Y-56400000D02*
X49100000Y-56400000D01*
X49100000Y-56400000D02*
X55050000Y-50450000D01*
X57900000Y-44800000D02*
X55050000Y-47650000D01*
X57900000Y-34000000D02*
X57900000Y-44800000D01*
X55050000Y-50450000D02*
X55050000Y-47650000D01*
X55700000Y-26650000D02*
X57150000Y-26650000D01*
X62175000Y-39350000D02*
X62200000Y-39350000D01*
X73250000Y-48750000D02*
X72750000Y-48250000D01*
X73950000Y-48750000D02*
X73250000Y-48750000D01*
X72750000Y-48250000D02*
X72750000Y-46100000D01*
X73800000Y-45050000D02*
X75150000Y-45050000D01*
X72750000Y-46100000D02*
X73800000Y-45050000D01*
X61700000Y-27900000D02*
X61700000Y-26550000D01*
X75350000Y-46700000D02*
X73950000Y-46700000D01*
X74550000Y-25850000D02*
X74550000Y-24950000D01*
X74550000Y-27900000D02*
X74550000Y-28750000D01*
X74550000Y-28750000D02*
X74545000Y-28755000D01*
X42850000Y-25950000D02*
X43500000Y-25300000D01*
X41900000Y-25950000D02*
X42850000Y-25950000D01*
X42800000Y-46000000D02*
X43600000Y-45200000D01*
X41900000Y-46000000D02*
X42800000Y-46000000D01*
X63400000Y-54000000D02*
X64050000Y-54650000D01*
X61000000Y-54000000D02*
X63400000Y-54000000D01*
X75890000Y-50550000D02*
X77200000Y-49240000D01*
X70950000Y-50550000D02*
X75890000Y-50550000D01*
X70900000Y-51650000D02*
X75600000Y-51650000D01*
X75730000Y-51780000D02*
X77200000Y-51780000D01*
X75600000Y-51650000D02*
X75730000Y-51780000D01*
X68900000Y-27500000D02*
X70450000Y-27500000D01*
X62700000Y-40950000D02*
X59850000Y-40950000D01*
X60125000Y-39350000D02*
X60100000Y-39350000D01*
X61700000Y-29950000D02*
X61700000Y-30650000D01*
X61550000Y-30800000D02*
X61550000Y-31400000D01*
X61700000Y-30650000D02*
X61550000Y-30800000D01*
X42850002Y-30850000D02*
X43500002Y-30200000D01*
X41900000Y-30850000D02*
X42850002Y-30850000D01*
X42750002Y-35850000D02*
X43500002Y-35100000D01*
X41900000Y-35850000D02*
X42750002Y-35850000D01*
X42950000Y-40850000D02*
X43600000Y-40200000D01*
X41900000Y-40850000D02*
X42950000Y-40850000D01*
D20*
G36*
X70353784Y-26465000D02*
G01*
X70348061Y-26465000D01*
X70148102Y-26504774D01*
X69959744Y-26582795D01*
X69790226Y-26696063D01*
X69771289Y-26715000D01*
X69578711Y-26715000D01*
X69559774Y-26696063D01*
X69390256Y-26582795D01*
X69201898Y-26504774D01*
X69001939Y-26465000D01*
X68798061Y-26465000D01*
X68598102Y-26504774D01*
X68409744Y-26582795D01*
X68240226Y-26696063D01*
X68096063Y-26840226D01*
X67982795Y-27009744D01*
X67904774Y-27198102D01*
X67865000Y-27398061D01*
X67865000Y-27601939D01*
X67904774Y-27801898D01*
X67982795Y-27990256D01*
X68096063Y-28159774D01*
X68240226Y-28303937D01*
X68409744Y-28417205D01*
X68598102Y-28495226D01*
X68798061Y-28535000D01*
X69001939Y-28535000D01*
X69201898Y-28495226D01*
X69390256Y-28417205D01*
X69559774Y-28303937D01*
X69578711Y-28285000D01*
X69771289Y-28285000D01*
X69790226Y-28303937D01*
X69959744Y-28417205D01*
X70148102Y-28495226D01*
X70348061Y-28535000D01*
X70363641Y-28535000D01*
X70373001Y-30500605D01*
X70375440Y-30524776D01*
X70382667Y-30548601D01*
X70394403Y-30570557D01*
X70410197Y-30589803D01*
X70429443Y-30605597D01*
X70451399Y-30617333D01*
X70475224Y-30624560D01*
X70500000Y-30627000D01*
X74724617Y-30627000D01*
X74748010Y-32451628D01*
X74750440Y-32474776D01*
X74757667Y-32498601D01*
X74769403Y-32520557D01*
X74785197Y-32539803D01*
X74804443Y-32555597D01*
X74826399Y-32567333D01*
X74850224Y-32574560D01*
X74875000Y-32577000D01*
X79340001Y-32577000D01*
X79340000Y-59340000D01*
X49030971Y-59340000D01*
X49159774Y-59253937D01*
X49303937Y-59109774D01*
X49417205Y-58940256D01*
X49495226Y-58751898D01*
X49535000Y-58551939D01*
X49535000Y-58348061D01*
X49495226Y-58148102D01*
X49417205Y-57959744D01*
X49303937Y-57790226D01*
X49159774Y-57646063D01*
X48990256Y-57532795D01*
X48801898Y-57454774D01*
X48601939Y-57415000D01*
X48398061Y-57415000D01*
X48198102Y-57454774D01*
X48009744Y-57532795D01*
X47879001Y-57620154D01*
X47777962Y-57497038D01*
X47690184Y-57425000D01*
X47777962Y-57352962D01*
X47888405Y-57218387D01*
X47906251Y-57185000D01*
X49061447Y-57185000D01*
X49100000Y-57188797D01*
X49138553Y-57185000D01*
X49138561Y-57185000D01*
X49253887Y-57173641D01*
X49401860Y-57128754D01*
X49538233Y-57055862D01*
X49657764Y-56957764D01*
X49682347Y-56927810D01*
X55015000Y-51595157D01*
X55015001Y-53711437D01*
X55011203Y-53750000D01*
X55026359Y-53903886D01*
X55071246Y-54051859D01*
X55092828Y-54092236D01*
X55144139Y-54188233D01*
X55163454Y-54211768D01*
X55217655Y-54277812D01*
X55217659Y-54277816D01*
X55242237Y-54307764D01*
X55272185Y-54332342D01*
X55467653Y-54527810D01*
X55492236Y-54557764D01*
X55611767Y-54655862D01*
X55748140Y-54728754D01*
X55867627Y-54765000D01*
X55896112Y-54773641D01*
X55910490Y-54775057D01*
X55939988Y-54777962D01*
X55961595Y-54818387D01*
X56072038Y-54952962D01*
X56206613Y-55063405D01*
X56360149Y-55145472D01*
X56526745Y-55196008D01*
X56699999Y-55213072D01*
X57600001Y-55213072D01*
X57773255Y-55196008D01*
X57937313Y-55146242D01*
X57996378Y-55177812D01*
X57998140Y-55178754D01*
X58006597Y-55181319D01*
X58010498Y-55194180D01*
X58069463Y-55304494D01*
X58148815Y-55401185D01*
X58245506Y-55480537D01*
X58355820Y-55539502D01*
X58475518Y-55575812D01*
X58600000Y-55588072D01*
X59600000Y-55588072D01*
X59724482Y-55575812D01*
X59844180Y-55539502D01*
X59954494Y-55480537D01*
X60051185Y-55401185D01*
X60130537Y-55304494D01*
X60189502Y-55194180D01*
X60205097Y-55142771D01*
X60210149Y-55145472D01*
X60376745Y-55196008D01*
X60549999Y-55213072D01*
X61450001Y-55213072D01*
X61623255Y-55196008D01*
X61789851Y-55145472D01*
X61943387Y-55063405D01*
X62077962Y-54952962D01*
X62188405Y-54818387D01*
X62206251Y-54785000D01*
X63021576Y-54785000D01*
X63054774Y-54951898D01*
X63132795Y-55140256D01*
X63246063Y-55309774D01*
X63390226Y-55453937D01*
X63559744Y-55567205D01*
X63748102Y-55645226D01*
X63948061Y-55685000D01*
X64151939Y-55685000D01*
X64332802Y-55649024D01*
X64416261Y-56068601D01*
X64614893Y-56548141D01*
X64903262Y-56979715D01*
X65270285Y-57346738D01*
X65701859Y-57635107D01*
X66181399Y-57833739D01*
X66690475Y-57935000D01*
X67209525Y-57935000D01*
X67718601Y-57833739D01*
X68198141Y-57635107D01*
X68629715Y-57346738D01*
X68996738Y-56979715D01*
X69174457Y-56713740D01*
X75715000Y-56713740D01*
X75715000Y-57006260D01*
X75772068Y-57293158D01*
X75884010Y-57563411D01*
X76046525Y-57806632D01*
X76253368Y-58013475D01*
X76496589Y-58175990D01*
X76766842Y-58287932D01*
X77053740Y-58345000D01*
X77346260Y-58345000D01*
X77633158Y-58287932D01*
X77903411Y-58175990D01*
X78146632Y-58013475D01*
X78353475Y-57806632D01*
X78515990Y-57563411D01*
X78627932Y-57293158D01*
X78685000Y-57006260D01*
X78685000Y-56713740D01*
X78627932Y-56426842D01*
X78515990Y-56156589D01*
X78353475Y-55913368D01*
X78146632Y-55706525D01*
X77964466Y-55584805D01*
X78081355Y-55515178D01*
X78297588Y-55320269D01*
X78471641Y-55086920D01*
X78596825Y-54824099D01*
X78641476Y-54676890D01*
X78520155Y-54447000D01*
X77327000Y-54447000D01*
X77327000Y-54467000D01*
X77073000Y-54467000D01*
X77073000Y-54447000D01*
X75879845Y-54447000D01*
X75758524Y-54676890D01*
X75803175Y-54824099D01*
X75928359Y-55086920D01*
X76102412Y-55320269D01*
X76318645Y-55515178D01*
X76435534Y-55584805D01*
X76253368Y-55706525D01*
X76046525Y-55913368D01*
X75884010Y-56156589D01*
X75772068Y-56426842D01*
X75715000Y-56713740D01*
X69174457Y-56713740D01*
X69285107Y-56548141D01*
X69483739Y-56068601D01*
X69585000Y-55559525D01*
X69585000Y-55040475D01*
X69483739Y-54531399D01*
X69285107Y-54051859D01*
X68996738Y-53620285D01*
X68629715Y-53253262D01*
X68198141Y-52964893D01*
X67718601Y-52766261D01*
X67209525Y-52665000D01*
X66690475Y-52665000D01*
X66181399Y-52766261D01*
X65701859Y-52964893D01*
X65270285Y-53253262D01*
X64903262Y-53620285D01*
X64735327Y-53871616D01*
X64709774Y-53846063D01*
X64540256Y-53732795D01*
X64351898Y-53654774D01*
X64151939Y-53615000D01*
X64125157Y-53615000D01*
X63982345Y-53472188D01*
X63957764Y-53442236D01*
X63838233Y-53344138D01*
X63701860Y-53271246D01*
X63553887Y-53226359D01*
X63438561Y-53215000D01*
X63438553Y-53215000D01*
X63400000Y-53211203D01*
X63361447Y-53215000D01*
X62206251Y-53215000D01*
X62188405Y-53181613D01*
X62077962Y-53047038D01*
X61990184Y-52975000D01*
X62077962Y-52902962D01*
X62161293Y-52801423D01*
X62259744Y-52867205D01*
X62448102Y-52945226D01*
X62648061Y-52985000D01*
X62851939Y-52985000D01*
X63051898Y-52945226D01*
X63240256Y-52867205D01*
X63409774Y-52753937D01*
X63553937Y-52609774D01*
X63667205Y-52440256D01*
X63745226Y-52251898D01*
X63785000Y-52051939D01*
X63785000Y-51848061D01*
X63745226Y-51648102D01*
X63703788Y-51548061D01*
X69865000Y-51548061D01*
X69865000Y-51751939D01*
X69904774Y-51951898D01*
X69982795Y-52140256D01*
X70096063Y-52309774D01*
X70240226Y-52453937D01*
X70409744Y-52567205D01*
X70598102Y-52645226D01*
X70798061Y-52685000D01*
X71001939Y-52685000D01*
X71201898Y-52645226D01*
X71390256Y-52567205D01*
X71559774Y-52453937D01*
X71578711Y-52435000D01*
X75290717Y-52435000D01*
X75291767Y-52435862D01*
X75428140Y-52508754D01*
X75473028Y-52522371D01*
X75576114Y-52553642D01*
X75647049Y-52560628D01*
X75691439Y-52565000D01*
X75691445Y-52565000D01*
X75730000Y-52568797D01*
X75768556Y-52565000D01*
X75938526Y-52565000D01*
X76046525Y-52726632D01*
X76253368Y-52933475D01*
X76435534Y-53055195D01*
X76318645Y-53124822D01*
X76102412Y-53319731D01*
X75928359Y-53553080D01*
X75803175Y-53815901D01*
X75758524Y-53963110D01*
X75879845Y-54193000D01*
X77073000Y-54193000D01*
X77073000Y-54173000D01*
X77327000Y-54173000D01*
X77327000Y-54193000D01*
X78520155Y-54193000D01*
X78641476Y-53963110D01*
X78596825Y-53815901D01*
X78471641Y-53553080D01*
X78297588Y-53319731D01*
X78081355Y-53124822D01*
X77964466Y-53055195D01*
X78146632Y-52933475D01*
X78353475Y-52726632D01*
X78515990Y-52483411D01*
X78627932Y-52213158D01*
X78685000Y-51926260D01*
X78685000Y-51633740D01*
X78627932Y-51346842D01*
X78515990Y-51076589D01*
X78353475Y-50833368D01*
X78146632Y-50626525D01*
X77972240Y-50510000D01*
X78146632Y-50393475D01*
X78353475Y-50186632D01*
X78515990Y-49943411D01*
X78627932Y-49673158D01*
X78685000Y-49386260D01*
X78685000Y-49093740D01*
X78627932Y-48806842D01*
X78515990Y-48536589D01*
X78353475Y-48293368D01*
X78221620Y-48161513D01*
X78294180Y-48139502D01*
X78404494Y-48080537D01*
X78501185Y-48001185D01*
X78580537Y-47904494D01*
X78639502Y-47794180D01*
X78675812Y-47674482D01*
X78688072Y-47550000D01*
X78688072Y-45850000D01*
X78675812Y-45725518D01*
X78639502Y-45605820D01*
X78580537Y-45495506D01*
X78501185Y-45398815D01*
X78404494Y-45319463D01*
X78294180Y-45260498D01*
X78174482Y-45224188D01*
X78050000Y-45211928D01*
X76350000Y-45211928D01*
X76225518Y-45224188D01*
X76167104Y-45241908D01*
X76185000Y-45151939D01*
X76185000Y-44948061D01*
X76145226Y-44748102D01*
X76067205Y-44559744D01*
X75953937Y-44390226D01*
X75809774Y-44246063D01*
X75640256Y-44132795D01*
X75451898Y-44054774D01*
X75251939Y-44015000D01*
X75048061Y-44015000D01*
X74848102Y-44054774D01*
X74659744Y-44132795D01*
X74490226Y-44246063D01*
X74471289Y-44265000D01*
X73838552Y-44265000D01*
X73799999Y-44261203D01*
X73761446Y-44265000D01*
X73761439Y-44265000D01*
X73660490Y-44274943D01*
X73646112Y-44276359D01*
X73611672Y-44286806D01*
X73498140Y-44321246D01*
X73361767Y-44394138D01*
X73306492Y-44439502D01*
X73272187Y-44467655D01*
X73272184Y-44467658D01*
X73242236Y-44492236D01*
X73217657Y-44522185D01*
X72222185Y-45517658D01*
X72192237Y-45542236D01*
X72167659Y-45572184D01*
X72167655Y-45572188D01*
X72166463Y-45573641D01*
X72094139Y-45661767D01*
X72074697Y-45698141D01*
X72021246Y-45798141D01*
X71976359Y-45946114D01*
X71961203Y-46100000D01*
X71965001Y-46138561D01*
X71965000Y-48211447D01*
X71961203Y-48250000D01*
X71965000Y-48288553D01*
X71965000Y-48288560D01*
X71976359Y-48403886D01*
X72021246Y-48551859D01*
X72094138Y-48688232D01*
X72192236Y-48807764D01*
X72222190Y-48832347D01*
X72627997Y-49238153D01*
X72628992Y-49248255D01*
X72679528Y-49414851D01*
X72761595Y-49568387D01*
X72872038Y-49702962D01*
X72947631Y-49765000D01*
X71628711Y-49765000D01*
X71609774Y-49746063D01*
X71440256Y-49632795D01*
X71251898Y-49554774D01*
X71051939Y-49515000D01*
X70848061Y-49515000D01*
X70648102Y-49554774D01*
X70459744Y-49632795D01*
X70290226Y-49746063D01*
X70146063Y-49890226D01*
X70032795Y-50059744D01*
X69954774Y-50248102D01*
X69915000Y-50448061D01*
X69915000Y-50651939D01*
X69954774Y-50851898D01*
X70032795Y-51040256D01*
X70047715Y-51062585D01*
X69982795Y-51159744D01*
X69904774Y-51348102D01*
X69865000Y-51548061D01*
X63703788Y-51548061D01*
X63667205Y-51459744D01*
X63553937Y-51290226D01*
X63409774Y-51146063D01*
X63240256Y-51032795D01*
X63051898Y-50954774D01*
X62851939Y-50915000D01*
X62648061Y-50915000D01*
X62448102Y-50954774D01*
X62259744Y-51032795D01*
X62161293Y-51098577D01*
X62077962Y-50997038D01*
X61943387Y-50886595D01*
X61789851Y-50804528D01*
X61623255Y-50753992D01*
X61450001Y-50736928D01*
X60549999Y-50736928D01*
X60376745Y-50753992D01*
X60210149Y-50804528D01*
X60056613Y-50886595D01*
X59985529Y-50944932D01*
X59954494Y-50919463D01*
X59844180Y-50860498D01*
X59724482Y-50824188D01*
X59600000Y-50811928D01*
X59588072Y-50811928D01*
X59588072Y-49950000D01*
X59575812Y-49825518D01*
X59539502Y-49705820D01*
X59480537Y-49595506D01*
X59401185Y-49498815D01*
X59388095Y-49488072D01*
X59900000Y-49488072D01*
X60024482Y-49475812D01*
X60144180Y-49439502D01*
X60254494Y-49380537D01*
X60351185Y-49301185D01*
X60430537Y-49204494D01*
X60489502Y-49094180D01*
X60525812Y-48974482D01*
X60538072Y-48850000D01*
X60538072Y-47950000D01*
X60525812Y-47825518D01*
X60489502Y-47705820D01*
X60430537Y-47595506D01*
X60351185Y-47498815D01*
X60285000Y-47444499D01*
X60285000Y-44938552D01*
X60288797Y-44899999D01*
X60285000Y-44861446D01*
X60285000Y-44861439D01*
X60273641Y-44746113D01*
X60228754Y-44598140D01*
X60155862Y-44461767D01*
X60100360Y-44394139D01*
X60082345Y-44372187D01*
X60082342Y-44372184D01*
X60057764Y-44342236D01*
X60027816Y-44317658D01*
X59735000Y-44024843D01*
X59735000Y-41982402D01*
X59748061Y-41985000D01*
X59951939Y-41985000D01*
X60151898Y-41945226D01*
X60340256Y-41867205D01*
X60509774Y-41753937D01*
X60528711Y-41735000D01*
X62021289Y-41735000D01*
X62040226Y-41753937D01*
X62209744Y-41867205D01*
X62398102Y-41945226D01*
X62598061Y-41985000D01*
X62801939Y-41985000D01*
X63001898Y-41945226D01*
X63190256Y-41867205D01*
X63359774Y-41753937D01*
X63503937Y-41609774D01*
X63617205Y-41440256D01*
X63695226Y-41251898D01*
X63735000Y-41051939D01*
X63735000Y-40848061D01*
X63695226Y-40648102D01*
X63617205Y-40459744D01*
X63503937Y-40290226D01*
X63359774Y-40146063D01*
X63325529Y-40123181D01*
X63371008Y-39973255D01*
X63388072Y-39800001D01*
X63388072Y-38899999D01*
X63371008Y-38726745D01*
X63320472Y-38560149D01*
X63238405Y-38406613D01*
X63127962Y-38272038D01*
X62993387Y-38161595D01*
X62839851Y-38079528D01*
X62673255Y-38028992D01*
X62500001Y-38011928D01*
X61849999Y-38011928D01*
X61676745Y-38028992D01*
X61510149Y-38079528D01*
X61356613Y-38161595D01*
X61222038Y-38272038D01*
X61150000Y-38359816D01*
X61077962Y-38272038D01*
X60943387Y-38161595D01*
X60789851Y-38079528D01*
X60623255Y-38028992D01*
X60450001Y-38011928D01*
X60256035Y-38011928D01*
X60273641Y-37953887D01*
X60285000Y-37838561D01*
X60285000Y-37838554D01*
X60288797Y-37800001D01*
X60285000Y-37761448D01*
X60285000Y-34300672D01*
X60309744Y-34317205D01*
X60498102Y-34395226D01*
X60698061Y-34435000D01*
X60901939Y-34435000D01*
X61101898Y-34395226D01*
X61290256Y-34317205D01*
X61459774Y-34203937D01*
X61603937Y-34059774D01*
X61717205Y-33890256D01*
X61795226Y-33701898D01*
X61835000Y-33501939D01*
X61835000Y-33298061D01*
X61795226Y-33098102D01*
X61717205Y-32909744D01*
X61603937Y-32740226D01*
X61459774Y-32596063D01*
X61290256Y-32482795D01*
X61101898Y-32404774D01*
X60901939Y-32365000D01*
X60698061Y-32365000D01*
X60498102Y-32404774D01*
X60309744Y-32482795D01*
X60140226Y-32596063D01*
X60121289Y-32615000D01*
X60088552Y-32615000D01*
X60049999Y-32611203D01*
X60011446Y-32615000D01*
X60011439Y-32615000D01*
X59910490Y-32624943D01*
X59896112Y-32626359D01*
X59861672Y-32636806D01*
X59748140Y-32671246D01*
X59611767Y-32744138D01*
X59553160Y-32792236D01*
X59522187Y-32817655D01*
X59522184Y-32817658D01*
X59492236Y-32842236D01*
X59467657Y-32872185D01*
X58972189Y-33367654D01*
X58942236Y-33392236D01*
X58844138Y-33511768D01*
X58829436Y-33539273D01*
X58817205Y-33509744D01*
X58703937Y-33340226D01*
X58559774Y-33196063D01*
X58390256Y-33082795D01*
X58201898Y-33004774D01*
X58001939Y-32965000D01*
X57798061Y-32965000D01*
X57598102Y-33004774D01*
X57409744Y-33082795D01*
X57240226Y-33196063D01*
X57096063Y-33340226D01*
X56982795Y-33509744D01*
X56904774Y-33698102D01*
X56865000Y-33898061D01*
X56865000Y-34101939D01*
X56904774Y-34301898D01*
X56982795Y-34490256D01*
X57096063Y-34659774D01*
X57115000Y-34678711D01*
X57115001Y-44474842D01*
X54522185Y-47067658D01*
X54492237Y-47092236D01*
X54467659Y-47122184D01*
X54467655Y-47122188D01*
X54434690Y-47162356D01*
X54394139Y-47211767D01*
X54356415Y-47282345D01*
X54321246Y-47348141D01*
X54276359Y-47496114D01*
X54261203Y-47650000D01*
X54265001Y-47688563D01*
X54265000Y-50124843D01*
X48774843Y-55615000D01*
X47906251Y-55615000D01*
X47888405Y-55581613D01*
X47777962Y-55447038D01*
X47771762Y-55441949D01*
X47903937Y-55309774D01*
X48017205Y-55140256D01*
X48095226Y-54951898D01*
X48135000Y-54751939D01*
X48135000Y-54548061D01*
X48095226Y-54348102D01*
X48017205Y-54159744D01*
X47903937Y-53990226D01*
X47759774Y-53846063D01*
X47590256Y-53732795D01*
X47401898Y-53654774D01*
X47201939Y-53615000D01*
X46998061Y-53615000D01*
X46798102Y-53654774D01*
X46609744Y-53732795D01*
X46440226Y-53846063D01*
X46421289Y-53865000D01*
X45488556Y-53865000D01*
X45450000Y-53861203D01*
X45411444Y-53865000D01*
X45411439Y-53865000D01*
X45371026Y-53868980D01*
X45296113Y-53876358D01*
X45148140Y-53921246D01*
X45011767Y-53994138D01*
X44892236Y-54092236D01*
X44867655Y-54122188D01*
X44122185Y-54867658D01*
X44092237Y-54892236D01*
X44067659Y-54922184D01*
X44067655Y-54922188D01*
X44043305Y-54951859D01*
X43994139Y-55011767D01*
X43966538Y-55063405D01*
X43921246Y-55148141D01*
X43891895Y-55244898D01*
X43860149Y-55254528D01*
X43706613Y-55336595D01*
X43572038Y-55447038D01*
X43461595Y-55581613D01*
X43379528Y-55735149D01*
X43328992Y-55901745D01*
X43311928Y-56074999D01*
X43311928Y-56725001D01*
X43328992Y-56898255D01*
X43379528Y-57064851D01*
X43461595Y-57218387D01*
X43572038Y-57352962D01*
X43659816Y-57425000D01*
X43572038Y-57497038D01*
X43461595Y-57631613D01*
X43379528Y-57785149D01*
X43328992Y-57951745D01*
X43311928Y-58124999D01*
X43311928Y-58775001D01*
X43328992Y-58948255D01*
X43379528Y-59114851D01*
X43461595Y-59268387D01*
X43520366Y-59340000D01*
X20660000Y-59340000D01*
X20660000Y-56600000D01*
X20686928Y-56600000D01*
X20699188Y-56724482D01*
X20735498Y-56844180D01*
X20794463Y-56954494D01*
X20873815Y-57051185D01*
X20970506Y-57130537D01*
X21080820Y-57189502D01*
X21200518Y-57225812D01*
X21325000Y-57238072D01*
X21914250Y-57235000D01*
X22073000Y-57076250D01*
X22073000Y-56127000D01*
X22327000Y-56127000D01*
X22327000Y-57076250D01*
X22485750Y-57235000D01*
X23075000Y-57238072D01*
X23199482Y-57225812D01*
X23319180Y-57189502D01*
X23429494Y-57130537D01*
X23526185Y-57051185D01*
X23605537Y-56954494D01*
X23664502Y-56844180D01*
X23700812Y-56724482D01*
X23713072Y-56600000D01*
X23710000Y-56285750D01*
X23551250Y-56127000D01*
X22327000Y-56127000D01*
X22073000Y-56127000D01*
X20848750Y-56127000D01*
X20690000Y-56285750D01*
X20686928Y-56600000D01*
X20660000Y-56600000D01*
X20660000Y-54000000D01*
X20684025Y-54000000D01*
X20707870Y-54242102D01*
X20778489Y-54474901D01*
X20893167Y-54689449D01*
X21019436Y-54843309D01*
X20970506Y-54869463D01*
X20873815Y-54948815D01*
X20794463Y-55045506D01*
X20735498Y-55155820D01*
X20699188Y-55275518D01*
X20686928Y-55400000D01*
X20690000Y-55714250D01*
X20848750Y-55873000D01*
X22073000Y-55873000D01*
X22073000Y-55853000D01*
X22327000Y-55853000D01*
X22327000Y-55873000D01*
X23551250Y-55873000D01*
X23710000Y-55714250D01*
X23713072Y-55400000D01*
X23700812Y-55275518D01*
X23664502Y-55155820D01*
X23605537Y-55045506D01*
X23526185Y-54948815D01*
X23429494Y-54869463D01*
X23380564Y-54843309D01*
X23464957Y-54740475D01*
X31365000Y-54740475D01*
X31365000Y-55259525D01*
X31466261Y-55768601D01*
X31664893Y-56248141D01*
X31953262Y-56679715D01*
X32320285Y-57046738D01*
X32751859Y-57335107D01*
X33231399Y-57533739D01*
X33740475Y-57635000D01*
X34259525Y-57635000D01*
X34768601Y-57533739D01*
X35248141Y-57335107D01*
X35679715Y-57046738D01*
X36046738Y-56679715D01*
X36335107Y-56248141D01*
X36533739Y-55768601D01*
X36635000Y-55259525D01*
X36635000Y-54740475D01*
X36533739Y-54231399D01*
X36335107Y-53751859D01*
X36046738Y-53320285D01*
X35679715Y-52953262D01*
X35248141Y-52664893D01*
X34768601Y-52466261D01*
X34259525Y-52365000D01*
X33740475Y-52365000D01*
X33231399Y-52466261D01*
X32751859Y-52664893D01*
X32320285Y-52953262D01*
X31953262Y-53320285D01*
X31664893Y-53751859D01*
X31466261Y-54231399D01*
X31365000Y-54740475D01*
X23464957Y-54740475D01*
X23506833Y-54689449D01*
X23621511Y-54474901D01*
X23692130Y-54242102D01*
X23715975Y-54000000D01*
X23692130Y-53757898D01*
X23621511Y-53525099D01*
X23506833Y-53310551D01*
X23352502Y-53122498D01*
X23164449Y-52968167D01*
X22949901Y-52853489D01*
X22717102Y-52782870D01*
X22535665Y-52765000D01*
X21864335Y-52765000D01*
X21682898Y-52782870D01*
X21450099Y-52853489D01*
X21235551Y-52968167D01*
X21047498Y-53122498D01*
X20893167Y-53310551D01*
X20778489Y-53525099D01*
X20707870Y-53757898D01*
X20684025Y-54000000D01*
X20660000Y-54000000D01*
X20660000Y-50588212D01*
X27365000Y-50588212D01*
X27365000Y-50811788D01*
X27408617Y-51031067D01*
X27494176Y-51237624D01*
X27618388Y-51423520D01*
X27776480Y-51581612D01*
X27962376Y-51705824D01*
X28168933Y-51791383D01*
X28388212Y-51835000D01*
X28611788Y-51835000D01*
X28831067Y-51791383D01*
X29037624Y-51705824D01*
X29223520Y-51581612D01*
X29320132Y-51485000D01*
X43861447Y-51485000D01*
X43900000Y-51488797D01*
X43938553Y-51485000D01*
X43938561Y-51485000D01*
X44053887Y-51473641D01*
X44201860Y-51428754D01*
X44338233Y-51355862D01*
X44457764Y-51257764D01*
X44482347Y-51227810D01*
X49127812Y-46582345D01*
X49157764Y-46557764D01*
X49255862Y-46438233D01*
X49328754Y-46301860D01*
X49343306Y-46253888D01*
X49373642Y-46153887D01*
X49381020Y-46078974D01*
X49385000Y-46038561D01*
X49385000Y-46038556D01*
X49388797Y-46000000D01*
X49385000Y-45961444D01*
X49385000Y-34675000D01*
X54161928Y-34675000D01*
X54174188Y-34799482D01*
X54210498Y-34919180D01*
X54269463Y-35029494D01*
X54348815Y-35126185D01*
X54445506Y-35205537D01*
X54555820Y-35264502D01*
X54675518Y-35300812D01*
X54800000Y-35313072D01*
X55214250Y-35310000D01*
X55373000Y-35151250D01*
X55373000Y-34227000D01*
X55627000Y-34227000D01*
X55627000Y-35151250D01*
X55785750Y-35310000D01*
X56200000Y-35313072D01*
X56324482Y-35300812D01*
X56444180Y-35264502D01*
X56554494Y-35205537D01*
X56651185Y-35126185D01*
X56730537Y-35029494D01*
X56789502Y-34919180D01*
X56825812Y-34799482D01*
X56838072Y-34675000D01*
X56835000Y-34385750D01*
X56676250Y-34227000D01*
X55627000Y-34227000D01*
X55373000Y-34227000D01*
X54323750Y-34227000D01*
X54165000Y-34385750D01*
X54161928Y-34675000D01*
X49385000Y-34675000D01*
X49385000Y-32475157D01*
X50325158Y-31535000D01*
X54184072Y-31535000D01*
X54178992Y-31551745D01*
X54161928Y-31724999D01*
X54161928Y-32375001D01*
X54178992Y-32548255D01*
X54229528Y-32714851D01*
X54311595Y-32868387D01*
X54422038Y-33002962D01*
X54428594Y-33008342D01*
X54348815Y-33073815D01*
X54269463Y-33170506D01*
X54210498Y-33280820D01*
X54174188Y-33400518D01*
X54161928Y-33525000D01*
X54165000Y-33814250D01*
X54323750Y-33973000D01*
X55373000Y-33973000D01*
X55373000Y-33953000D01*
X55627000Y-33953000D01*
X55627000Y-33973000D01*
X56676250Y-33973000D01*
X56835000Y-33814250D01*
X56838072Y-33525000D01*
X56825812Y-33400518D01*
X56789502Y-33280820D01*
X56730537Y-33170506D01*
X56651185Y-33073815D01*
X56571406Y-33008342D01*
X56577962Y-33002962D01*
X56688405Y-32868387D01*
X56770472Y-32714851D01*
X56821008Y-32548255D01*
X56838072Y-32375001D01*
X56838072Y-31724999D01*
X56821008Y-31551745D01*
X56770472Y-31385149D01*
X56688405Y-31231613D01*
X56577962Y-31097038D01*
X56456135Y-30997057D01*
X56485000Y-30851939D01*
X56485000Y-30748377D01*
X56598102Y-30795226D01*
X56798061Y-30835000D01*
X57001939Y-30835000D01*
X57201898Y-30795226D01*
X57390256Y-30717205D01*
X57559774Y-30603937D01*
X57703937Y-30459774D01*
X57817205Y-30290256D01*
X57895226Y-30101898D01*
X57935000Y-29901939D01*
X57935000Y-29698061D01*
X57895226Y-29498102D01*
X57817205Y-29309744D01*
X57703937Y-29140226D01*
X57676864Y-29113153D01*
X57673641Y-29080428D01*
X57671838Y-29074482D01*
X57645489Y-28987624D01*
X57628754Y-28932455D01*
X57555862Y-28796082D01*
X57457764Y-28676551D01*
X57427810Y-28651968D01*
X57198032Y-28422190D01*
X57173449Y-28392236D01*
X57053918Y-28294138D01*
X57047178Y-28290535D01*
X57033508Y-28151746D01*
X56982972Y-27985150D01*
X56900905Y-27831614D01*
X56874960Y-27800000D01*
X56900905Y-27768386D01*
X56955335Y-27666556D01*
X57048061Y-27685000D01*
X57251939Y-27685000D01*
X57451898Y-27645226D01*
X57621439Y-27574999D01*
X60361928Y-27574999D01*
X60361928Y-28225001D01*
X60378992Y-28398255D01*
X60429528Y-28564851D01*
X60511595Y-28718387D01*
X60622038Y-28852962D01*
X60709816Y-28925000D01*
X60622038Y-28997038D01*
X60511595Y-29131613D01*
X60429528Y-29285149D01*
X60378992Y-29451745D01*
X60361928Y-29624999D01*
X60361928Y-30275001D01*
X60378992Y-30448255D01*
X60429528Y-30614851D01*
X60511595Y-30768387D01*
X60622038Y-30902962D01*
X60632163Y-30911271D01*
X60554774Y-31098102D01*
X60515000Y-31298061D01*
X60515000Y-31501939D01*
X60554774Y-31701898D01*
X60632795Y-31890256D01*
X60746063Y-32059774D01*
X60890226Y-32203937D01*
X61059744Y-32317205D01*
X61248102Y-32395226D01*
X61448061Y-32435000D01*
X61651939Y-32435000D01*
X61851898Y-32395226D01*
X62040256Y-32317205D01*
X62209774Y-32203937D01*
X62353937Y-32059774D01*
X62467205Y-31890256D01*
X62545226Y-31701898D01*
X62585000Y-31501939D01*
X62585000Y-31298061D01*
X62545226Y-31098102D01*
X62534296Y-31071715D01*
X62643387Y-31013405D01*
X62777962Y-30902962D01*
X62888405Y-30768387D01*
X62970472Y-30614851D01*
X63021008Y-30448255D01*
X63038072Y-30275001D01*
X63038072Y-29717048D01*
X63150000Y-29728072D01*
X64850000Y-29728072D01*
X64974482Y-29715812D01*
X65094180Y-29679502D01*
X65204494Y-29620537D01*
X65301185Y-29541185D01*
X65380537Y-29444494D01*
X65439502Y-29334180D01*
X65475812Y-29214482D01*
X65488072Y-29090000D01*
X65488072Y-27390000D01*
X65475812Y-27265518D01*
X65439502Y-27145820D01*
X65380537Y-27035506D01*
X65301185Y-26938815D01*
X65204494Y-26859463D01*
X65094180Y-26800498D01*
X65021620Y-26778487D01*
X65153475Y-26646632D01*
X65315990Y-26403411D01*
X65427932Y-26133158D01*
X65485000Y-25846260D01*
X65485000Y-25553740D01*
X65427932Y-25266842D01*
X65315990Y-24996589D01*
X65153475Y-24753368D01*
X64946632Y-24546525D01*
X64764466Y-24424805D01*
X64881355Y-24355178D01*
X65097588Y-24160269D01*
X65271641Y-23926920D01*
X65396825Y-23664099D01*
X65441476Y-23516890D01*
X65320155Y-23287000D01*
X64127000Y-23287000D01*
X64127000Y-23307000D01*
X63873000Y-23307000D01*
X63873000Y-23287000D01*
X62679845Y-23287000D01*
X62558524Y-23516890D01*
X62603175Y-23664099D01*
X62728359Y-23926920D01*
X62902412Y-24160269D01*
X63118645Y-24355178D01*
X63235534Y-24424805D01*
X63053368Y-24546525D01*
X62846525Y-24753368D01*
X62684010Y-24996589D01*
X62572068Y-25266842D01*
X62515000Y-25553740D01*
X62515000Y-25846260D01*
X62532142Y-25932438D01*
X62503937Y-25890226D01*
X62359774Y-25746063D01*
X62190256Y-25632795D01*
X62001898Y-25554774D01*
X61801939Y-25515000D01*
X61598061Y-25515000D01*
X61398102Y-25554774D01*
X61209744Y-25632795D01*
X61040226Y-25746063D01*
X60896063Y-25890226D01*
X60782795Y-26059744D01*
X60704774Y-26248102D01*
X60665000Y-26448061D01*
X60665000Y-26651939D01*
X60704774Y-26851898D01*
X60713195Y-26872227D01*
X60622038Y-26947038D01*
X60511595Y-27081613D01*
X60429528Y-27235149D01*
X60378992Y-27401745D01*
X60361928Y-27574999D01*
X57621439Y-27574999D01*
X57640256Y-27567205D01*
X57809774Y-27453937D01*
X57953937Y-27309774D01*
X58067205Y-27140256D01*
X58145226Y-26951898D01*
X58185000Y-26751939D01*
X58185000Y-26548061D01*
X58145226Y-26348102D01*
X58067205Y-26159744D01*
X57953937Y-25990226D01*
X57809774Y-25846063D01*
X57640256Y-25732795D01*
X57451898Y-25654774D01*
X57251939Y-25615000D01*
X57048061Y-25615000D01*
X56955335Y-25633444D01*
X56900905Y-25531614D01*
X56790462Y-25397038D01*
X56655886Y-25286595D01*
X56502350Y-25204528D01*
X56335754Y-25153992D01*
X56162500Y-25136928D01*
X55237500Y-25136928D01*
X55064246Y-25153992D01*
X54897650Y-25204528D01*
X54744114Y-25286595D01*
X54609538Y-25397038D01*
X54499095Y-25531614D01*
X54417028Y-25685150D01*
X54366492Y-25851746D01*
X54349428Y-26025000D01*
X54349428Y-27275000D01*
X54366492Y-27448254D01*
X54417028Y-27614850D01*
X54499095Y-27768386D01*
X54525040Y-27800000D01*
X54499095Y-27831614D01*
X54417028Y-27985150D01*
X54366492Y-28151746D01*
X54349428Y-28325000D01*
X54349428Y-29575000D01*
X54366492Y-29748254D01*
X54417028Y-29914850D01*
X54443834Y-29965000D01*
X54058605Y-29965000D01*
X54063312Y-29949482D01*
X54075572Y-29825000D01*
X54072500Y-29235750D01*
X53913750Y-29077000D01*
X52852000Y-29077000D01*
X52852000Y-29097000D01*
X52598000Y-29097000D01*
X52598000Y-29077000D01*
X51536250Y-29077000D01*
X51377500Y-29235750D01*
X51374428Y-29825000D01*
X51386688Y-29949482D01*
X51391395Y-29965000D01*
X50038555Y-29965000D01*
X50000000Y-29961203D01*
X49961444Y-29965000D01*
X49961439Y-29965000D01*
X49921026Y-29968980D01*
X49846113Y-29976358D01*
X49698140Y-30021246D01*
X49561767Y-30094138D01*
X49501559Y-30143550D01*
X49472187Y-30167655D01*
X49472184Y-30167658D01*
X49442236Y-30192236D01*
X49417658Y-30222184D01*
X48072190Y-31567653D01*
X48042236Y-31592236D01*
X47944138Y-31711768D01*
X47871246Y-31848141D01*
X47826359Y-31996114D01*
X47815000Y-32111440D01*
X47815000Y-32111447D01*
X47811203Y-32150000D01*
X47815000Y-32188553D01*
X47815001Y-45674842D01*
X43574843Y-49915000D01*
X29320132Y-49915000D01*
X29223520Y-49818388D01*
X29037624Y-49694176D01*
X28831067Y-49608617D01*
X28611788Y-49565000D01*
X28388212Y-49565000D01*
X28168933Y-49608617D01*
X27962376Y-49694176D01*
X27776480Y-49818388D01*
X27618388Y-49976480D01*
X27494176Y-50162376D01*
X27408617Y-50368933D01*
X27365000Y-50588212D01*
X20660000Y-50588212D01*
X20660000Y-31300000D01*
X20684025Y-31300000D01*
X20707870Y-31542102D01*
X20778489Y-31774901D01*
X20893167Y-31989449D01*
X21047498Y-32177502D01*
X21196762Y-32300000D01*
X21047498Y-32422498D01*
X20893167Y-32610551D01*
X20778489Y-32825099D01*
X20707870Y-33057898D01*
X20684025Y-33300000D01*
X20707870Y-33542102D01*
X20778489Y-33774901D01*
X20893167Y-33989449D01*
X21047498Y-34177502D01*
X21196762Y-34300000D01*
X21047498Y-34422498D01*
X20893167Y-34610551D01*
X20778489Y-34825099D01*
X20707870Y-35057898D01*
X20684025Y-35300000D01*
X20707870Y-35542102D01*
X20778489Y-35774901D01*
X20893167Y-35989449D01*
X21047498Y-36177502D01*
X21196762Y-36300000D01*
X21047498Y-36422498D01*
X20893167Y-36610551D01*
X20778489Y-36825099D01*
X20707870Y-37057898D01*
X20684025Y-37300000D01*
X20707870Y-37542102D01*
X20778489Y-37774901D01*
X20893167Y-37989449D01*
X21047498Y-38177502D01*
X21196762Y-38300000D01*
X21047498Y-38422498D01*
X20893167Y-38610551D01*
X20778489Y-38825099D01*
X20707870Y-39057898D01*
X20684025Y-39300000D01*
X20707870Y-39542102D01*
X20778489Y-39774901D01*
X20893167Y-39989449D01*
X21047498Y-40177502D01*
X21086111Y-40209191D01*
X21081613Y-40211595D01*
X20947038Y-40322038D01*
X20836595Y-40456613D01*
X20754528Y-40610149D01*
X20703992Y-40776745D01*
X20686928Y-40949999D01*
X20686928Y-41650001D01*
X20703992Y-41823255D01*
X20754528Y-41989851D01*
X20836595Y-42143387D01*
X20947038Y-42277962D01*
X21081613Y-42388405D01*
X21235149Y-42470472D01*
X21401745Y-42521008D01*
X21574999Y-42538072D01*
X22825001Y-42538072D01*
X22998255Y-42521008D01*
X23164851Y-42470472D01*
X23318387Y-42388405D01*
X23415000Y-42309116D01*
X23415001Y-45774841D01*
X23359192Y-45830650D01*
X23352502Y-45822498D01*
X23164449Y-45668167D01*
X22949901Y-45553489D01*
X22717102Y-45482870D01*
X22535665Y-45465000D01*
X21864335Y-45465000D01*
X21682898Y-45482870D01*
X21450099Y-45553489D01*
X21235551Y-45668167D01*
X21047498Y-45822498D01*
X20893167Y-46010551D01*
X20778489Y-46225099D01*
X20707870Y-46457898D01*
X20684025Y-46700000D01*
X20707870Y-46942102D01*
X20778489Y-47174901D01*
X20893167Y-47389449D01*
X21047498Y-47577502D01*
X21086111Y-47609191D01*
X21081613Y-47611595D01*
X20947038Y-47722038D01*
X20836595Y-47856613D01*
X20754528Y-48010149D01*
X20703992Y-48176745D01*
X20686928Y-48349999D01*
X20686928Y-49050001D01*
X20703992Y-49223255D01*
X20754528Y-49389851D01*
X20836595Y-49543387D01*
X20947038Y-49677962D01*
X21081613Y-49788405D01*
X21235149Y-49870472D01*
X21401745Y-49921008D01*
X21574999Y-49938072D01*
X22825001Y-49938072D01*
X22998255Y-49921008D01*
X23164851Y-49870472D01*
X23318387Y-49788405D01*
X23452962Y-49677962D01*
X23563405Y-49543387D01*
X23645472Y-49389851D01*
X23696008Y-49223255D01*
X23713072Y-49050001D01*
X23713072Y-48349999D01*
X23696008Y-48176745D01*
X23645472Y-48010149D01*
X23640048Y-48000000D01*
X40761928Y-48000000D01*
X40761928Y-49000000D01*
X40774188Y-49124482D01*
X40810498Y-49244180D01*
X40869463Y-49354494D01*
X40948815Y-49451185D01*
X41045506Y-49530537D01*
X41155820Y-49589502D01*
X41275518Y-49625812D01*
X41400000Y-49638072D01*
X42400000Y-49638072D01*
X42524482Y-49625812D01*
X42644180Y-49589502D01*
X42754494Y-49530537D01*
X42797069Y-49495596D01*
X42812376Y-49505824D01*
X43018933Y-49591383D01*
X43238212Y-49635000D01*
X43461788Y-49635000D01*
X43681067Y-49591383D01*
X43887624Y-49505824D01*
X44073520Y-49381612D01*
X44231612Y-49223520D01*
X44355824Y-49037624D01*
X44441383Y-48831067D01*
X44485000Y-48611788D01*
X44485000Y-48388212D01*
X44441383Y-48168933D01*
X44355824Y-47962376D01*
X44231612Y-47776480D01*
X44073520Y-47618388D01*
X43887624Y-47494176D01*
X43681067Y-47408617D01*
X43461788Y-47365000D01*
X43238212Y-47365000D01*
X43018933Y-47408617D01*
X42812376Y-47494176D01*
X42797069Y-47504404D01*
X42754494Y-47469463D01*
X42644180Y-47410498D01*
X42524482Y-47374188D01*
X42400000Y-47361928D01*
X41400000Y-47361928D01*
X41275518Y-47374188D01*
X41155820Y-47410498D01*
X41045506Y-47469463D01*
X40948815Y-47548815D01*
X40869463Y-47645506D01*
X40810498Y-47755820D01*
X40774188Y-47875518D01*
X40761928Y-48000000D01*
X23640048Y-48000000D01*
X23563405Y-47856613D01*
X23452962Y-47722038D01*
X23318387Y-47611595D01*
X23313889Y-47609191D01*
X23352502Y-47577502D01*
X23428416Y-47485000D01*
X23561447Y-47485000D01*
X23600000Y-47488797D01*
X23638553Y-47485000D01*
X23638561Y-47485000D01*
X23753887Y-47473641D01*
X23901860Y-47428754D01*
X24038233Y-47355862D01*
X24157764Y-47257764D01*
X24182346Y-47227811D01*
X24727815Y-46682343D01*
X24757764Y-46657764D01*
X24785079Y-46624482D01*
X24806762Y-46598061D01*
X24855862Y-46538233D01*
X24928754Y-46401860D01*
X24962267Y-46291383D01*
X24973641Y-46253888D01*
X24978375Y-46205824D01*
X24985000Y-46138561D01*
X24985000Y-46138554D01*
X24988797Y-46100001D01*
X24985000Y-46061448D01*
X24985000Y-42850000D01*
X40761928Y-42850000D01*
X40761928Y-43850000D01*
X40774188Y-43974482D01*
X40810498Y-44094180D01*
X40869463Y-44204494D01*
X40948815Y-44301185D01*
X41045506Y-44380537D01*
X41155820Y-44439502D01*
X41275518Y-44475812D01*
X41400000Y-44488072D01*
X42400000Y-44488072D01*
X42524482Y-44475812D01*
X42644180Y-44439502D01*
X42754494Y-44380537D01*
X42797069Y-44345596D01*
X42812376Y-44355824D01*
X42831233Y-44363635D01*
X42718388Y-44476480D01*
X42594176Y-44662376D01*
X42508617Y-44868933D01*
X42507897Y-44872555D01*
X42400000Y-44861928D01*
X41400000Y-44861928D01*
X41275518Y-44874188D01*
X41155820Y-44910498D01*
X41045506Y-44969463D01*
X40948815Y-45048815D01*
X40869463Y-45145506D01*
X40810498Y-45255820D01*
X40774188Y-45375518D01*
X40761928Y-45500000D01*
X40761928Y-46500000D01*
X40774188Y-46624482D01*
X40810498Y-46744180D01*
X40869463Y-46854494D01*
X40948815Y-46951185D01*
X41045506Y-47030537D01*
X41155820Y-47089502D01*
X41275518Y-47125812D01*
X41400000Y-47138072D01*
X42400000Y-47138072D01*
X42524482Y-47125812D01*
X42644180Y-47089502D01*
X42754494Y-47030537D01*
X42851185Y-46951185D01*
X42930537Y-46854494D01*
X42977599Y-46766448D01*
X43101860Y-46728754D01*
X43238233Y-46655862D01*
X43357764Y-46557764D01*
X43382347Y-46527810D01*
X43575157Y-46335000D01*
X43711788Y-46335000D01*
X43931067Y-46291383D01*
X44137624Y-46205824D01*
X44323520Y-46081612D01*
X44481612Y-45923520D01*
X44605824Y-45737624D01*
X44691383Y-45531067D01*
X44735000Y-45311788D01*
X44735000Y-45088212D01*
X44691383Y-44868933D01*
X44605824Y-44662376D01*
X44481612Y-44476480D01*
X44323520Y-44318388D01*
X44137624Y-44194176D01*
X44118767Y-44186365D01*
X44231612Y-44073520D01*
X44355824Y-43887624D01*
X44441383Y-43681067D01*
X44485000Y-43461788D01*
X44485000Y-43238212D01*
X44441383Y-43018933D01*
X44355824Y-42812376D01*
X44231612Y-42626480D01*
X44073520Y-42468388D01*
X43887624Y-42344176D01*
X43681067Y-42258617D01*
X43461788Y-42215000D01*
X43238212Y-42215000D01*
X43018933Y-42258617D01*
X42812376Y-42344176D01*
X42797069Y-42354404D01*
X42754494Y-42319463D01*
X42644180Y-42260498D01*
X42524482Y-42224188D01*
X42400000Y-42211928D01*
X41400000Y-42211928D01*
X41275518Y-42224188D01*
X41155820Y-42260498D01*
X41045506Y-42319463D01*
X40948815Y-42398815D01*
X40869463Y-42495506D01*
X40810498Y-42605820D01*
X40774188Y-42725518D01*
X40761928Y-42850000D01*
X24985000Y-42850000D01*
X24985000Y-40163552D01*
X24988797Y-40124999D01*
X24985000Y-40086446D01*
X24985000Y-40086439D01*
X24973641Y-39971113D01*
X24956620Y-39915000D01*
X24928754Y-39823140D01*
X24895950Y-39761768D01*
X24855862Y-39686767D01*
X24806450Y-39626559D01*
X24782345Y-39597187D01*
X24782342Y-39597184D01*
X24757764Y-39567236D01*
X24727817Y-39542659D01*
X23957347Y-38772190D01*
X23932764Y-38742236D01*
X23813233Y-38644138D01*
X23676860Y-38571246D01*
X23528887Y-38526359D01*
X23429723Y-38516592D01*
X23352502Y-38422498D01*
X23203238Y-38300000D01*
X23352502Y-38177502D01*
X23506833Y-37989449D01*
X23581369Y-37850000D01*
X40761928Y-37850000D01*
X40761928Y-38850000D01*
X40774188Y-38974482D01*
X40810498Y-39094180D01*
X40869463Y-39204494D01*
X40948815Y-39301185D01*
X41045506Y-39380537D01*
X41155820Y-39439502D01*
X41275518Y-39475812D01*
X41400000Y-39488072D01*
X42400000Y-39488072D01*
X42524482Y-39475812D01*
X42644180Y-39439502D01*
X42754494Y-39380537D01*
X42797069Y-39345596D01*
X42812376Y-39355824D01*
X42831233Y-39363635D01*
X42718388Y-39476480D01*
X42594176Y-39662376D01*
X42563651Y-39736070D01*
X42524482Y-39724188D01*
X42400000Y-39711928D01*
X41400000Y-39711928D01*
X41275518Y-39724188D01*
X41155820Y-39760498D01*
X41045506Y-39819463D01*
X40948815Y-39898815D01*
X40869463Y-39995506D01*
X40810498Y-40105820D01*
X40774188Y-40225518D01*
X40761928Y-40350000D01*
X40761928Y-41350000D01*
X40774188Y-41474482D01*
X40810498Y-41594180D01*
X40869463Y-41704494D01*
X40948815Y-41801185D01*
X41045506Y-41880537D01*
X41155820Y-41939502D01*
X41275518Y-41975812D01*
X41400000Y-41988072D01*
X42400000Y-41988072D01*
X42524482Y-41975812D01*
X42644180Y-41939502D01*
X42754494Y-41880537D01*
X42851185Y-41801185D01*
X42930537Y-41704494D01*
X42966523Y-41637170D01*
X42988553Y-41635000D01*
X42988561Y-41635000D01*
X43103887Y-41623641D01*
X43251860Y-41578754D01*
X43388233Y-41505862D01*
X43507764Y-41407764D01*
X43532347Y-41377810D01*
X43575157Y-41335000D01*
X43711788Y-41335000D01*
X43931067Y-41291383D01*
X44137624Y-41205824D01*
X44323520Y-41081612D01*
X44481612Y-40923520D01*
X44605824Y-40737624D01*
X44691383Y-40531067D01*
X44735000Y-40311788D01*
X44735000Y-40088212D01*
X44691383Y-39868933D01*
X44605824Y-39662376D01*
X44481612Y-39476480D01*
X44323520Y-39318388D01*
X44137624Y-39194176D01*
X44118767Y-39186365D01*
X44231612Y-39073520D01*
X44355824Y-38887624D01*
X44441383Y-38681067D01*
X44485000Y-38461788D01*
X44485000Y-38238212D01*
X44441383Y-38018933D01*
X44355824Y-37812376D01*
X44231612Y-37626480D01*
X44073520Y-37468388D01*
X43887624Y-37344176D01*
X43681067Y-37258617D01*
X43461788Y-37215000D01*
X43238212Y-37215000D01*
X43018933Y-37258617D01*
X42812376Y-37344176D01*
X42797069Y-37354404D01*
X42754494Y-37319463D01*
X42644180Y-37260498D01*
X42524482Y-37224188D01*
X42400000Y-37211928D01*
X41400000Y-37211928D01*
X41275518Y-37224188D01*
X41155820Y-37260498D01*
X41045506Y-37319463D01*
X40948815Y-37398815D01*
X40869463Y-37495506D01*
X40810498Y-37605820D01*
X40774188Y-37725518D01*
X40761928Y-37850000D01*
X23581369Y-37850000D01*
X23621511Y-37774901D01*
X23692130Y-37542102D01*
X23715975Y-37300000D01*
X23692130Y-37057898D01*
X23621511Y-36825099D01*
X23506833Y-36610551D01*
X23352502Y-36422498D01*
X23203238Y-36300000D01*
X23352502Y-36177502D01*
X23506833Y-35989449D01*
X23621511Y-35774901D01*
X23692130Y-35542102D01*
X23715975Y-35300000D01*
X23692130Y-35057898D01*
X23621511Y-34825099D01*
X23506833Y-34610551D01*
X23352502Y-34422498D01*
X23203238Y-34300000D01*
X23352502Y-34177502D01*
X23506833Y-33989449D01*
X23621511Y-33774901D01*
X23692130Y-33542102D01*
X23715975Y-33300000D01*
X23692130Y-33057898D01*
X23629065Y-32850000D01*
X40761928Y-32850000D01*
X40761928Y-33850000D01*
X40774188Y-33974482D01*
X40810498Y-34094180D01*
X40869463Y-34204494D01*
X40948815Y-34301185D01*
X41045506Y-34380537D01*
X41155820Y-34439502D01*
X41275518Y-34475812D01*
X41400000Y-34488072D01*
X42400000Y-34488072D01*
X42524482Y-34475812D01*
X42559019Y-34465335D01*
X42494178Y-34562376D01*
X42430968Y-34714978D01*
X42400000Y-34711928D01*
X41400000Y-34711928D01*
X41275518Y-34724188D01*
X41155820Y-34760498D01*
X41045506Y-34819463D01*
X40948815Y-34898815D01*
X40869463Y-34995506D01*
X40810498Y-35105820D01*
X40774188Y-35225518D01*
X40761928Y-35350000D01*
X40761928Y-36350000D01*
X40774188Y-36474482D01*
X40810498Y-36594180D01*
X40869463Y-36704494D01*
X40948815Y-36801185D01*
X41045506Y-36880537D01*
X41155820Y-36939502D01*
X41275518Y-36975812D01*
X41400000Y-36988072D01*
X42400000Y-36988072D01*
X42524482Y-36975812D01*
X42644180Y-36939502D01*
X42754494Y-36880537D01*
X42851185Y-36801185D01*
X42930537Y-36704494D01*
X42987275Y-36598346D01*
X43051862Y-36578754D01*
X43188235Y-36505862D01*
X43307766Y-36407764D01*
X43332349Y-36377811D01*
X43475159Y-36235000D01*
X43611790Y-36235000D01*
X43831069Y-36191383D01*
X44037626Y-36105824D01*
X44223522Y-35981612D01*
X44381614Y-35823520D01*
X44505826Y-35637624D01*
X44591385Y-35431067D01*
X44635002Y-35211788D01*
X44635002Y-34988212D01*
X44591385Y-34768933D01*
X44505826Y-34562376D01*
X44381614Y-34376480D01*
X44223522Y-34218388D01*
X44141530Y-34163602D01*
X44231612Y-34073520D01*
X44355824Y-33887624D01*
X44441383Y-33681067D01*
X44485000Y-33461788D01*
X44485000Y-33238212D01*
X44441383Y-33018933D01*
X44355824Y-32812376D01*
X44231612Y-32626480D01*
X44073520Y-32468388D01*
X43887624Y-32344176D01*
X43681067Y-32258617D01*
X43461788Y-32215000D01*
X43238212Y-32215000D01*
X43018933Y-32258617D01*
X42812376Y-32344176D01*
X42797069Y-32354404D01*
X42754494Y-32319463D01*
X42644180Y-32260498D01*
X42524482Y-32224188D01*
X42400000Y-32211928D01*
X41400000Y-32211928D01*
X41275518Y-32224188D01*
X41155820Y-32260498D01*
X41045506Y-32319463D01*
X40948815Y-32398815D01*
X40869463Y-32495506D01*
X40810498Y-32605820D01*
X40774188Y-32725518D01*
X40761928Y-32850000D01*
X23629065Y-32850000D01*
X23621511Y-32825099D01*
X23506833Y-32610551D01*
X23352502Y-32422498D01*
X23203238Y-32300000D01*
X23352502Y-32177502D01*
X23506833Y-31989449D01*
X23621511Y-31774901D01*
X23692130Y-31542102D01*
X23715975Y-31300000D01*
X23692130Y-31057898D01*
X23621511Y-30825099D01*
X23506833Y-30610551D01*
X23352502Y-30422498D01*
X23164449Y-30268167D01*
X22949901Y-30153489D01*
X22717102Y-30082870D01*
X22535665Y-30065000D01*
X21864335Y-30065000D01*
X21682898Y-30082870D01*
X21450099Y-30153489D01*
X21235551Y-30268167D01*
X21047498Y-30422498D01*
X20893167Y-30610551D01*
X20778489Y-30825099D01*
X20707870Y-31057898D01*
X20684025Y-31300000D01*
X20660000Y-31300000D01*
X20660000Y-28866614D01*
X33099894Y-28877001D01*
X33124672Y-28874581D01*
X33148503Y-28867374D01*
X33170469Y-28855657D01*
X33189728Y-28839879D01*
X33205538Y-28820647D01*
X33217292Y-28798700D01*
X33224539Y-28774881D01*
X33227000Y-28750001D01*
X33227000Y-27950000D01*
X40761928Y-27950000D01*
X40761928Y-28950000D01*
X40774188Y-29074482D01*
X40810498Y-29194180D01*
X40869463Y-29304494D01*
X40948815Y-29401185D01*
X41045506Y-29480537D01*
X41155820Y-29539502D01*
X41275518Y-29575812D01*
X41400000Y-29588072D01*
X42400000Y-29588072D01*
X42524482Y-29575812D01*
X42559019Y-29565335D01*
X42494178Y-29662376D01*
X42470766Y-29718898D01*
X42400000Y-29711928D01*
X41400000Y-29711928D01*
X41275518Y-29724188D01*
X41155820Y-29760498D01*
X41045506Y-29819463D01*
X40948815Y-29898815D01*
X40869463Y-29995506D01*
X40810498Y-30105820D01*
X40774188Y-30225518D01*
X40761928Y-30350000D01*
X40761928Y-31350000D01*
X40774188Y-31474482D01*
X40810498Y-31594180D01*
X40869463Y-31704494D01*
X40948815Y-31801185D01*
X41045506Y-31880537D01*
X41155820Y-31939502D01*
X41275518Y-31975812D01*
X41400000Y-31988072D01*
X42400000Y-31988072D01*
X42524482Y-31975812D01*
X42644180Y-31939502D01*
X42754494Y-31880537D01*
X42851185Y-31801185D01*
X42930537Y-31704494D01*
X42972080Y-31626774D01*
X43003889Y-31623641D01*
X43151862Y-31578754D01*
X43288235Y-31505862D01*
X43407766Y-31407764D01*
X43432349Y-31377810D01*
X43475159Y-31335000D01*
X43611790Y-31335000D01*
X43831069Y-31291383D01*
X44037626Y-31205824D01*
X44223522Y-31081612D01*
X44381614Y-30923520D01*
X44505826Y-30737624D01*
X44591385Y-30531067D01*
X44635002Y-30311788D01*
X44635002Y-30088212D01*
X44591385Y-29868933D01*
X44505826Y-29662376D01*
X44381614Y-29476480D01*
X44223522Y-29318388D01*
X44141530Y-29263602D01*
X44231612Y-29173520D01*
X44355824Y-28987624D01*
X44441383Y-28781067D01*
X44485000Y-28561788D01*
X44485000Y-28338212D01*
X44441383Y-28118933D01*
X44355824Y-27912376D01*
X44231612Y-27726480D01*
X44073520Y-27568388D01*
X44008586Y-27525000D01*
X51374428Y-27525000D01*
X51386688Y-27649482D01*
X51422998Y-27769180D01*
X51439472Y-27800000D01*
X51422998Y-27830820D01*
X51386688Y-27950518D01*
X51374428Y-28075000D01*
X51377500Y-28664250D01*
X51536250Y-28823000D01*
X52598000Y-28823000D01*
X52598000Y-26777000D01*
X52852000Y-26777000D01*
X52852000Y-28823000D01*
X53913750Y-28823000D01*
X54072500Y-28664250D01*
X54075572Y-28075000D01*
X54063312Y-27950518D01*
X54027002Y-27830820D01*
X54010528Y-27800000D01*
X54027002Y-27769180D01*
X54063312Y-27649482D01*
X54075572Y-27525000D01*
X54072500Y-26935750D01*
X53913750Y-26777000D01*
X52852000Y-26777000D01*
X52598000Y-26777000D01*
X51536250Y-26777000D01*
X51377500Y-26935750D01*
X51374428Y-27525000D01*
X44008586Y-27525000D01*
X43887624Y-27444176D01*
X43681067Y-27358617D01*
X43461788Y-27315000D01*
X43238212Y-27315000D01*
X43018933Y-27358617D01*
X42812376Y-27444176D01*
X42797069Y-27454404D01*
X42754494Y-27419463D01*
X42644180Y-27360498D01*
X42524482Y-27324188D01*
X42400000Y-27311928D01*
X41400000Y-27311928D01*
X41275518Y-27324188D01*
X41155820Y-27360498D01*
X41045506Y-27419463D01*
X40948815Y-27498815D01*
X40869463Y-27595506D01*
X40810498Y-27705820D01*
X40774188Y-27825518D01*
X40761928Y-27950000D01*
X33227000Y-27950000D01*
X33227000Y-25450000D01*
X40761928Y-25450000D01*
X40761928Y-26450000D01*
X40774188Y-26574482D01*
X40810498Y-26694180D01*
X40869463Y-26804494D01*
X40948815Y-26901185D01*
X41045506Y-26980537D01*
X41155820Y-27039502D01*
X41275518Y-27075812D01*
X41400000Y-27088072D01*
X42400000Y-27088072D01*
X42524482Y-27075812D01*
X42644180Y-27039502D01*
X42754494Y-26980537D01*
X42851185Y-26901185D01*
X42930537Y-26804494D01*
X42972080Y-26726774D01*
X43003887Y-26723641D01*
X43151860Y-26678754D01*
X43288233Y-26605862D01*
X43407764Y-26507764D01*
X43432347Y-26477810D01*
X43475157Y-26435000D01*
X43611788Y-26435000D01*
X43831067Y-26391383D01*
X44037624Y-26305824D01*
X44223520Y-26181612D01*
X44381612Y-26023520D01*
X44505824Y-25837624D01*
X44531763Y-25775000D01*
X51374428Y-25775000D01*
X51377500Y-26364250D01*
X51536250Y-26523000D01*
X52598000Y-26523000D01*
X52598000Y-25298750D01*
X52852000Y-25298750D01*
X52852000Y-26523000D01*
X53913750Y-26523000D01*
X54072500Y-26364250D01*
X54075572Y-25775000D01*
X54063312Y-25650518D01*
X54027002Y-25530820D01*
X53968037Y-25420506D01*
X53888685Y-25323815D01*
X53791994Y-25244463D01*
X53681680Y-25185498D01*
X53561982Y-25149188D01*
X53437500Y-25136928D01*
X53010750Y-25140000D01*
X52852000Y-25298750D01*
X52598000Y-25298750D01*
X52439250Y-25140000D01*
X52012500Y-25136928D01*
X51888018Y-25149188D01*
X51768320Y-25185498D01*
X51658006Y-25244463D01*
X51561315Y-25323815D01*
X51481963Y-25420506D01*
X51422998Y-25530820D01*
X51386688Y-25650518D01*
X51374428Y-25775000D01*
X44531763Y-25775000D01*
X44591383Y-25631067D01*
X44635000Y-25411788D01*
X44635000Y-25188212D01*
X44591383Y-24968933D01*
X44505824Y-24762376D01*
X44381612Y-24576480D01*
X44223520Y-24418388D01*
X44037624Y-24294176D01*
X43831067Y-24208617D01*
X43611788Y-24165000D01*
X43388212Y-24165000D01*
X43168933Y-24208617D01*
X42962376Y-24294176D01*
X42776480Y-24418388D01*
X42618388Y-24576480D01*
X42494176Y-24762376D01*
X42470764Y-24818897D01*
X42400000Y-24811928D01*
X41400000Y-24811928D01*
X41275518Y-24824188D01*
X41155820Y-24860498D01*
X41045506Y-24919463D01*
X40948815Y-24998815D01*
X40869463Y-25095506D01*
X40810498Y-25205820D01*
X40774188Y-25325518D01*
X40761928Y-25450000D01*
X33227000Y-25450000D01*
X33227000Y-22803110D01*
X62558524Y-22803110D01*
X62679845Y-23033000D01*
X63873000Y-23033000D01*
X63873000Y-21839186D01*
X64127000Y-21839186D01*
X64127000Y-23033000D01*
X65320155Y-23033000D01*
X65441476Y-22803110D01*
X65396825Y-22655901D01*
X65271641Y-22393080D01*
X65097588Y-22159731D01*
X64881355Y-21964822D01*
X64631252Y-21815843D01*
X64356891Y-21718519D01*
X64127000Y-21839186D01*
X63873000Y-21839186D01*
X63643109Y-21718519D01*
X63368748Y-21815843D01*
X63118645Y-21964822D01*
X62902412Y-22159731D01*
X62728359Y-22393080D01*
X62603175Y-22655901D01*
X62558524Y-22803110D01*
X33227000Y-22803110D01*
X33227000Y-20660000D01*
X70326141Y-20660000D01*
X70353784Y-26465000D01*
G37*
X70353784Y-26465000D02*
X70348061Y-26465000D01*
X70148102Y-26504774D01*
X69959744Y-26582795D01*
X69790226Y-26696063D01*
X69771289Y-26715000D01*
X69578711Y-26715000D01*
X69559774Y-26696063D01*
X69390256Y-26582795D01*
X69201898Y-26504774D01*
X69001939Y-26465000D01*
X68798061Y-26465000D01*
X68598102Y-26504774D01*
X68409744Y-26582795D01*
X68240226Y-26696063D01*
X68096063Y-26840226D01*
X67982795Y-27009744D01*
X67904774Y-27198102D01*
X67865000Y-27398061D01*
X67865000Y-27601939D01*
X67904774Y-27801898D01*
X67982795Y-27990256D01*
X68096063Y-28159774D01*
X68240226Y-28303937D01*
X68409744Y-28417205D01*
X68598102Y-28495226D01*
X68798061Y-28535000D01*
X69001939Y-28535000D01*
X69201898Y-28495226D01*
X69390256Y-28417205D01*
X69559774Y-28303937D01*
X69578711Y-28285000D01*
X69771289Y-28285000D01*
X69790226Y-28303937D01*
X69959744Y-28417205D01*
X70148102Y-28495226D01*
X70348061Y-28535000D01*
X70363641Y-28535000D01*
X70373001Y-30500605D01*
X70375440Y-30524776D01*
X70382667Y-30548601D01*
X70394403Y-30570557D01*
X70410197Y-30589803D01*
X70429443Y-30605597D01*
X70451399Y-30617333D01*
X70475224Y-30624560D01*
X70500000Y-30627000D01*
X74724617Y-30627000D01*
X74748010Y-32451628D01*
X74750440Y-32474776D01*
X74757667Y-32498601D01*
X74769403Y-32520557D01*
X74785197Y-32539803D01*
X74804443Y-32555597D01*
X74826399Y-32567333D01*
X74850224Y-32574560D01*
X74875000Y-32577000D01*
X79340001Y-32577000D01*
X79340000Y-59340000D01*
X49030971Y-59340000D01*
X49159774Y-59253937D01*
X49303937Y-59109774D01*
X49417205Y-58940256D01*
X49495226Y-58751898D01*
X49535000Y-58551939D01*
X49535000Y-58348061D01*
X49495226Y-58148102D01*
X49417205Y-57959744D01*
X49303937Y-57790226D01*
X49159774Y-57646063D01*
X48990256Y-57532795D01*
X48801898Y-57454774D01*
X48601939Y-57415000D01*
X48398061Y-57415000D01*
X48198102Y-57454774D01*
X48009744Y-57532795D01*
X47879001Y-57620154D01*
X47777962Y-57497038D01*
X47690184Y-57425000D01*
X47777962Y-57352962D01*
X47888405Y-57218387D01*
X47906251Y-57185000D01*
X49061447Y-57185000D01*
X49100000Y-57188797D01*
X49138553Y-57185000D01*
X49138561Y-57185000D01*
X49253887Y-57173641D01*
X49401860Y-57128754D01*
X49538233Y-57055862D01*
X49657764Y-56957764D01*
X49682347Y-56927810D01*
X55015000Y-51595157D01*
X55015001Y-53711437D01*
X55011203Y-53750000D01*
X55026359Y-53903886D01*
X55071246Y-54051859D01*
X55092828Y-54092236D01*
X55144139Y-54188233D01*
X55163454Y-54211768D01*
X55217655Y-54277812D01*
X55217659Y-54277816D01*
X55242237Y-54307764D01*
X55272185Y-54332342D01*
X55467653Y-54527810D01*
X55492236Y-54557764D01*
X55611767Y-54655862D01*
X55748140Y-54728754D01*
X55867627Y-54765000D01*
X55896112Y-54773641D01*
X55910490Y-54775057D01*
X55939988Y-54777962D01*
X55961595Y-54818387D01*
X56072038Y-54952962D01*
X56206613Y-55063405D01*
X56360149Y-55145472D01*
X56526745Y-55196008D01*
X56699999Y-55213072D01*
X57600001Y-55213072D01*
X57773255Y-55196008D01*
X57937313Y-55146242D01*
X57996378Y-55177812D01*
X57998140Y-55178754D01*
X58006597Y-55181319D01*
X58010498Y-55194180D01*
X58069463Y-55304494D01*
X58148815Y-55401185D01*
X58245506Y-55480537D01*
X58355820Y-55539502D01*
X58475518Y-55575812D01*
X58600000Y-55588072D01*
X59600000Y-55588072D01*
X59724482Y-55575812D01*
X59844180Y-55539502D01*
X59954494Y-55480537D01*
X60051185Y-55401185D01*
X60130537Y-55304494D01*
X60189502Y-55194180D01*
X60205097Y-55142771D01*
X60210149Y-55145472D01*
X60376745Y-55196008D01*
X60549999Y-55213072D01*
X61450001Y-55213072D01*
X61623255Y-55196008D01*
X61789851Y-55145472D01*
X61943387Y-55063405D01*
X62077962Y-54952962D01*
X62188405Y-54818387D01*
X62206251Y-54785000D01*
X63021576Y-54785000D01*
X63054774Y-54951898D01*
X63132795Y-55140256D01*
X63246063Y-55309774D01*
X63390226Y-55453937D01*
X63559744Y-55567205D01*
X63748102Y-55645226D01*
X63948061Y-55685000D01*
X64151939Y-55685000D01*
X64332802Y-55649024D01*
X64416261Y-56068601D01*
X64614893Y-56548141D01*
X64903262Y-56979715D01*
X65270285Y-57346738D01*
X65701859Y-57635107D01*
X66181399Y-57833739D01*
X66690475Y-57935000D01*
X67209525Y-57935000D01*
X67718601Y-57833739D01*
X68198141Y-57635107D01*
X68629715Y-57346738D01*
X68996738Y-56979715D01*
X69174457Y-56713740D01*
X75715000Y-56713740D01*
X75715000Y-57006260D01*
X75772068Y-57293158D01*
X75884010Y-57563411D01*
X76046525Y-57806632D01*
X76253368Y-58013475D01*
X76496589Y-58175990D01*
X76766842Y-58287932D01*
X77053740Y-58345000D01*
X77346260Y-58345000D01*
X77633158Y-58287932D01*
X77903411Y-58175990D01*
X78146632Y-58013475D01*
X78353475Y-57806632D01*
X78515990Y-57563411D01*
X78627932Y-57293158D01*
X78685000Y-57006260D01*
X78685000Y-56713740D01*
X78627932Y-56426842D01*
X78515990Y-56156589D01*
X78353475Y-55913368D01*
X78146632Y-55706525D01*
X77964466Y-55584805D01*
X78081355Y-55515178D01*
X78297588Y-55320269D01*
X78471641Y-55086920D01*
X78596825Y-54824099D01*
X78641476Y-54676890D01*
X78520155Y-54447000D01*
X77327000Y-54447000D01*
X77327000Y-54467000D01*
X77073000Y-54467000D01*
X77073000Y-54447000D01*
X75879845Y-54447000D01*
X75758524Y-54676890D01*
X75803175Y-54824099D01*
X75928359Y-55086920D01*
X76102412Y-55320269D01*
X76318645Y-55515178D01*
X76435534Y-55584805D01*
X76253368Y-55706525D01*
X76046525Y-55913368D01*
X75884010Y-56156589D01*
X75772068Y-56426842D01*
X75715000Y-56713740D01*
X69174457Y-56713740D01*
X69285107Y-56548141D01*
X69483739Y-56068601D01*
X69585000Y-55559525D01*
X69585000Y-55040475D01*
X69483739Y-54531399D01*
X69285107Y-54051859D01*
X68996738Y-53620285D01*
X68629715Y-53253262D01*
X68198141Y-52964893D01*
X67718601Y-52766261D01*
X67209525Y-52665000D01*
X66690475Y-52665000D01*
X66181399Y-52766261D01*
X65701859Y-52964893D01*
X65270285Y-53253262D01*
X64903262Y-53620285D01*
X64735327Y-53871616D01*
X64709774Y-53846063D01*
X64540256Y-53732795D01*
X64351898Y-53654774D01*
X64151939Y-53615000D01*
X64125157Y-53615000D01*
X63982345Y-53472188D01*
X63957764Y-53442236D01*
X63838233Y-53344138D01*
X63701860Y-53271246D01*
X63553887Y-53226359D01*
X63438561Y-53215000D01*
X63438553Y-53215000D01*
X63400000Y-53211203D01*
X63361447Y-53215000D01*
X62206251Y-53215000D01*
X62188405Y-53181613D01*
X62077962Y-53047038D01*
X61990184Y-52975000D01*
X62077962Y-52902962D01*
X62161293Y-52801423D01*
X62259744Y-52867205D01*
X62448102Y-52945226D01*
X62648061Y-52985000D01*
X62851939Y-52985000D01*
X63051898Y-52945226D01*
X63240256Y-52867205D01*
X63409774Y-52753937D01*
X63553937Y-52609774D01*
X63667205Y-52440256D01*
X63745226Y-52251898D01*
X63785000Y-52051939D01*
X63785000Y-51848061D01*
X63745226Y-51648102D01*
X63703788Y-51548061D01*
X69865000Y-51548061D01*
X69865000Y-51751939D01*
X69904774Y-51951898D01*
X69982795Y-52140256D01*
X70096063Y-52309774D01*
X70240226Y-52453937D01*
X70409744Y-52567205D01*
X70598102Y-52645226D01*
X70798061Y-52685000D01*
X71001939Y-52685000D01*
X71201898Y-52645226D01*
X71390256Y-52567205D01*
X71559774Y-52453937D01*
X71578711Y-52435000D01*
X75290717Y-52435000D01*
X75291767Y-52435862D01*
X75428140Y-52508754D01*
X75473028Y-52522371D01*
X75576114Y-52553642D01*
X75647049Y-52560628D01*
X75691439Y-52565000D01*
X75691445Y-52565000D01*
X75730000Y-52568797D01*
X75768556Y-52565000D01*
X75938526Y-52565000D01*
X76046525Y-52726632D01*
X76253368Y-52933475D01*
X76435534Y-53055195D01*
X76318645Y-53124822D01*
X76102412Y-53319731D01*
X75928359Y-53553080D01*
X75803175Y-53815901D01*
X75758524Y-53963110D01*
X75879845Y-54193000D01*
X77073000Y-54193000D01*
X77073000Y-54173000D01*
X77327000Y-54173000D01*
X77327000Y-54193000D01*
X78520155Y-54193000D01*
X78641476Y-53963110D01*
X78596825Y-53815901D01*
X78471641Y-53553080D01*
X78297588Y-53319731D01*
X78081355Y-53124822D01*
X77964466Y-53055195D01*
X78146632Y-52933475D01*
X78353475Y-52726632D01*
X78515990Y-52483411D01*
X78627932Y-52213158D01*
X78685000Y-51926260D01*
X78685000Y-51633740D01*
X78627932Y-51346842D01*
X78515990Y-51076589D01*
X78353475Y-50833368D01*
X78146632Y-50626525D01*
X77972240Y-50510000D01*
X78146632Y-50393475D01*
X78353475Y-50186632D01*
X78515990Y-49943411D01*
X78627932Y-49673158D01*
X78685000Y-49386260D01*
X78685000Y-49093740D01*
X78627932Y-48806842D01*
X78515990Y-48536589D01*
X78353475Y-48293368D01*
X78221620Y-48161513D01*
X78294180Y-48139502D01*
X78404494Y-48080537D01*
X78501185Y-48001185D01*
X78580537Y-47904494D01*
X78639502Y-47794180D01*
X78675812Y-47674482D01*
X78688072Y-47550000D01*
X78688072Y-45850000D01*
X78675812Y-45725518D01*
X78639502Y-45605820D01*
X78580537Y-45495506D01*
X78501185Y-45398815D01*
X78404494Y-45319463D01*
X78294180Y-45260498D01*
X78174482Y-45224188D01*
X78050000Y-45211928D01*
X76350000Y-45211928D01*
X76225518Y-45224188D01*
X76167104Y-45241908D01*
X76185000Y-45151939D01*
X76185000Y-44948061D01*
X76145226Y-44748102D01*
X76067205Y-44559744D01*
X75953937Y-44390226D01*
X75809774Y-44246063D01*
X75640256Y-44132795D01*
X75451898Y-44054774D01*
X75251939Y-44015000D01*
X75048061Y-44015000D01*
X74848102Y-44054774D01*
X74659744Y-44132795D01*
X74490226Y-44246063D01*
X74471289Y-44265000D01*
X73838552Y-44265000D01*
X73799999Y-44261203D01*
X73761446Y-44265000D01*
X73761439Y-44265000D01*
X73660490Y-44274943D01*
X73646112Y-44276359D01*
X73611672Y-44286806D01*
X73498140Y-44321246D01*
X73361767Y-44394138D01*
X73306492Y-44439502D01*
X73272187Y-44467655D01*
X73272184Y-44467658D01*
X73242236Y-44492236D01*
X73217657Y-44522185D01*
X72222185Y-45517658D01*
X72192237Y-45542236D01*
X72167659Y-45572184D01*
X72167655Y-45572188D01*
X72166463Y-45573641D01*
X72094139Y-45661767D01*
X72074697Y-45698141D01*
X72021246Y-45798141D01*
X71976359Y-45946114D01*
X71961203Y-46100000D01*
X71965001Y-46138561D01*
X71965000Y-48211447D01*
X71961203Y-48250000D01*
X71965000Y-48288553D01*
X71965000Y-48288560D01*
X71976359Y-48403886D01*
X72021246Y-48551859D01*
X72094138Y-48688232D01*
X72192236Y-48807764D01*
X72222190Y-48832347D01*
X72627997Y-49238153D01*
X72628992Y-49248255D01*
X72679528Y-49414851D01*
X72761595Y-49568387D01*
X72872038Y-49702962D01*
X72947631Y-49765000D01*
X71628711Y-49765000D01*
X71609774Y-49746063D01*
X71440256Y-49632795D01*
X71251898Y-49554774D01*
X71051939Y-49515000D01*
X70848061Y-49515000D01*
X70648102Y-49554774D01*
X70459744Y-49632795D01*
X70290226Y-49746063D01*
X70146063Y-49890226D01*
X70032795Y-50059744D01*
X69954774Y-50248102D01*
X69915000Y-50448061D01*
X69915000Y-50651939D01*
X69954774Y-50851898D01*
X70032795Y-51040256D01*
X70047715Y-51062585D01*
X69982795Y-51159744D01*
X69904774Y-51348102D01*
X69865000Y-51548061D01*
X63703788Y-51548061D01*
X63667205Y-51459744D01*
X63553937Y-51290226D01*
X63409774Y-51146063D01*
X63240256Y-51032795D01*
X63051898Y-50954774D01*
X62851939Y-50915000D01*
X62648061Y-50915000D01*
X62448102Y-50954774D01*
X62259744Y-51032795D01*
X62161293Y-51098577D01*
X62077962Y-50997038D01*
X61943387Y-50886595D01*
X61789851Y-50804528D01*
X61623255Y-50753992D01*
X61450001Y-50736928D01*
X60549999Y-50736928D01*
X60376745Y-50753992D01*
X60210149Y-50804528D01*
X60056613Y-50886595D01*
X59985529Y-50944932D01*
X59954494Y-50919463D01*
X59844180Y-50860498D01*
X59724482Y-50824188D01*
X59600000Y-50811928D01*
X59588072Y-50811928D01*
X59588072Y-49950000D01*
X59575812Y-49825518D01*
X59539502Y-49705820D01*
X59480537Y-49595506D01*
X59401185Y-49498815D01*
X59388095Y-49488072D01*
X59900000Y-49488072D01*
X60024482Y-49475812D01*
X60144180Y-49439502D01*
X60254494Y-49380537D01*
X60351185Y-49301185D01*
X60430537Y-49204494D01*
X60489502Y-49094180D01*
X60525812Y-48974482D01*
X60538072Y-48850000D01*
X60538072Y-47950000D01*
X60525812Y-47825518D01*
X60489502Y-47705820D01*
X60430537Y-47595506D01*
X60351185Y-47498815D01*
X60285000Y-47444499D01*
X60285000Y-44938552D01*
X60288797Y-44899999D01*
X60285000Y-44861446D01*
X60285000Y-44861439D01*
X60273641Y-44746113D01*
X60228754Y-44598140D01*
X60155862Y-44461767D01*
X60100360Y-44394139D01*
X60082345Y-44372187D01*
X60082342Y-44372184D01*
X60057764Y-44342236D01*
X60027816Y-44317658D01*
X59735000Y-44024843D01*
X59735000Y-41982402D01*
X59748061Y-41985000D01*
X59951939Y-41985000D01*
X60151898Y-41945226D01*
X60340256Y-41867205D01*
X60509774Y-41753937D01*
X60528711Y-41735000D01*
X62021289Y-41735000D01*
X62040226Y-41753937D01*
X62209744Y-41867205D01*
X62398102Y-41945226D01*
X62598061Y-41985000D01*
X62801939Y-41985000D01*
X63001898Y-41945226D01*
X63190256Y-41867205D01*
X63359774Y-41753937D01*
X63503937Y-41609774D01*
X63617205Y-41440256D01*
X63695226Y-41251898D01*
X63735000Y-41051939D01*
X63735000Y-40848061D01*
X63695226Y-40648102D01*
X63617205Y-40459744D01*
X63503937Y-40290226D01*
X63359774Y-40146063D01*
X63325529Y-40123181D01*
X63371008Y-39973255D01*
X63388072Y-39800001D01*
X63388072Y-38899999D01*
X63371008Y-38726745D01*
X63320472Y-38560149D01*
X63238405Y-38406613D01*
X63127962Y-38272038D01*
X62993387Y-38161595D01*
X62839851Y-38079528D01*
X62673255Y-38028992D01*
X62500001Y-38011928D01*
X61849999Y-38011928D01*
X61676745Y-38028992D01*
X61510149Y-38079528D01*
X61356613Y-38161595D01*
X61222038Y-38272038D01*
X61150000Y-38359816D01*
X61077962Y-38272038D01*
X60943387Y-38161595D01*
X60789851Y-38079528D01*
X60623255Y-38028992D01*
X60450001Y-38011928D01*
X60256035Y-38011928D01*
X60273641Y-37953887D01*
X60285000Y-37838561D01*
X60285000Y-37838554D01*
X60288797Y-37800001D01*
X60285000Y-37761448D01*
X60285000Y-34300672D01*
X60309744Y-34317205D01*
X60498102Y-34395226D01*
X60698061Y-34435000D01*
X60901939Y-34435000D01*
X61101898Y-34395226D01*
X61290256Y-34317205D01*
X61459774Y-34203937D01*
X61603937Y-34059774D01*
X61717205Y-33890256D01*
X61795226Y-33701898D01*
X61835000Y-33501939D01*
X61835000Y-33298061D01*
X61795226Y-33098102D01*
X61717205Y-32909744D01*
X61603937Y-32740226D01*
X61459774Y-32596063D01*
X61290256Y-32482795D01*
X61101898Y-32404774D01*
X60901939Y-32365000D01*
X60698061Y-32365000D01*
X60498102Y-32404774D01*
X60309744Y-32482795D01*
X60140226Y-32596063D01*
X60121289Y-32615000D01*
X60088552Y-32615000D01*
X60049999Y-32611203D01*
X60011446Y-32615000D01*
X60011439Y-32615000D01*
X59910490Y-32624943D01*
X59896112Y-32626359D01*
X59861672Y-32636806D01*
X59748140Y-32671246D01*
X59611767Y-32744138D01*
X59553160Y-32792236D01*
X59522187Y-32817655D01*
X59522184Y-32817658D01*
X59492236Y-32842236D01*
X59467657Y-32872185D01*
X58972189Y-33367654D01*
X58942236Y-33392236D01*
X58844138Y-33511768D01*
X58829436Y-33539273D01*
X58817205Y-33509744D01*
X58703937Y-33340226D01*
X58559774Y-33196063D01*
X58390256Y-33082795D01*
X58201898Y-33004774D01*
X58001939Y-32965000D01*
X57798061Y-32965000D01*
X57598102Y-33004774D01*
X57409744Y-33082795D01*
X57240226Y-33196063D01*
X57096063Y-33340226D01*
X56982795Y-33509744D01*
X56904774Y-33698102D01*
X56865000Y-33898061D01*
X56865000Y-34101939D01*
X56904774Y-34301898D01*
X56982795Y-34490256D01*
X57096063Y-34659774D01*
X57115000Y-34678711D01*
X57115001Y-44474842D01*
X54522185Y-47067658D01*
X54492237Y-47092236D01*
X54467659Y-47122184D01*
X54467655Y-47122188D01*
X54434690Y-47162356D01*
X54394139Y-47211767D01*
X54356415Y-47282345D01*
X54321246Y-47348141D01*
X54276359Y-47496114D01*
X54261203Y-47650000D01*
X54265001Y-47688563D01*
X54265000Y-50124843D01*
X48774843Y-55615000D01*
X47906251Y-55615000D01*
X47888405Y-55581613D01*
X47777962Y-55447038D01*
X47771762Y-55441949D01*
X47903937Y-55309774D01*
X48017205Y-55140256D01*
X48095226Y-54951898D01*
X48135000Y-54751939D01*
X48135000Y-54548061D01*
X48095226Y-54348102D01*
X48017205Y-54159744D01*
X47903937Y-53990226D01*
X47759774Y-53846063D01*
X47590256Y-53732795D01*
X47401898Y-53654774D01*
X47201939Y-53615000D01*
X46998061Y-53615000D01*
X46798102Y-53654774D01*
X46609744Y-53732795D01*
X46440226Y-53846063D01*
X46421289Y-53865000D01*
X45488556Y-53865000D01*
X45450000Y-53861203D01*
X45411444Y-53865000D01*
X45411439Y-53865000D01*
X45371026Y-53868980D01*
X45296113Y-53876358D01*
X45148140Y-53921246D01*
X45011767Y-53994138D01*
X44892236Y-54092236D01*
X44867655Y-54122188D01*
X44122185Y-54867658D01*
X44092237Y-54892236D01*
X44067659Y-54922184D01*
X44067655Y-54922188D01*
X44043305Y-54951859D01*
X43994139Y-55011767D01*
X43966538Y-55063405D01*
X43921246Y-55148141D01*
X43891895Y-55244898D01*
X43860149Y-55254528D01*
X43706613Y-55336595D01*
X43572038Y-55447038D01*
X43461595Y-55581613D01*
X43379528Y-55735149D01*
X43328992Y-55901745D01*
X43311928Y-56074999D01*
X43311928Y-56725001D01*
X43328992Y-56898255D01*
X43379528Y-57064851D01*
X43461595Y-57218387D01*
X43572038Y-57352962D01*
X43659816Y-57425000D01*
X43572038Y-57497038D01*
X43461595Y-57631613D01*
X43379528Y-57785149D01*
X43328992Y-57951745D01*
X43311928Y-58124999D01*
X43311928Y-58775001D01*
X43328992Y-58948255D01*
X43379528Y-59114851D01*
X43461595Y-59268387D01*
X43520366Y-59340000D01*
X20660000Y-59340000D01*
X20660000Y-56600000D01*
X20686928Y-56600000D01*
X20699188Y-56724482D01*
X20735498Y-56844180D01*
X20794463Y-56954494D01*
X20873815Y-57051185D01*
X20970506Y-57130537D01*
X21080820Y-57189502D01*
X21200518Y-57225812D01*
X21325000Y-57238072D01*
X21914250Y-57235000D01*
X22073000Y-57076250D01*
X22073000Y-56127000D01*
X22327000Y-56127000D01*
X22327000Y-57076250D01*
X22485750Y-57235000D01*
X23075000Y-57238072D01*
X23199482Y-57225812D01*
X23319180Y-57189502D01*
X23429494Y-57130537D01*
X23526185Y-57051185D01*
X23605537Y-56954494D01*
X23664502Y-56844180D01*
X23700812Y-56724482D01*
X23713072Y-56600000D01*
X23710000Y-56285750D01*
X23551250Y-56127000D01*
X22327000Y-56127000D01*
X22073000Y-56127000D01*
X20848750Y-56127000D01*
X20690000Y-56285750D01*
X20686928Y-56600000D01*
X20660000Y-56600000D01*
X20660000Y-54000000D01*
X20684025Y-54000000D01*
X20707870Y-54242102D01*
X20778489Y-54474901D01*
X20893167Y-54689449D01*
X21019436Y-54843309D01*
X20970506Y-54869463D01*
X20873815Y-54948815D01*
X20794463Y-55045506D01*
X20735498Y-55155820D01*
X20699188Y-55275518D01*
X20686928Y-55400000D01*
X20690000Y-55714250D01*
X20848750Y-55873000D01*
X22073000Y-55873000D01*
X22073000Y-55853000D01*
X22327000Y-55853000D01*
X22327000Y-55873000D01*
X23551250Y-55873000D01*
X23710000Y-55714250D01*
X23713072Y-55400000D01*
X23700812Y-55275518D01*
X23664502Y-55155820D01*
X23605537Y-55045506D01*
X23526185Y-54948815D01*
X23429494Y-54869463D01*
X23380564Y-54843309D01*
X23464957Y-54740475D01*
X31365000Y-54740475D01*
X31365000Y-55259525D01*
X31466261Y-55768601D01*
X31664893Y-56248141D01*
X31953262Y-56679715D01*
X32320285Y-57046738D01*
X32751859Y-57335107D01*
X33231399Y-57533739D01*
X33740475Y-57635000D01*
X34259525Y-57635000D01*
X34768601Y-57533739D01*
X35248141Y-57335107D01*
X35679715Y-57046738D01*
X36046738Y-56679715D01*
X36335107Y-56248141D01*
X36533739Y-55768601D01*
X36635000Y-55259525D01*
X36635000Y-54740475D01*
X36533739Y-54231399D01*
X36335107Y-53751859D01*
X36046738Y-53320285D01*
X35679715Y-52953262D01*
X35248141Y-52664893D01*
X34768601Y-52466261D01*
X34259525Y-52365000D01*
X33740475Y-52365000D01*
X33231399Y-52466261D01*
X32751859Y-52664893D01*
X32320285Y-52953262D01*
X31953262Y-53320285D01*
X31664893Y-53751859D01*
X31466261Y-54231399D01*
X31365000Y-54740475D01*
X23464957Y-54740475D01*
X23506833Y-54689449D01*
X23621511Y-54474901D01*
X23692130Y-54242102D01*
X23715975Y-54000000D01*
X23692130Y-53757898D01*
X23621511Y-53525099D01*
X23506833Y-53310551D01*
X23352502Y-53122498D01*
X23164449Y-52968167D01*
X22949901Y-52853489D01*
X22717102Y-52782870D01*
X22535665Y-52765000D01*
X21864335Y-52765000D01*
X21682898Y-52782870D01*
X21450099Y-52853489D01*
X21235551Y-52968167D01*
X21047498Y-53122498D01*
X20893167Y-53310551D01*
X20778489Y-53525099D01*
X20707870Y-53757898D01*
X20684025Y-54000000D01*
X20660000Y-54000000D01*
X20660000Y-50588212D01*
X27365000Y-50588212D01*
X27365000Y-50811788D01*
X27408617Y-51031067D01*
X27494176Y-51237624D01*
X27618388Y-51423520D01*
X27776480Y-51581612D01*
X27962376Y-51705824D01*
X28168933Y-51791383D01*
X28388212Y-51835000D01*
X28611788Y-51835000D01*
X28831067Y-51791383D01*
X29037624Y-51705824D01*
X29223520Y-51581612D01*
X29320132Y-51485000D01*
X43861447Y-51485000D01*
X43900000Y-51488797D01*
X43938553Y-51485000D01*
X43938561Y-51485000D01*
X44053887Y-51473641D01*
X44201860Y-51428754D01*
X44338233Y-51355862D01*
X44457764Y-51257764D01*
X44482347Y-51227810D01*
X49127812Y-46582345D01*
X49157764Y-46557764D01*
X49255862Y-46438233D01*
X49328754Y-46301860D01*
X49343306Y-46253888D01*
X49373642Y-46153887D01*
X49381020Y-46078974D01*
X49385000Y-46038561D01*
X49385000Y-46038556D01*
X49388797Y-46000000D01*
X49385000Y-45961444D01*
X49385000Y-34675000D01*
X54161928Y-34675000D01*
X54174188Y-34799482D01*
X54210498Y-34919180D01*
X54269463Y-35029494D01*
X54348815Y-35126185D01*
X54445506Y-35205537D01*
X54555820Y-35264502D01*
X54675518Y-35300812D01*
X54800000Y-35313072D01*
X55214250Y-35310000D01*
X55373000Y-35151250D01*
X55373000Y-34227000D01*
X55627000Y-34227000D01*
X55627000Y-35151250D01*
X55785750Y-35310000D01*
X56200000Y-35313072D01*
X56324482Y-35300812D01*
X56444180Y-35264502D01*
X56554494Y-35205537D01*
X56651185Y-35126185D01*
X56730537Y-35029494D01*
X56789502Y-34919180D01*
X56825812Y-34799482D01*
X56838072Y-34675000D01*
X56835000Y-34385750D01*
X56676250Y-34227000D01*
X55627000Y-34227000D01*
X55373000Y-34227000D01*
X54323750Y-34227000D01*
X54165000Y-34385750D01*
X54161928Y-34675000D01*
X49385000Y-34675000D01*
X49385000Y-32475157D01*
X50325158Y-31535000D01*
X54184072Y-31535000D01*
X54178992Y-31551745D01*
X54161928Y-31724999D01*
X54161928Y-32375001D01*
X54178992Y-32548255D01*
X54229528Y-32714851D01*
X54311595Y-32868387D01*
X54422038Y-33002962D01*
X54428594Y-33008342D01*
X54348815Y-33073815D01*
X54269463Y-33170506D01*
X54210498Y-33280820D01*
X54174188Y-33400518D01*
X54161928Y-33525000D01*
X54165000Y-33814250D01*
X54323750Y-33973000D01*
X55373000Y-33973000D01*
X55373000Y-33953000D01*
X55627000Y-33953000D01*
X55627000Y-33973000D01*
X56676250Y-33973000D01*
X56835000Y-33814250D01*
X56838072Y-33525000D01*
X56825812Y-33400518D01*
X56789502Y-33280820D01*
X56730537Y-33170506D01*
X56651185Y-33073815D01*
X56571406Y-33008342D01*
X56577962Y-33002962D01*
X56688405Y-32868387D01*
X56770472Y-32714851D01*
X56821008Y-32548255D01*
X56838072Y-32375001D01*
X56838072Y-31724999D01*
X56821008Y-31551745D01*
X56770472Y-31385149D01*
X56688405Y-31231613D01*
X56577962Y-31097038D01*
X56456135Y-30997057D01*
X56485000Y-30851939D01*
X56485000Y-30748377D01*
X56598102Y-30795226D01*
X56798061Y-30835000D01*
X57001939Y-30835000D01*
X57201898Y-30795226D01*
X57390256Y-30717205D01*
X57559774Y-30603937D01*
X57703937Y-30459774D01*
X57817205Y-30290256D01*
X57895226Y-30101898D01*
X57935000Y-29901939D01*
X57935000Y-29698061D01*
X57895226Y-29498102D01*
X57817205Y-29309744D01*
X57703937Y-29140226D01*
X57676864Y-29113153D01*
X57673641Y-29080428D01*
X57671838Y-29074482D01*
X57645489Y-28987624D01*
X57628754Y-28932455D01*
X57555862Y-28796082D01*
X57457764Y-28676551D01*
X57427810Y-28651968D01*
X57198032Y-28422190D01*
X57173449Y-28392236D01*
X57053918Y-28294138D01*
X57047178Y-28290535D01*
X57033508Y-28151746D01*
X56982972Y-27985150D01*
X56900905Y-27831614D01*
X56874960Y-27800000D01*
X56900905Y-27768386D01*
X56955335Y-27666556D01*
X57048061Y-27685000D01*
X57251939Y-27685000D01*
X57451898Y-27645226D01*
X57621439Y-27574999D01*
X60361928Y-27574999D01*
X60361928Y-28225001D01*
X60378992Y-28398255D01*
X60429528Y-28564851D01*
X60511595Y-28718387D01*
X60622038Y-28852962D01*
X60709816Y-28925000D01*
X60622038Y-28997038D01*
X60511595Y-29131613D01*
X60429528Y-29285149D01*
X60378992Y-29451745D01*
X60361928Y-29624999D01*
X60361928Y-30275001D01*
X60378992Y-30448255D01*
X60429528Y-30614851D01*
X60511595Y-30768387D01*
X60622038Y-30902962D01*
X60632163Y-30911271D01*
X60554774Y-31098102D01*
X60515000Y-31298061D01*
X60515000Y-31501939D01*
X60554774Y-31701898D01*
X60632795Y-31890256D01*
X60746063Y-32059774D01*
X60890226Y-32203937D01*
X61059744Y-32317205D01*
X61248102Y-32395226D01*
X61448061Y-32435000D01*
X61651939Y-32435000D01*
X61851898Y-32395226D01*
X62040256Y-32317205D01*
X62209774Y-32203937D01*
X62353937Y-32059774D01*
X62467205Y-31890256D01*
X62545226Y-31701898D01*
X62585000Y-31501939D01*
X62585000Y-31298061D01*
X62545226Y-31098102D01*
X62534296Y-31071715D01*
X62643387Y-31013405D01*
X62777962Y-30902962D01*
X62888405Y-30768387D01*
X62970472Y-30614851D01*
X63021008Y-30448255D01*
X63038072Y-30275001D01*
X63038072Y-29717048D01*
X63150000Y-29728072D01*
X64850000Y-29728072D01*
X64974482Y-29715812D01*
X65094180Y-29679502D01*
X65204494Y-29620537D01*
X65301185Y-29541185D01*
X65380537Y-29444494D01*
X65439502Y-29334180D01*
X65475812Y-29214482D01*
X65488072Y-29090000D01*
X65488072Y-27390000D01*
X65475812Y-27265518D01*
X65439502Y-27145820D01*
X65380537Y-27035506D01*
X65301185Y-26938815D01*
X65204494Y-26859463D01*
X65094180Y-26800498D01*
X65021620Y-26778487D01*
X65153475Y-26646632D01*
X65315990Y-26403411D01*
X65427932Y-26133158D01*
X65485000Y-25846260D01*
X65485000Y-25553740D01*
X65427932Y-25266842D01*
X65315990Y-24996589D01*
X65153475Y-24753368D01*
X64946632Y-24546525D01*
X64764466Y-24424805D01*
X64881355Y-24355178D01*
X65097588Y-24160269D01*
X65271641Y-23926920D01*
X65396825Y-23664099D01*
X65441476Y-23516890D01*
X65320155Y-23287000D01*
X64127000Y-23287000D01*
X64127000Y-23307000D01*
X63873000Y-23307000D01*
X63873000Y-23287000D01*
X62679845Y-23287000D01*
X62558524Y-23516890D01*
X62603175Y-23664099D01*
X62728359Y-23926920D01*
X62902412Y-24160269D01*
X63118645Y-24355178D01*
X63235534Y-24424805D01*
X63053368Y-24546525D01*
X62846525Y-24753368D01*
X62684010Y-24996589D01*
X62572068Y-25266842D01*
X62515000Y-25553740D01*
X62515000Y-25846260D01*
X62532142Y-25932438D01*
X62503937Y-25890226D01*
X62359774Y-25746063D01*
X62190256Y-25632795D01*
X62001898Y-25554774D01*
X61801939Y-25515000D01*
X61598061Y-25515000D01*
X61398102Y-25554774D01*
X61209744Y-25632795D01*
X61040226Y-25746063D01*
X60896063Y-25890226D01*
X60782795Y-26059744D01*
X60704774Y-26248102D01*
X60665000Y-26448061D01*
X60665000Y-26651939D01*
X60704774Y-26851898D01*
X60713195Y-26872227D01*
X60622038Y-26947038D01*
X60511595Y-27081613D01*
X60429528Y-27235149D01*
X60378992Y-27401745D01*
X60361928Y-27574999D01*
X57621439Y-27574999D01*
X57640256Y-27567205D01*
X57809774Y-27453937D01*
X57953937Y-27309774D01*
X58067205Y-27140256D01*
X58145226Y-26951898D01*
X58185000Y-26751939D01*
X58185000Y-26548061D01*
X58145226Y-26348102D01*
X58067205Y-26159744D01*
X57953937Y-25990226D01*
X57809774Y-25846063D01*
X57640256Y-25732795D01*
X57451898Y-25654774D01*
X57251939Y-25615000D01*
X57048061Y-25615000D01*
X56955335Y-25633444D01*
X56900905Y-25531614D01*
X56790462Y-25397038D01*
X56655886Y-25286595D01*
X56502350Y-25204528D01*
X56335754Y-25153992D01*
X56162500Y-25136928D01*
X55237500Y-25136928D01*
X55064246Y-25153992D01*
X54897650Y-25204528D01*
X54744114Y-25286595D01*
X54609538Y-25397038D01*
X54499095Y-25531614D01*
X54417028Y-25685150D01*
X54366492Y-25851746D01*
X54349428Y-26025000D01*
X54349428Y-27275000D01*
X54366492Y-27448254D01*
X54417028Y-27614850D01*
X54499095Y-27768386D01*
X54525040Y-27800000D01*
X54499095Y-27831614D01*
X54417028Y-27985150D01*
X54366492Y-28151746D01*
X54349428Y-28325000D01*
X54349428Y-29575000D01*
X54366492Y-29748254D01*
X54417028Y-29914850D01*
X54443834Y-29965000D01*
X54058605Y-29965000D01*
X54063312Y-29949482D01*
X54075572Y-29825000D01*
X54072500Y-29235750D01*
X53913750Y-29077000D01*
X52852000Y-29077000D01*
X52852000Y-29097000D01*
X52598000Y-29097000D01*
X52598000Y-29077000D01*
X51536250Y-29077000D01*
X51377500Y-29235750D01*
X51374428Y-29825000D01*
X51386688Y-29949482D01*
X51391395Y-29965000D01*
X50038555Y-29965000D01*
X50000000Y-29961203D01*
X49961444Y-29965000D01*
X49961439Y-29965000D01*
X49921026Y-29968980D01*
X49846113Y-29976358D01*
X49698140Y-30021246D01*
X49561767Y-30094138D01*
X49501559Y-30143550D01*
X49472187Y-30167655D01*
X49472184Y-30167658D01*
X49442236Y-30192236D01*
X49417658Y-30222184D01*
X48072190Y-31567653D01*
X48042236Y-31592236D01*
X47944138Y-31711768D01*
X47871246Y-31848141D01*
X47826359Y-31996114D01*
X47815000Y-32111440D01*
X47815000Y-32111447D01*
X47811203Y-32150000D01*
X47815000Y-32188553D01*
X47815001Y-45674842D01*
X43574843Y-49915000D01*
X29320132Y-49915000D01*
X29223520Y-49818388D01*
X29037624Y-49694176D01*
X28831067Y-49608617D01*
X28611788Y-49565000D01*
X28388212Y-49565000D01*
X28168933Y-49608617D01*
X27962376Y-49694176D01*
X27776480Y-49818388D01*
X27618388Y-49976480D01*
X27494176Y-50162376D01*
X27408617Y-50368933D01*
X27365000Y-50588212D01*
X20660000Y-50588212D01*
X20660000Y-31300000D01*
X20684025Y-31300000D01*
X20707870Y-31542102D01*
X20778489Y-31774901D01*
X20893167Y-31989449D01*
X21047498Y-32177502D01*
X21196762Y-32300000D01*
X21047498Y-32422498D01*
X20893167Y-32610551D01*
X20778489Y-32825099D01*
X20707870Y-33057898D01*
X20684025Y-33300000D01*
X20707870Y-33542102D01*
X20778489Y-33774901D01*
X20893167Y-33989449D01*
X21047498Y-34177502D01*
X21196762Y-34300000D01*
X21047498Y-34422498D01*
X20893167Y-34610551D01*
X20778489Y-34825099D01*
X20707870Y-35057898D01*
X20684025Y-35300000D01*
X20707870Y-35542102D01*
X20778489Y-35774901D01*
X20893167Y-35989449D01*
X21047498Y-36177502D01*
X21196762Y-36300000D01*
X21047498Y-36422498D01*
X20893167Y-36610551D01*
X20778489Y-36825099D01*
X20707870Y-37057898D01*
X20684025Y-37300000D01*
X20707870Y-37542102D01*
X20778489Y-37774901D01*
X20893167Y-37989449D01*
X21047498Y-38177502D01*
X21196762Y-38300000D01*
X21047498Y-38422498D01*
X20893167Y-38610551D01*
X20778489Y-38825099D01*
X20707870Y-39057898D01*
X20684025Y-39300000D01*
X20707870Y-39542102D01*
X20778489Y-39774901D01*
X20893167Y-39989449D01*
X21047498Y-40177502D01*
X21086111Y-40209191D01*
X21081613Y-40211595D01*
X20947038Y-40322038D01*
X20836595Y-40456613D01*
X20754528Y-40610149D01*
X20703992Y-40776745D01*
X20686928Y-40949999D01*
X20686928Y-41650001D01*
X20703992Y-41823255D01*
X20754528Y-41989851D01*
X20836595Y-42143387D01*
X20947038Y-42277962D01*
X21081613Y-42388405D01*
X21235149Y-42470472D01*
X21401745Y-42521008D01*
X21574999Y-42538072D01*
X22825001Y-42538072D01*
X22998255Y-42521008D01*
X23164851Y-42470472D01*
X23318387Y-42388405D01*
X23415000Y-42309116D01*
X23415001Y-45774841D01*
X23359192Y-45830650D01*
X23352502Y-45822498D01*
X23164449Y-45668167D01*
X22949901Y-45553489D01*
X22717102Y-45482870D01*
X22535665Y-45465000D01*
X21864335Y-45465000D01*
X21682898Y-45482870D01*
X21450099Y-45553489D01*
X21235551Y-45668167D01*
X21047498Y-45822498D01*
X20893167Y-46010551D01*
X20778489Y-46225099D01*
X20707870Y-46457898D01*
X20684025Y-46700000D01*
X20707870Y-46942102D01*
X20778489Y-47174901D01*
X20893167Y-47389449D01*
X21047498Y-47577502D01*
X21086111Y-47609191D01*
X21081613Y-47611595D01*
X20947038Y-47722038D01*
X20836595Y-47856613D01*
X20754528Y-48010149D01*
X20703992Y-48176745D01*
X20686928Y-48349999D01*
X20686928Y-49050001D01*
X20703992Y-49223255D01*
X20754528Y-49389851D01*
X20836595Y-49543387D01*
X20947038Y-49677962D01*
X21081613Y-49788405D01*
X21235149Y-49870472D01*
X21401745Y-49921008D01*
X21574999Y-49938072D01*
X22825001Y-49938072D01*
X22998255Y-49921008D01*
X23164851Y-49870472D01*
X23318387Y-49788405D01*
X23452962Y-49677962D01*
X23563405Y-49543387D01*
X23645472Y-49389851D01*
X23696008Y-49223255D01*
X23713072Y-49050001D01*
X23713072Y-48349999D01*
X23696008Y-48176745D01*
X23645472Y-48010149D01*
X23640048Y-48000000D01*
X40761928Y-48000000D01*
X40761928Y-49000000D01*
X40774188Y-49124482D01*
X40810498Y-49244180D01*
X40869463Y-49354494D01*
X40948815Y-49451185D01*
X41045506Y-49530537D01*
X41155820Y-49589502D01*
X41275518Y-49625812D01*
X41400000Y-49638072D01*
X42400000Y-49638072D01*
X42524482Y-49625812D01*
X42644180Y-49589502D01*
X42754494Y-49530537D01*
X42797069Y-49495596D01*
X42812376Y-49505824D01*
X43018933Y-49591383D01*
X43238212Y-49635000D01*
X43461788Y-49635000D01*
X43681067Y-49591383D01*
X43887624Y-49505824D01*
X44073520Y-49381612D01*
X44231612Y-49223520D01*
X44355824Y-49037624D01*
X44441383Y-48831067D01*
X44485000Y-48611788D01*
X44485000Y-48388212D01*
X44441383Y-48168933D01*
X44355824Y-47962376D01*
X44231612Y-47776480D01*
X44073520Y-47618388D01*
X43887624Y-47494176D01*
X43681067Y-47408617D01*
X43461788Y-47365000D01*
X43238212Y-47365000D01*
X43018933Y-47408617D01*
X42812376Y-47494176D01*
X42797069Y-47504404D01*
X42754494Y-47469463D01*
X42644180Y-47410498D01*
X42524482Y-47374188D01*
X42400000Y-47361928D01*
X41400000Y-47361928D01*
X41275518Y-47374188D01*
X41155820Y-47410498D01*
X41045506Y-47469463D01*
X40948815Y-47548815D01*
X40869463Y-47645506D01*
X40810498Y-47755820D01*
X40774188Y-47875518D01*
X40761928Y-48000000D01*
X23640048Y-48000000D01*
X23563405Y-47856613D01*
X23452962Y-47722038D01*
X23318387Y-47611595D01*
X23313889Y-47609191D01*
X23352502Y-47577502D01*
X23428416Y-47485000D01*
X23561447Y-47485000D01*
X23600000Y-47488797D01*
X23638553Y-47485000D01*
X23638561Y-47485000D01*
X23753887Y-47473641D01*
X23901860Y-47428754D01*
X24038233Y-47355862D01*
X24157764Y-47257764D01*
X24182346Y-47227811D01*
X24727815Y-46682343D01*
X24757764Y-46657764D01*
X24785079Y-46624482D01*
X24806762Y-46598061D01*
X24855862Y-46538233D01*
X24928754Y-46401860D01*
X24962267Y-46291383D01*
X24973641Y-46253888D01*
X24978375Y-46205824D01*
X24985000Y-46138561D01*
X24985000Y-46138554D01*
X24988797Y-46100001D01*
X24985000Y-46061448D01*
X24985000Y-42850000D01*
X40761928Y-42850000D01*
X40761928Y-43850000D01*
X40774188Y-43974482D01*
X40810498Y-44094180D01*
X40869463Y-44204494D01*
X40948815Y-44301185D01*
X41045506Y-44380537D01*
X41155820Y-44439502D01*
X41275518Y-44475812D01*
X41400000Y-44488072D01*
X42400000Y-44488072D01*
X42524482Y-44475812D01*
X42644180Y-44439502D01*
X42754494Y-44380537D01*
X42797069Y-44345596D01*
X42812376Y-44355824D01*
X42831233Y-44363635D01*
X42718388Y-44476480D01*
X42594176Y-44662376D01*
X42508617Y-44868933D01*
X42507897Y-44872555D01*
X42400000Y-44861928D01*
X41400000Y-44861928D01*
X41275518Y-44874188D01*
X41155820Y-44910498D01*
X41045506Y-44969463D01*
X40948815Y-45048815D01*
X40869463Y-45145506D01*
X40810498Y-45255820D01*
X40774188Y-45375518D01*
X40761928Y-45500000D01*
X40761928Y-46500000D01*
X40774188Y-46624482D01*
X40810498Y-46744180D01*
X40869463Y-46854494D01*
X40948815Y-46951185D01*
X41045506Y-47030537D01*
X41155820Y-47089502D01*
X41275518Y-47125812D01*
X41400000Y-47138072D01*
X42400000Y-47138072D01*
X42524482Y-47125812D01*
X42644180Y-47089502D01*
X42754494Y-47030537D01*
X42851185Y-46951185D01*
X42930537Y-46854494D01*
X42977599Y-46766448D01*
X43101860Y-46728754D01*
X43238233Y-46655862D01*
X43357764Y-46557764D01*
X43382347Y-46527810D01*
X43575157Y-46335000D01*
X43711788Y-46335000D01*
X43931067Y-46291383D01*
X44137624Y-46205824D01*
X44323520Y-46081612D01*
X44481612Y-45923520D01*
X44605824Y-45737624D01*
X44691383Y-45531067D01*
X44735000Y-45311788D01*
X44735000Y-45088212D01*
X44691383Y-44868933D01*
X44605824Y-44662376D01*
X44481612Y-44476480D01*
X44323520Y-44318388D01*
X44137624Y-44194176D01*
X44118767Y-44186365D01*
X44231612Y-44073520D01*
X44355824Y-43887624D01*
X44441383Y-43681067D01*
X44485000Y-43461788D01*
X44485000Y-43238212D01*
X44441383Y-43018933D01*
X44355824Y-42812376D01*
X44231612Y-42626480D01*
X44073520Y-42468388D01*
X43887624Y-42344176D01*
X43681067Y-42258617D01*
X43461788Y-42215000D01*
X43238212Y-42215000D01*
X43018933Y-42258617D01*
X42812376Y-42344176D01*
X42797069Y-42354404D01*
X42754494Y-42319463D01*
X42644180Y-42260498D01*
X42524482Y-42224188D01*
X42400000Y-42211928D01*
X41400000Y-42211928D01*
X41275518Y-42224188D01*
X41155820Y-42260498D01*
X41045506Y-42319463D01*
X40948815Y-42398815D01*
X40869463Y-42495506D01*
X40810498Y-42605820D01*
X40774188Y-42725518D01*
X40761928Y-42850000D01*
X24985000Y-42850000D01*
X24985000Y-40163552D01*
X24988797Y-40124999D01*
X24985000Y-40086446D01*
X24985000Y-40086439D01*
X24973641Y-39971113D01*
X24956620Y-39915000D01*
X24928754Y-39823140D01*
X24895950Y-39761768D01*
X24855862Y-39686767D01*
X24806450Y-39626559D01*
X24782345Y-39597187D01*
X24782342Y-39597184D01*
X24757764Y-39567236D01*
X24727817Y-39542659D01*
X23957347Y-38772190D01*
X23932764Y-38742236D01*
X23813233Y-38644138D01*
X23676860Y-38571246D01*
X23528887Y-38526359D01*
X23429723Y-38516592D01*
X23352502Y-38422498D01*
X23203238Y-38300000D01*
X23352502Y-38177502D01*
X23506833Y-37989449D01*
X23581369Y-37850000D01*
X40761928Y-37850000D01*
X40761928Y-38850000D01*
X40774188Y-38974482D01*
X40810498Y-39094180D01*
X40869463Y-39204494D01*
X40948815Y-39301185D01*
X41045506Y-39380537D01*
X41155820Y-39439502D01*
X41275518Y-39475812D01*
X41400000Y-39488072D01*
X42400000Y-39488072D01*
X42524482Y-39475812D01*
X42644180Y-39439502D01*
X42754494Y-39380537D01*
X42797069Y-39345596D01*
X42812376Y-39355824D01*
X42831233Y-39363635D01*
X42718388Y-39476480D01*
X42594176Y-39662376D01*
X42563651Y-39736070D01*
X42524482Y-39724188D01*
X42400000Y-39711928D01*
X41400000Y-39711928D01*
X41275518Y-39724188D01*
X41155820Y-39760498D01*
X41045506Y-39819463D01*
X40948815Y-39898815D01*
X40869463Y-39995506D01*
X40810498Y-40105820D01*
X40774188Y-40225518D01*
X40761928Y-40350000D01*
X40761928Y-41350000D01*
X40774188Y-41474482D01*
X40810498Y-41594180D01*
X40869463Y-41704494D01*
X40948815Y-41801185D01*
X41045506Y-41880537D01*
X41155820Y-41939502D01*
X41275518Y-41975812D01*
X41400000Y-41988072D01*
X42400000Y-41988072D01*
X42524482Y-41975812D01*
X42644180Y-41939502D01*
X42754494Y-41880537D01*
X42851185Y-41801185D01*
X42930537Y-41704494D01*
X42966523Y-41637170D01*
X42988553Y-41635000D01*
X42988561Y-41635000D01*
X43103887Y-41623641D01*
X43251860Y-41578754D01*
X43388233Y-41505862D01*
X43507764Y-41407764D01*
X43532347Y-41377810D01*
X43575157Y-41335000D01*
X43711788Y-41335000D01*
X43931067Y-41291383D01*
X44137624Y-41205824D01*
X44323520Y-41081612D01*
X44481612Y-40923520D01*
X44605824Y-40737624D01*
X44691383Y-40531067D01*
X44735000Y-40311788D01*
X44735000Y-40088212D01*
X44691383Y-39868933D01*
X44605824Y-39662376D01*
X44481612Y-39476480D01*
X44323520Y-39318388D01*
X44137624Y-39194176D01*
X44118767Y-39186365D01*
X44231612Y-39073520D01*
X44355824Y-38887624D01*
X44441383Y-38681067D01*
X44485000Y-38461788D01*
X44485000Y-38238212D01*
X44441383Y-38018933D01*
X44355824Y-37812376D01*
X44231612Y-37626480D01*
X44073520Y-37468388D01*
X43887624Y-37344176D01*
X43681067Y-37258617D01*
X43461788Y-37215000D01*
X43238212Y-37215000D01*
X43018933Y-37258617D01*
X42812376Y-37344176D01*
X42797069Y-37354404D01*
X42754494Y-37319463D01*
X42644180Y-37260498D01*
X42524482Y-37224188D01*
X42400000Y-37211928D01*
X41400000Y-37211928D01*
X41275518Y-37224188D01*
X41155820Y-37260498D01*
X41045506Y-37319463D01*
X40948815Y-37398815D01*
X40869463Y-37495506D01*
X40810498Y-37605820D01*
X40774188Y-37725518D01*
X40761928Y-37850000D01*
X23581369Y-37850000D01*
X23621511Y-37774901D01*
X23692130Y-37542102D01*
X23715975Y-37300000D01*
X23692130Y-37057898D01*
X23621511Y-36825099D01*
X23506833Y-36610551D01*
X23352502Y-36422498D01*
X23203238Y-36300000D01*
X23352502Y-36177502D01*
X23506833Y-35989449D01*
X23621511Y-35774901D01*
X23692130Y-35542102D01*
X23715975Y-35300000D01*
X23692130Y-35057898D01*
X23621511Y-34825099D01*
X23506833Y-34610551D01*
X23352502Y-34422498D01*
X23203238Y-34300000D01*
X23352502Y-34177502D01*
X23506833Y-33989449D01*
X23621511Y-33774901D01*
X23692130Y-33542102D01*
X23715975Y-33300000D01*
X23692130Y-33057898D01*
X23629065Y-32850000D01*
X40761928Y-32850000D01*
X40761928Y-33850000D01*
X40774188Y-33974482D01*
X40810498Y-34094180D01*
X40869463Y-34204494D01*
X40948815Y-34301185D01*
X41045506Y-34380537D01*
X41155820Y-34439502D01*
X41275518Y-34475812D01*
X41400000Y-34488072D01*
X42400000Y-34488072D01*
X42524482Y-34475812D01*
X42559019Y-34465335D01*
X42494178Y-34562376D01*
X42430968Y-34714978D01*
X42400000Y-34711928D01*
X41400000Y-34711928D01*
X41275518Y-34724188D01*
X41155820Y-34760498D01*
X41045506Y-34819463D01*
X40948815Y-34898815D01*
X40869463Y-34995506D01*
X40810498Y-35105820D01*
X40774188Y-35225518D01*
X40761928Y-35350000D01*
X40761928Y-36350000D01*
X40774188Y-36474482D01*
X40810498Y-36594180D01*
X40869463Y-36704494D01*
X40948815Y-36801185D01*
X41045506Y-36880537D01*
X41155820Y-36939502D01*
X41275518Y-36975812D01*
X41400000Y-36988072D01*
X42400000Y-36988072D01*
X42524482Y-36975812D01*
X42644180Y-36939502D01*
X42754494Y-36880537D01*
X42851185Y-36801185D01*
X42930537Y-36704494D01*
X42987275Y-36598346D01*
X43051862Y-36578754D01*
X43188235Y-36505862D01*
X43307766Y-36407764D01*
X43332349Y-36377811D01*
X43475159Y-36235000D01*
X43611790Y-36235000D01*
X43831069Y-36191383D01*
X44037626Y-36105824D01*
X44223522Y-35981612D01*
X44381614Y-35823520D01*
X44505826Y-35637624D01*
X44591385Y-35431067D01*
X44635002Y-35211788D01*
X44635002Y-34988212D01*
X44591385Y-34768933D01*
X44505826Y-34562376D01*
X44381614Y-34376480D01*
X44223522Y-34218388D01*
X44141530Y-34163602D01*
X44231612Y-34073520D01*
X44355824Y-33887624D01*
X44441383Y-33681067D01*
X44485000Y-33461788D01*
X44485000Y-33238212D01*
X44441383Y-33018933D01*
X44355824Y-32812376D01*
X44231612Y-32626480D01*
X44073520Y-32468388D01*
X43887624Y-32344176D01*
X43681067Y-32258617D01*
X43461788Y-32215000D01*
X43238212Y-32215000D01*
X43018933Y-32258617D01*
X42812376Y-32344176D01*
X42797069Y-32354404D01*
X42754494Y-32319463D01*
X42644180Y-32260498D01*
X42524482Y-32224188D01*
X42400000Y-32211928D01*
X41400000Y-32211928D01*
X41275518Y-32224188D01*
X41155820Y-32260498D01*
X41045506Y-32319463D01*
X40948815Y-32398815D01*
X40869463Y-32495506D01*
X40810498Y-32605820D01*
X40774188Y-32725518D01*
X40761928Y-32850000D01*
X23629065Y-32850000D01*
X23621511Y-32825099D01*
X23506833Y-32610551D01*
X23352502Y-32422498D01*
X23203238Y-32300000D01*
X23352502Y-32177502D01*
X23506833Y-31989449D01*
X23621511Y-31774901D01*
X23692130Y-31542102D01*
X23715975Y-31300000D01*
X23692130Y-31057898D01*
X23621511Y-30825099D01*
X23506833Y-30610551D01*
X23352502Y-30422498D01*
X23164449Y-30268167D01*
X22949901Y-30153489D01*
X22717102Y-30082870D01*
X22535665Y-30065000D01*
X21864335Y-30065000D01*
X21682898Y-30082870D01*
X21450099Y-30153489D01*
X21235551Y-30268167D01*
X21047498Y-30422498D01*
X20893167Y-30610551D01*
X20778489Y-30825099D01*
X20707870Y-31057898D01*
X20684025Y-31300000D01*
X20660000Y-31300000D01*
X20660000Y-28866614D01*
X33099894Y-28877001D01*
X33124672Y-28874581D01*
X33148503Y-28867374D01*
X33170469Y-28855657D01*
X33189728Y-28839879D01*
X33205538Y-28820647D01*
X33217292Y-28798700D01*
X33224539Y-28774881D01*
X33227000Y-28750001D01*
X33227000Y-27950000D01*
X40761928Y-27950000D01*
X40761928Y-28950000D01*
X40774188Y-29074482D01*
X40810498Y-29194180D01*
X40869463Y-29304494D01*
X40948815Y-29401185D01*
X41045506Y-29480537D01*
X41155820Y-29539502D01*
X41275518Y-29575812D01*
X41400000Y-29588072D01*
X42400000Y-29588072D01*
X42524482Y-29575812D01*
X42559019Y-29565335D01*
X42494178Y-29662376D01*
X42470766Y-29718898D01*
X42400000Y-29711928D01*
X41400000Y-29711928D01*
X41275518Y-29724188D01*
X41155820Y-29760498D01*
X41045506Y-29819463D01*
X40948815Y-29898815D01*
X40869463Y-29995506D01*
X40810498Y-30105820D01*
X40774188Y-30225518D01*
X40761928Y-30350000D01*
X40761928Y-31350000D01*
X40774188Y-31474482D01*
X40810498Y-31594180D01*
X40869463Y-31704494D01*
X40948815Y-31801185D01*
X41045506Y-31880537D01*
X41155820Y-31939502D01*
X41275518Y-31975812D01*
X41400000Y-31988072D01*
X42400000Y-31988072D01*
X42524482Y-31975812D01*
X42644180Y-31939502D01*
X42754494Y-31880537D01*
X42851185Y-31801185D01*
X42930537Y-31704494D01*
X42972080Y-31626774D01*
X43003889Y-31623641D01*
X43151862Y-31578754D01*
X43288235Y-31505862D01*
X43407766Y-31407764D01*
X43432349Y-31377810D01*
X43475159Y-31335000D01*
X43611790Y-31335000D01*
X43831069Y-31291383D01*
X44037626Y-31205824D01*
X44223522Y-31081612D01*
X44381614Y-30923520D01*
X44505826Y-30737624D01*
X44591385Y-30531067D01*
X44635002Y-30311788D01*
X44635002Y-30088212D01*
X44591385Y-29868933D01*
X44505826Y-29662376D01*
X44381614Y-29476480D01*
X44223522Y-29318388D01*
X44141530Y-29263602D01*
X44231612Y-29173520D01*
X44355824Y-28987624D01*
X44441383Y-28781067D01*
X44485000Y-28561788D01*
X44485000Y-28338212D01*
X44441383Y-28118933D01*
X44355824Y-27912376D01*
X44231612Y-27726480D01*
X44073520Y-27568388D01*
X44008586Y-27525000D01*
X51374428Y-27525000D01*
X51386688Y-27649482D01*
X51422998Y-27769180D01*
X51439472Y-27800000D01*
X51422998Y-27830820D01*
X51386688Y-27950518D01*
X51374428Y-28075000D01*
X51377500Y-28664250D01*
X51536250Y-28823000D01*
X52598000Y-28823000D01*
X52598000Y-26777000D01*
X52852000Y-26777000D01*
X52852000Y-28823000D01*
X53913750Y-28823000D01*
X54072500Y-28664250D01*
X54075572Y-28075000D01*
X54063312Y-27950518D01*
X54027002Y-27830820D01*
X54010528Y-27800000D01*
X54027002Y-27769180D01*
X54063312Y-27649482D01*
X54075572Y-27525000D01*
X54072500Y-26935750D01*
X53913750Y-26777000D01*
X52852000Y-26777000D01*
X52598000Y-26777000D01*
X51536250Y-26777000D01*
X51377500Y-26935750D01*
X51374428Y-27525000D01*
X44008586Y-27525000D01*
X43887624Y-27444176D01*
X43681067Y-27358617D01*
X43461788Y-27315000D01*
X43238212Y-27315000D01*
X43018933Y-27358617D01*
X42812376Y-27444176D01*
X42797069Y-27454404D01*
X42754494Y-27419463D01*
X42644180Y-27360498D01*
X42524482Y-27324188D01*
X42400000Y-27311928D01*
X41400000Y-27311928D01*
X41275518Y-27324188D01*
X41155820Y-27360498D01*
X41045506Y-27419463D01*
X40948815Y-27498815D01*
X40869463Y-27595506D01*
X40810498Y-27705820D01*
X40774188Y-27825518D01*
X40761928Y-27950000D01*
X33227000Y-27950000D01*
X33227000Y-25450000D01*
X40761928Y-25450000D01*
X40761928Y-26450000D01*
X40774188Y-26574482D01*
X40810498Y-26694180D01*
X40869463Y-26804494D01*
X40948815Y-26901185D01*
X41045506Y-26980537D01*
X41155820Y-27039502D01*
X41275518Y-27075812D01*
X41400000Y-27088072D01*
X42400000Y-27088072D01*
X42524482Y-27075812D01*
X42644180Y-27039502D01*
X42754494Y-26980537D01*
X42851185Y-26901185D01*
X42930537Y-26804494D01*
X42972080Y-26726774D01*
X43003887Y-26723641D01*
X43151860Y-26678754D01*
X43288233Y-26605862D01*
X43407764Y-26507764D01*
X43432347Y-26477810D01*
X43475157Y-26435000D01*
X43611788Y-26435000D01*
X43831067Y-26391383D01*
X44037624Y-26305824D01*
X44223520Y-26181612D01*
X44381612Y-26023520D01*
X44505824Y-25837624D01*
X44531763Y-25775000D01*
X51374428Y-25775000D01*
X51377500Y-26364250D01*
X51536250Y-26523000D01*
X52598000Y-26523000D01*
X52598000Y-25298750D01*
X52852000Y-25298750D01*
X52852000Y-26523000D01*
X53913750Y-26523000D01*
X54072500Y-26364250D01*
X54075572Y-25775000D01*
X54063312Y-25650518D01*
X54027002Y-25530820D01*
X53968037Y-25420506D01*
X53888685Y-25323815D01*
X53791994Y-25244463D01*
X53681680Y-25185498D01*
X53561982Y-25149188D01*
X53437500Y-25136928D01*
X53010750Y-25140000D01*
X52852000Y-25298750D01*
X52598000Y-25298750D01*
X52439250Y-25140000D01*
X52012500Y-25136928D01*
X51888018Y-25149188D01*
X51768320Y-25185498D01*
X51658006Y-25244463D01*
X51561315Y-25323815D01*
X51481963Y-25420506D01*
X51422998Y-25530820D01*
X51386688Y-25650518D01*
X51374428Y-25775000D01*
X44531763Y-25775000D01*
X44591383Y-25631067D01*
X44635000Y-25411788D01*
X44635000Y-25188212D01*
X44591383Y-24968933D01*
X44505824Y-24762376D01*
X44381612Y-24576480D01*
X44223520Y-24418388D01*
X44037624Y-24294176D01*
X43831067Y-24208617D01*
X43611788Y-24165000D01*
X43388212Y-24165000D01*
X43168933Y-24208617D01*
X42962376Y-24294176D01*
X42776480Y-24418388D01*
X42618388Y-24576480D01*
X42494176Y-24762376D01*
X42470764Y-24818897D01*
X42400000Y-24811928D01*
X41400000Y-24811928D01*
X41275518Y-24824188D01*
X41155820Y-24860498D01*
X41045506Y-24919463D01*
X40948815Y-24998815D01*
X40869463Y-25095506D01*
X40810498Y-25205820D01*
X40774188Y-25325518D01*
X40761928Y-25450000D01*
X33227000Y-25450000D01*
X33227000Y-22803110D01*
X62558524Y-22803110D01*
X62679845Y-23033000D01*
X63873000Y-23033000D01*
X63873000Y-21839186D01*
X64127000Y-21839186D01*
X64127000Y-23033000D01*
X65320155Y-23033000D01*
X65441476Y-22803110D01*
X65396825Y-22655901D01*
X65271641Y-22393080D01*
X65097588Y-22159731D01*
X64881355Y-21964822D01*
X64631252Y-21815843D01*
X64356891Y-21718519D01*
X64127000Y-21839186D01*
X63873000Y-21839186D01*
X63643109Y-21718519D01*
X63368748Y-21815843D01*
X63118645Y-21964822D01*
X62902412Y-22159731D01*
X62728359Y-22393080D01*
X62603175Y-22655901D01*
X62558524Y-22803110D01*
X33227000Y-22803110D01*
X33227000Y-20660000D01*
X70326141Y-20660000D01*
X70353784Y-26465000D01*
G36*
X58715000Y-45225158D02*
G01*
X58715001Y-47444498D01*
X58648815Y-47498815D01*
X58569463Y-47595506D01*
X58550000Y-47631918D01*
X58530537Y-47595506D01*
X58451185Y-47498815D01*
X58354494Y-47419463D01*
X58244180Y-47360498D01*
X58124482Y-47324188D01*
X58000000Y-47311928D01*
X57885750Y-47315000D01*
X57727000Y-47473750D01*
X57727000Y-48273000D01*
X57747000Y-48273000D01*
X57747000Y-48527000D01*
X57727000Y-48527000D01*
X57727000Y-49326250D01*
X57811607Y-49410857D01*
X57795506Y-49419463D01*
X57698815Y-49498815D01*
X57619463Y-49595506D01*
X57609043Y-49615000D01*
X56688556Y-49615000D01*
X56650000Y-49611203D01*
X56611444Y-49615000D01*
X56611439Y-49615000D01*
X56571026Y-49618980D01*
X56496113Y-49626358D01*
X56381247Y-49661203D01*
X56348140Y-49671246D01*
X56211767Y-49744138D01*
X56092236Y-49842236D01*
X56067653Y-49872190D01*
X55835000Y-50104843D01*
X55835000Y-48850000D01*
X56561928Y-48850000D01*
X56574188Y-48974482D01*
X56610498Y-49094180D01*
X56669463Y-49204494D01*
X56748815Y-49301185D01*
X56845506Y-49380537D01*
X56955820Y-49439502D01*
X57075518Y-49475812D01*
X57200000Y-49488072D01*
X57314250Y-49485000D01*
X57473000Y-49326250D01*
X57473000Y-48527000D01*
X56723750Y-48527000D01*
X56565000Y-48685750D01*
X56561928Y-48850000D01*
X55835000Y-48850000D01*
X55835000Y-47975157D01*
X55860157Y-47950000D01*
X56561928Y-47950000D01*
X56565000Y-48114250D01*
X56723750Y-48273000D01*
X57473000Y-48273000D01*
X57473000Y-47473750D01*
X57314250Y-47315000D01*
X57200000Y-47311928D01*
X57075518Y-47324188D01*
X56955820Y-47360498D01*
X56845506Y-47419463D01*
X56748815Y-47498815D01*
X56669463Y-47595506D01*
X56610498Y-47705820D01*
X56574188Y-47825518D01*
X56561928Y-47950000D01*
X55860157Y-47950000D01*
X58427810Y-45382347D01*
X58457764Y-45357764D01*
X58555862Y-45238233D01*
X58615848Y-45126006D01*
X58715000Y-45225158D01*
G37*
X58715000Y-45225158D02*
X58715001Y-47444498D01*
X58648815Y-47498815D01*
X58569463Y-47595506D01*
X58550000Y-47631918D01*
X58530537Y-47595506D01*
X58451185Y-47498815D01*
X58354494Y-47419463D01*
X58244180Y-47360498D01*
X58124482Y-47324188D01*
X58000000Y-47311928D01*
X57885750Y-47315000D01*
X57727000Y-47473750D01*
X57727000Y-48273000D01*
X57747000Y-48273000D01*
X57747000Y-48527000D01*
X57727000Y-48527000D01*
X57727000Y-49326250D01*
X57811607Y-49410857D01*
X57795506Y-49419463D01*
X57698815Y-49498815D01*
X57619463Y-49595506D01*
X57609043Y-49615000D01*
X56688556Y-49615000D01*
X56650000Y-49611203D01*
X56611444Y-49615000D01*
X56611439Y-49615000D01*
X56571026Y-49618980D01*
X56496113Y-49626358D01*
X56381247Y-49661203D01*
X56348140Y-49671246D01*
X56211767Y-49744138D01*
X56092236Y-49842236D01*
X56067653Y-49872190D01*
X55835000Y-50104843D01*
X55835000Y-48850000D01*
X56561928Y-48850000D01*
X56574188Y-48974482D01*
X56610498Y-49094180D01*
X56669463Y-49204494D01*
X56748815Y-49301185D01*
X56845506Y-49380537D01*
X56955820Y-49439502D01*
X57075518Y-49475812D01*
X57200000Y-49488072D01*
X57314250Y-49485000D01*
X57473000Y-49326250D01*
X57473000Y-48527000D01*
X56723750Y-48527000D01*
X56565000Y-48685750D01*
X56561928Y-48850000D01*
X55835000Y-48850000D01*
X55835000Y-47975157D01*
X55860157Y-47950000D01*
X56561928Y-47950000D01*
X56565000Y-48114250D01*
X56723750Y-48273000D01*
X57473000Y-48273000D01*
X57473000Y-47473750D01*
X57314250Y-47315000D01*
X57200000Y-47311928D01*
X57075518Y-47324188D01*
X56955820Y-47360498D01*
X56845506Y-47419463D01*
X56748815Y-47498815D01*
X56669463Y-47595506D01*
X56610498Y-47705820D01*
X56574188Y-47825518D01*
X56561928Y-47950000D01*
X55860157Y-47950000D01*
X58427810Y-45382347D01*
X58457764Y-45357764D01*
X58555862Y-45238233D01*
X58615848Y-45126006D01*
X58715000Y-45225158D01*
G36*
X32373000Y-27873000D02*
G01*
X20660000Y-27873000D01*
X20660000Y-20660000D01*
X32373000Y-20660000D01*
X32373000Y-27873000D01*
G37*
X32373000Y-27873000D02*
X20660000Y-27873000D01*
X20660000Y-20660000D01*
X32373000Y-20660000D01*
X32373000Y-27873000D01*
M02*
