G04 #@! TF.GenerationSoftware,KiCad,Pcbnew,5.1.5-52549c5~84~ubuntu18.04.1*
G04 #@! TF.CreationDate,2020-01-08T12:56:45+02:00*
G04 #@! TF.ProjectId,bq76920,62713736-3932-4302-9e6b-696361645f70,rev?*
G04 #@! TF.SameCoordinates,Original*
G04 #@! TF.FileFunction,Legend,Top*
G04 #@! TF.FilePolarity,Positive*
%FSLAX46Y46*%
G04 Gerber Fmt 4.6, Leading zero omitted, Abs format (unit mm)*
G04 Created by KiCad (PCBNEW 5.1.5-52549c5~84~ubuntu18.04.1) date 2020-01-08 12:56:45*
%MOMM*%
%LPD*%
G04 APERTURE LIST*
%ADD10C,0.150000*%
%ADD11C,0.120000*%
G04 APERTURE END LIST*
D10*
X84434285Y-36333333D02*
X83767619Y-36333333D01*
X84815238Y-36095238D02*
X84100952Y-35857142D01*
X84100952Y-36476190D01*
X84767619Y-37047619D02*
X84767619Y-37142857D01*
X84720000Y-37238095D01*
X84672380Y-37285714D01*
X84577142Y-37333333D01*
X84386666Y-37380952D01*
X84148571Y-37380952D01*
X83958095Y-37333333D01*
X83862857Y-37285714D01*
X83815238Y-37238095D01*
X83767619Y-37142857D01*
X83767619Y-37047619D01*
X83815238Y-36952380D01*
X83862857Y-36904761D01*
X83958095Y-36857142D01*
X84148571Y-36809523D01*
X84386666Y-36809523D01*
X84577142Y-36857142D01*
X84672380Y-36904761D01*
X84720000Y-36952380D01*
X84767619Y-37047619D01*
X83815238Y-37857142D02*
X83767619Y-37857142D01*
X83672380Y-37809523D01*
X83624761Y-37761904D01*
X84767619Y-38476190D02*
X84767619Y-38571428D01*
X84720000Y-38666666D01*
X84672380Y-38714285D01*
X84577142Y-38761904D01*
X84386666Y-38809523D01*
X84148571Y-38809523D01*
X83958095Y-38761904D01*
X83862857Y-38714285D01*
X83815238Y-38666666D01*
X83767619Y-38571428D01*
X83767619Y-38476190D01*
X83815238Y-38380952D01*
X83862857Y-38333333D01*
X83958095Y-38285714D01*
X84148571Y-38238095D01*
X84386666Y-38238095D01*
X84577142Y-38285714D01*
X84672380Y-38333333D01*
X84720000Y-38380952D01*
X84767619Y-38476190D01*
X84767619Y-39428571D02*
X84767619Y-39523809D01*
X84720000Y-39619047D01*
X84672380Y-39666666D01*
X84577142Y-39714285D01*
X84386666Y-39761904D01*
X84148571Y-39761904D01*
X83958095Y-39714285D01*
X83862857Y-39666666D01*
X83815238Y-39619047D01*
X83767619Y-39523809D01*
X83767619Y-39428571D01*
X83815238Y-39333333D01*
X83862857Y-39285714D01*
X83958095Y-39238095D01*
X84148571Y-39190476D01*
X84386666Y-39190476D01*
X84577142Y-39238095D01*
X84672380Y-39285714D01*
X84720000Y-39333333D01*
X84767619Y-39428571D01*
X84767619Y-40380952D02*
X84767619Y-40476190D01*
X84720000Y-40571428D01*
X84672380Y-40619047D01*
X84577142Y-40666666D01*
X84386666Y-40714285D01*
X84148571Y-40714285D01*
X83958095Y-40666666D01*
X83862857Y-40619047D01*
X83815238Y-40571428D01*
X83767619Y-40476190D01*
X83767619Y-40380952D01*
X83815238Y-40285714D01*
X83862857Y-40238095D01*
X83958095Y-40190476D01*
X84148571Y-40142857D01*
X84386666Y-40142857D01*
X84577142Y-40190476D01*
X84672380Y-40238095D01*
X84720000Y-40285714D01*
X84767619Y-40380952D01*
X83767619Y-41904761D02*
X84434285Y-41904761D01*
X84339047Y-41904761D02*
X84386666Y-41952380D01*
X84434285Y-42047619D01*
X84434285Y-42190476D01*
X84386666Y-42285714D01*
X84291428Y-42333333D01*
X83767619Y-42333333D01*
X84291428Y-42333333D02*
X84386666Y-42380952D01*
X84434285Y-42476190D01*
X84434285Y-42619047D01*
X84386666Y-42714285D01*
X84291428Y-42761904D01*
X83767619Y-42761904D01*
X83767619Y-43238095D02*
X84434285Y-43238095D01*
X84339047Y-43238095D02*
X84386666Y-43285714D01*
X84434285Y-43380952D01*
X84434285Y-43523809D01*
X84386666Y-43619047D01*
X84291428Y-43666666D01*
X83767619Y-43666666D01*
X84291428Y-43666666D02*
X84386666Y-43714285D01*
X84434285Y-43809523D01*
X84434285Y-43952380D01*
X84386666Y-44047619D01*
X84291428Y-44095238D01*
X83767619Y-44095238D01*
D11*
X82950000Y-20000000D02*
X82950000Y-60000000D01*
X80000000Y-20000000D02*
X83536421Y-20000000D01*
X80000000Y-60000000D02*
X83536421Y-60000000D01*
X82950000Y-60000000D02*
X82363579Y-58873496D01*
X82950000Y-60000000D02*
X83536421Y-58873496D01*
X82950000Y-20000000D02*
X82363579Y-21126504D01*
X82950000Y-20000000D02*
X83536421Y-21126504D01*
D10*
X46333333Y-16832381D02*
X46142857Y-16832381D01*
X46047619Y-16880001D01*
X46000000Y-16927620D01*
X45904761Y-17070477D01*
X45857142Y-17260953D01*
X45857142Y-17641905D01*
X45904761Y-17737143D01*
X45952380Y-17784762D01*
X46047619Y-17832381D01*
X46238095Y-17832381D01*
X46333333Y-17784762D01*
X46380952Y-17737143D01*
X46428571Y-17641905D01*
X46428571Y-17403810D01*
X46380952Y-17308572D01*
X46333333Y-17260953D01*
X46238095Y-17213334D01*
X46047619Y-17213334D01*
X45952380Y-17260953D01*
X45904761Y-17308572D01*
X45857142Y-17403810D01*
X47047619Y-16832381D02*
X47142857Y-16832381D01*
X47238095Y-16880001D01*
X47285714Y-16927620D01*
X47333333Y-17022858D01*
X47380952Y-17213334D01*
X47380952Y-17451429D01*
X47333333Y-17641905D01*
X47285714Y-17737143D01*
X47238095Y-17784762D01*
X47142857Y-17832381D01*
X47047619Y-17832381D01*
X46952380Y-17784762D01*
X46904761Y-17737143D01*
X46857142Y-17641905D01*
X46809523Y-17451429D01*
X46809523Y-17213334D01*
X46857142Y-17022858D01*
X46904761Y-16927620D01*
X46952380Y-16880001D01*
X47047619Y-16832381D01*
X47857142Y-17784762D02*
X47857142Y-17832381D01*
X47809523Y-17927620D01*
X47761904Y-17975239D01*
X48476190Y-16832381D02*
X48571428Y-16832381D01*
X48666666Y-16880001D01*
X48714285Y-16927620D01*
X48761904Y-17022858D01*
X48809523Y-17213334D01*
X48809523Y-17451429D01*
X48761904Y-17641905D01*
X48714285Y-17737143D01*
X48666666Y-17784762D01*
X48571428Y-17832381D01*
X48476190Y-17832381D01*
X48380952Y-17784762D01*
X48333333Y-17737143D01*
X48285714Y-17641905D01*
X48238095Y-17451429D01*
X48238095Y-17213334D01*
X48285714Y-17022858D01*
X48333333Y-16927620D01*
X48380952Y-16880001D01*
X48476190Y-16832381D01*
X49428571Y-16832381D02*
X49523809Y-16832381D01*
X49619047Y-16880001D01*
X49666666Y-16927620D01*
X49714285Y-17022858D01*
X49761904Y-17213334D01*
X49761904Y-17451429D01*
X49714285Y-17641905D01*
X49666666Y-17737143D01*
X49619047Y-17784762D01*
X49523809Y-17832381D01*
X49428571Y-17832381D01*
X49333333Y-17784762D01*
X49285714Y-17737143D01*
X49238095Y-17641905D01*
X49190476Y-17451429D01*
X49190476Y-17213334D01*
X49238095Y-17022858D01*
X49285714Y-16927620D01*
X49333333Y-16880001D01*
X49428571Y-16832381D01*
X50380952Y-16832381D02*
X50476190Y-16832381D01*
X50571428Y-16880001D01*
X50619047Y-16927620D01*
X50666666Y-17022858D01*
X50714285Y-17213334D01*
X50714285Y-17451429D01*
X50666666Y-17641905D01*
X50619047Y-17737143D01*
X50571428Y-17784762D01*
X50476190Y-17832381D01*
X50380952Y-17832381D01*
X50285714Y-17784762D01*
X50238095Y-17737143D01*
X50190476Y-17641905D01*
X50142857Y-17451429D01*
X50142857Y-17213334D01*
X50190476Y-17022858D01*
X50238095Y-16927620D01*
X50285714Y-16880001D01*
X50380952Y-16832381D01*
X51904761Y-17832381D02*
X51904761Y-17165715D01*
X51904761Y-17260953D02*
X51952380Y-17213334D01*
X52047619Y-17165715D01*
X52190476Y-17165715D01*
X52285714Y-17213334D01*
X52333333Y-17308572D01*
X52333333Y-17832381D01*
X52333333Y-17308572D02*
X52380952Y-17213334D01*
X52476190Y-17165715D01*
X52619047Y-17165715D01*
X52714285Y-17213334D01*
X52761904Y-17308572D01*
X52761904Y-17832381D01*
X53238095Y-17832381D02*
X53238095Y-17165715D01*
X53238095Y-17260953D02*
X53285714Y-17213334D01*
X53380952Y-17165715D01*
X53523809Y-17165715D01*
X53619047Y-17213334D01*
X53666666Y-17308572D01*
X53666666Y-17832381D01*
X53666666Y-17308572D02*
X53714285Y-17213334D01*
X53809523Y-17165715D01*
X53952380Y-17165715D01*
X54047619Y-17213334D01*
X54095238Y-17308572D01*
X54095238Y-17832381D01*
D11*
X80000000Y-18650001D02*
X20000000Y-18650001D01*
X80000000Y-20000000D02*
X80000000Y-18063580D01*
X20000000Y-20000000D02*
X20000000Y-18063580D01*
X20000000Y-18650001D02*
X21126504Y-18063580D01*
X20000000Y-18650001D02*
X21126504Y-19236422D01*
X80000000Y-18650001D02*
X78873496Y-18063580D01*
X80000000Y-18650001D02*
X78873496Y-19236422D01*
D10*
X23133333Y-22028571D02*
X23276190Y-22076190D01*
X23323809Y-22123809D01*
X23371428Y-22219047D01*
X23371428Y-22361904D01*
X23323809Y-22457142D01*
X23276190Y-22504761D01*
X23180952Y-22552380D01*
X22800000Y-22552380D01*
X22800000Y-21552380D01*
X23133333Y-21552380D01*
X23228571Y-21600000D01*
X23276190Y-21647619D01*
X23323809Y-21742857D01*
X23323809Y-21838095D01*
X23276190Y-21933333D01*
X23228571Y-21980952D01*
X23133333Y-22028571D01*
X22800000Y-22028571D01*
X23752380Y-22266666D02*
X24228571Y-22266666D01*
X23657142Y-22552380D02*
X23990476Y-21552380D01*
X24323809Y-22552380D01*
X24514285Y-21552380D02*
X25085714Y-21552380D01*
X24800000Y-22552380D02*
X24800000Y-21552380D01*
X25419047Y-22171428D02*
X26180952Y-22171428D01*
X25800000Y-22552380D02*
X25800000Y-21790476D01*
X28180952Y-22552380D02*
X28180952Y-21552380D01*
X28561904Y-21552380D01*
X28657142Y-21600000D01*
X28704761Y-21647619D01*
X28752380Y-21742857D01*
X28752380Y-21885714D01*
X28704761Y-21980952D01*
X28657142Y-22028571D01*
X28561904Y-22076190D01*
X28180952Y-22076190D01*
X29133333Y-22266666D02*
X29609523Y-22266666D01*
X29038095Y-22552380D02*
X29371428Y-21552380D01*
X29704761Y-22552380D01*
X30609523Y-22457142D02*
X30561904Y-22504761D01*
X30419047Y-22552380D01*
X30323809Y-22552380D01*
X30180952Y-22504761D01*
X30085714Y-22409523D01*
X30038095Y-22314285D01*
X29990476Y-22123809D01*
X29990476Y-21980952D01*
X30038095Y-21790476D01*
X30085714Y-21695238D01*
X30180952Y-21600000D01*
X30323809Y-21552380D01*
X30419047Y-21552380D01*
X30561904Y-21600000D01*
X30609523Y-21647619D01*
X31038095Y-22552380D02*
X31038095Y-21552380D01*
X31609523Y-22552380D02*
X31180952Y-21980952D01*
X31609523Y-21552380D02*
X31038095Y-22123809D01*
X32038095Y-22171428D02*
X32800000Y-22171428D01*
X32419047Y-22552380D02*
X32419047Y-21790476D01*
X25283333Y-28178571D02*
X25426190Y-28226190D01*
X25473809Y-28273809D01*
X25521428Y-28369047D01*
X25521428Y-28511904D01*
X25473809Y-28607142D01*
X25426190Y-28654761D01*
X25330952Y-28702380D01*
X24950000Y-28702380D01*
X24950000Y-27702380D01*
X25283333Y-27702380D01*
X25378571Y-27750000D01*
X25426190Y-27797619D01*
X25473809Y-27892857D01*
X25473809Y-27988095D01*
X25426190Y-28083333D01*
X25378571Y-28130952D01*
X25283333Y-28178571D01*
X24950000Y-28178571D01*
X25902380Y-28416666D02*
X26378571Y-28416666D01*
X25807142Y-28702380D02*
X26140476Y-27702380D01*
X26473809Y-28702380D01*
X27283333Y-28702380D02*
X26807142Y-28702380D01*
X26807142Y-27702380D01*
X27569047Y-28416666D02*
X28045238Y-28416666D01*
X27473809Y-28702380D02*
X27807142Y-27702380D01*
X28140476Y-28702380D01*
X28473809Y-28702380D02*
X28473809Y-27702380D01*
X29045238Y-28702380D01*
X29045238Y-27702380D01*
X30092857Y-28607142D02*
X30045238Y-28654761D01*
X29902380Y-28702380D01*
X29807142Y-28702380D01*
X29664285Y-28654761D01*
X29569047Y-28559523D01*
X29521428Y-28464285D01*
X29473809Y-28273809D01*
X29473809Y-28130952D01*
X29521428Y-27940476D01*
X29569047Y-27845238D01*
X29664285Y-27750000D01*
X29807142Y-27702380D01*
X29902380Y-27702380D01*
X30045238Y-27750000D01*
X30092857Y-27797619D01*
X30521428Y-28178571D02*
X30854761Y-28178571D01*
X30997619Y-28702380D02*
X30521428Y-28702380D01*
X30521428Y-27702380D01*
X30997619Y-27702380D01*
X64559523Y-58802380D02*
X64559523Y-57802380D01*
X64940476Y-57802380D01*
X65035714Y-57850000D01*
X65083333Y-57897619D01*
X65130952Y-57992857D01*
X65130952Y-58135714D01*
X65083333Y-58230952D01*
X65035714Y-58278571D01*
X64940476Y-58326190D01*
X64559523Y-58326190D01*
X65511904Y-58516666D02*
X65988095Y-58516666D01*
X65416666Y-58802380D02*
X65750000Y-57802380D01*
X66083333Y-58802380D01*
X66988095Y-58707142D02*
X66940476Y-58754761D01*
X66797619Y-58802380D01*
X66702380Y-58802380D01*
X66559523Y-58754761D01*
X66464285Y-58659523D01*
X66416666Y-58564285D01*
X66369047Y-58373809D01*
X66369047Y-58230952D01*
X66416666Y-58040476D01*
X66464285Y-57945238D01*
X66559523Y-57850000D01*
X66702380Y-57802380D01*
X66797619Y-57802380D01*
X66940476Y-57850000D01*
X66988095Y-57897619D01*
X67416666Y-58802380D02*
X67416666Y-57802380D01*
X67988095Y-58802380D02*
X67559523Y-58230952D01*
X67988095Y-57802380D02*
X67416666Y-58373809D01*
X69178571Y-58421428D02*
X69940476Y-58421428D01*
X37228571Y-56919047D02*
X37276190Y-56776190D01*
X37323809Y-56728571D01*
X37419047Y-56680952D01*
X37561904Y-56680952D01*
X37657142Y-56728571D01*
X37704761Y-56776190D01*
X37752380Y-56871428D01*
X37752380Y-57252380D01*
X36752380Y-57252380D01*
X36752380Y-56919047D01*
X36800000Y-56823809D01*
X36847619Y-56776190D01*
X36942857Y-56728571D01*
X37038095Y-56728571D01*
X37133333Y-56776190D01*
X37180952Y-56823809D01*
X37228571Y-56919047D01*
X37228571Y-57252380D01*
X37466666Y-56300000D02*
X37466666Y-55823809D01*
X37752380Y-56395238D02*
X36752380Y-56061904D01*
X37752380Y-55728571D01*
X36752380Y-55538095D02*
X36752380Y-54966666D01*
X37752380Y-55252380D02*
X36752380Y-55252380D01*
X36752380Y-54776190D02*
X36752380Y-54204761D01*
X37752380Y-54490476D02*
X36752380Y-54490476D01*
X37371428Y-53109523D02*
X37371428Y-52347619D01*
X26690476Y-41657142D02*
X26642857Y-41704761D01*
X26500000Y-41752380D01*
X26404761Y-41752380D01*
X26261904Y-41704761D01*
X26166666Y-41609523D01*
X26119047Y-41514285D01*
X26071428Y-41323809D01*
X26071428Y-41180952D01*
X26119047Y-40990476D01*
X26166666Y-40895238D01*
X26261904Y-40800000D01*
X26404761Y-40752380D01*
X26500000Y-40752380D01*
X26642857Y-40800000D01*
X26690476Y-40847619D01*
X27119047Y-41228571D02*
X27452380Y-41228571D01*
X27595238Y-41752380D02*
X27119047Y-41752380D01*
X27119047Y-40752380D01*
X27595238Y-40752380D01*
X28500000Y-41752380D02*
X28023809Y-41752380D01*
X28023809Y-40752380D01*
X29309523Y-41752380D02*
X28833333Y-41752380D01*
X28833333Y-40752380D01*
X30595238Y-40752380D02*
X30690476Y-40752380D01*
X30785714Y-40800000D01*
X30833333Y-40847619D01*
X30880952Y-40942857D01*
X30928571Y-41133333D01*
X30928571Y-41371428D01*
X30880952Y-41561904D01*
X30833333Y-41657142D01*
X30785714Y-41704761D01*
X30690476Y-41752380D01*
X30595238Y-41752380D01*
X30500000Y-41704761D01*
X30452380Y-41657142D01*
X30404761Y-41561904D01*
X30357142Y-41371428D01*
X30357142Y-41133333D01*
X30404761Y-40942857D01*
X30452380Y-40847619D01*
X30500000Y-40800000D01*
X30595238Y-40752380D01*
X26690476Y-39657142D02*
X26642857Y-39704761D01*
X26500000Y-39752380D01*
X26404761Y-39752380D01*
X26261904Y-39704761D01*
X26166666Y-39609523D01*
X26119047Y-39514285D01*
X26071428Y-39323809D01*
X26071428Y-39180952D01*
X26119047Y-38990476D01*
X26166666Y-38895238D01*
X26261904Y-38800000D01*
X26404761Y-38752380D01*
X26500000Y-38752380D01*
X26642857Y-38800000D01*
X26690476Y-38847619D01*
X27119047Y-39228571D02*
X27452380Y-39228571D01*
X27595238Y-39752380D02*
X27119047Y-39752380D01*
X27119047Y-38752380D01*
X27595238Y-38752380D01*
X28500000Y-39752380D02*
X28023809Y-39752380D01*
X28023809Y-38752380D01*
X29309523Y-39752380D02*
X28833333Y-39752380D01*
X28833333Y-38752380D01*
X30928571Y-39752380D02*
X30357142Y-39752380D01*
X30642857Y-39752380D02*
X30642857Y-38752380D01*
X30547619Y-38895238D01*
X30452380Y-38990476D01*
X30357142Y-39038095D01*
X26690476Y-37657142D02*
X26642857Y-37704761D01*
X26500000Y-37752380D01*
X26404761Y-37752380D01*
X26261904Y-37704761D01*
X26166666Y-37609523D01*
X26119047Y-37514285D01*
X26071428Y-37323809D01*
X26071428Y-37180952D01*
X26119047Y-36990476D01*
X26166666Y-36895238D01*
X26261904Y-36800000D01*
X26404761Y-36752380D01*
X26500000Y-36752380D01*
X26642857Y-36800000D01*
X26690476Y-36847619D01*
X27119047Y-37228571D02*
X27452380Y-37228571D01*
X27595238Y-37752380D02*
X27119047Y-37752380D01*
X27119047Y-36752380D01*
X27595238Y-36752380D01*
X28500000Y-37752380D02*
X28023809Y-37752380D01*
X28023809Y-36752380D01*
X29309523Y-37752380D02*
X28833333Y-37752380D01*
X28833333Y-36752380D01*
X30357142Y-36847619D02*
X30404761Y-36800000D01*
X30500000Y-36752380D01*
X30738095Y-36752380D01*
X30833333Y-36800000D01*
X30880952Y-36847619D01*
X30928571Y-36942857D01*
X30928571Y-37038095D01*
X30880952Y-37180952D01*
X30309523Y-37752380D01*
X30928571Y-37752380D01*
X26690476Y-35657142D02*
X26642857Y-35704761D01*
X26500000Y-35752380D01*
X26404761Y-35752380D01*
X26261904Y-35704761D01*
X26166666Y-35609523D01*
X26119047Y-35514285D01*
X26071428Y-35323809D01*
X26071428Y-35180952D01*
X26119047Y-34990476D01*
X26166666Y-34895238D01*
X26261904Y-34800000D01*
X26404761Y-34752380D01*
X26500000Y-34752380D01*
X26642857Y-34800000D01*
X26690476Y-34847619D01*
X27119047Y-35228571D02*
X27452380Y-35228571D01*
X27595238Y-35752380D02*
X27119047Y-35752380D01*
X27119047Y-34752380D01*
X27595238Y-34752380D01*
X28500000Y-35752380D02*
X28023809Y-35752380D01*
X28023809Y-34752380D01*
X29309523Y-35752380D02*
X28833333Y-35752380D01*
X28833333Y-34752380D01*
X30309523Y-34752380D02*
X30928571Y-34752380D01*
X30595238Y-35133333D01*
X30738095Y-35133333D01*
X30833333Y-35180952D01*
X30880952Y-35228571D01*
X30928571Y-35323809D01*
X30928571Y-35561904D01*
X30880952Y-35657142D01*
X30833333Y-35704761D01*
X30738095Y-35752380D01*
X30452380Y-35752380D01*
X30357142Y-35704761D01*
X30309523Y-35657142D01*
X26690476Y-33657142D02*
X26642857Y-33704761D01*
X26500000Y-33752380D01*
X26404761Y-33752380D01*
X26261904Y-33704761D01*
X26166666Y-33609523D01*
X26119047Y-33514285D01*
X26071428Y-33323809D01*
X26071428Y-33180952D01*
X26119047Y-32990476D01*
X26166666Y-32895238D01*
X26261904Y-32800000D01*
X26404761Y-32752380D01*
X26500000Y-32752380D01*
X26642857Y-32800000D01*
X26690476Y-32847619D01*
X27119047Y-33228571D02*
X27452380Y-33228571D01*
X27595238Y-33752380D02*
X27119047Y-33752380D01*
X27119047Y-32752380D01*
X27595238Y-32752380D01*
X28500000Y-33752380D02*
X28023809Y-33752380D01*
X28023809Y-32752380D01*
X29309523Y-33752380D02*
X28833333Y-33752380D01*
X28833333Y-32752380D01*
X30833333Y-33085714D02*
X30833333Y-33752380D01*
X30595238Y-32704761D02*
X30357142Y-33419047D01*
X30976190Y-33419047D01*
X26690476Y-31657142D02*
X26642857Y-31704761D01*
X26500000Y-31752380D01*
X26404761Y-31752380D01*
X26261904Y-31704761D01*
X26166666Y-31609523D01*
X26119047Y-31514285D01*
X26071428Y-31323809D01*
X26071428Y-31180952D01*
X26119047Y-30990476D01*
X26166666Y-30895238D01*
X26261904Y-30800000D01*
X26404761Y-30752380D01*
X26500000Y-30752380D01*
X26642857Y-30800000D01*
X26690476Y-30847619D01*
X27119047Y-31228571D02*
X27452380Y-31228571D01*
X27595238Y-31752380D02*
X27119047Y-31752380D01*
X27119047Y-30752380D01*
X27595238Y-30752380D01*
X28500000Y-31752380D02*
X28023809Y-31752380D01*
X28023809Y-30752380D01*
X29309523Y-31752380D02*
X28833333Y-31752380D01*
X28833333Y-30752380D01*
X30880952Y-30752380D02*
X30404761Y-30752380D01*
X30357142Y-31228571D01*
X30404761Y-31180952D01*
X30500000Y-31133333D01*
X30738095Y-31133333D01*
X30833333Y-31180952D01*
X30880952Y-31228571D01*
X30928571Y-31323809D01*
X30928571Y-31561904D01*
X30880952Y-31657142D01*
X30833333Y-31704761D01*
X30738095Y-31752380D01*
X30500000Y-31752380D01*
X30404761Y-31704761D01*
X30357142Y-31657142D01*
X28192857Y-45803571D02*
X28335714Y-45851190D01*
X28383333Y-45898809D01*
X28430952Y-45994047D01*
X28430952Y-46136904D01*
X28383333Y-46232142D01*
X28335714Y-46279761D01*
X28240476Y-46327380D01*
X27859523Y-46327380D01*
X27859523Y-45327380D01*
X28192857Y-45327380D01*
X28288095Y-45375000D01*
X28335714Y-45422619D01*
X28383333Y-45517857D01*
X28383333Y-45613095D01*
X28335714Y-45708333D01*
X28288095Y-45755952D01*
X28192857Y-45803571D01*
X27859523Y-45803571D01*
X29050000Y-45327380D02*
X29240476Y-45327380D01*
X29335714Y-45375000D01*
X29430952Y-45470238D01*
X29478571Y-45660714D01*
X29478571Y-45994047D01*
X29430952Y-46184523D01*
X29335714Y-46279761D01*
X29240476Y-46327380D01*
X29050000Y-46327380D01*
X28954761Y-46279761D01*
X28859523Y-46184523D01*
X28811904Y-45994047D01*
X28811904Y-45660714D01*
X28859523Y-45470238D01*
X28954761Y-45375000D01*
X29050000Y-45327380D01*
X30097619Y-45327380D02*
X30288095Y-45327380D01*
X30383333Y-45375000D01*
X30478571Y-45470238D01*
X30526190Y-45660714D01*
X30526190Y-45994047D01*
X30478571Y-46184523D01*
X30383333Y-46279761D01*
X30288095Y-46327380D01*
X30097619Y-46327380D01*
X30002380Y-46279761D01*
X29907142Y-46184523D01*
X29859523Y-45994047D01*
X29859523Y-45660714D01*
X29907142Y-45470238D01*
X30002380Y-45375000D01*
X30097619Y-45327380D01*
X30811904Y-45327380D02*
X31383333Y-45327380D01*
X31097619Y-46327380D02*
X31097619Y-45327380D01*
X28692857Y-47929761D02*
X28835714Y-47977380D01*
X29073809Y-47977380D01*
X29169047Y-47929761D01*
X29216666Y-47882142D01*
X29264285Y-47786904D01*
X29264285Y-47691666D01*
X29216666Y-47596428D01*
X29169047Y-47548809D01*
X29073809Y-47501190D01*
X28883333Y-47453571D01*
X28788095Y-47405952D01*
X28740476Y-47358333D01*
X28692857Y-47263095D01*
X28692857Y-47167857D01*
X28740476Y-47072619D01*
X28788095Y-47025000D01*
X28883333Y-46977380D01*
X29121428Y-46977380D01*
X29264285Y-47025000D01*
X29597619Y-46977380D02*
X29835714Y-47977380D01*
X30026190Y-47263095D01*
X30216666Y-47977380D01*
X30454761Y-46977380D01*
D11*
X65330000Y-21830000D02*
X62670000Y-21830000D01*
X65330000Y-26970000D02*
X65330000Y-21830000D01*
X62670000Y-26970000D02*
X62670000Y-21830000D01*
X65330000Y-26970000D02*
X62670000Y-26970000D01*
X65330000Y-28240000D02*
X65330000Y-29570000D01*
X65330000Y-29570000D02*
X64000000Y-29570000D01*
X45910000Y-46261252D02*
X45910000Y-45738748D01*
X44490000Y-46261252D02*
X44490000Y-45738748D01*
X70050000Y-29410000D02*
X72000000Y-29410000D01*
X70050000Y-29410000D02*
X68100000Y-29410000D01*
X70050000Y-24290000D02*
X72000000Y-24290000D01*
X70050000Y-24290000D02*
X66600000Y-24290000D01*
X56890000Y-45786252D02*
X56890000Y-45263748D01*
X58310000Y-45786252D02*
X58310000Y-45263748D01*
X43980000Y-25540000D02*
X43980000Y-27000000D01*
X40820000Y-25540000D02*
X40820000Y-27700000D01*
X40820000Y-25540000D02*
X41750000Y-25540000D01*
X43980000Y-25540000D02*
X43050000Y-25540000D01*
X43980000Y-40440000D02*
X43980000Y-41900000D01*
X40820000Y-40440000D02*
X40820000Y-42600000D01*
X40820000Y-40440000D02*
X41750000Y-40440000D01*
X43980000Y-40440000D02*
X43050000Y-40440000D01*
X43980000Y-45440000D02*
X43980000Y-46900000D01*
X40820000Y-45440000D02*
X40820000Y-47600000D01*
X40820000Y-45440000D02*
X41750000Y-45440000D01*
X43980000Y-45440000D02*
X43050000Y-45440000D01*
X45910000Y-41236252D02*
X45910000Y-40713748D01*
X44490000Y-41236252D02*
X44490000Y-40713748D01*
X37886252Y-45210000D02*
X37363748Y-45210000D01*
X37886252Y-43790000D02*
X37363748Y-43790000D01*
X37886252Y-40210000D02*
X37363748Y-40210000D01*
X37886252Y-38790000D02*
X37363748Y-38790000D01*
X46490000Y-40713748D02*
X46490000Y-41236252D01*
X47910000Y-40713748D02*
X47910000Y-41236252D01*
X38689564Y-42710000D02*
X37485436Y-42710000D01*
X38689564Y-40890000D02*
X37485436Y-40890000D01*
X38689564Y-47710000D02*
X37485436Y-47710000D01*
X38689564Y-45890000D02*
X37485436Y-45890000D01*
X46490000Y-45713748D02*
X46490000Y-46236252D01*
X47910000Y-45713748D02*
X47910000Y-46236252D01*
X52210000Y-45263748D02*
X52210000Y-45786252D01*
X50790000Y-45263748D02*
X50790000Y-45786252D01*
X54786252Y-43790000D02*
X54263748Y-43790000D01*
X54786252Y-45210000D02*
X54263748Y-45210000D01*
X54490000Y-38386252D02*
X54490000Y-37863748D01*
X55910000Y-38386252D02*
X55910000Y-37863748D01*
X47910000Y-25813748D02*
X47910000Y-26336252D01*
X46490000Y-25813748D02*
X46490000Y-26336252D01*
X46490000Y-30713748D02*
X46490000Y-31236252D01*
X47910000Y-30713748D02*
X47910000Y-31236252D01*
X47910000Y-35613748D02*
X47910000Y-36136252D01*
X46490000Y-35613748D02*
X46490000Y-36136252D01*
X50213748Y-47790000D02*
X50736252Y-47790000D01*
X50213748Y-49210000D02*
X50736252Y-49210000D01*
X20390000Y-43360000D02*
X25110000Y-43360000D01*
X25110000Y-43360000D02*
X25110000Y-29240000D01*
X25110000Y-29240000D02*
X20390000Y-29240000D01*
X20390000Y-29240000D02*
X20390000Y-43360000D01*
X20390000Y-41600000D02*
X20190000Y-41600000D01*
X20190000Y-41600000D02*
X20190000Y-41900000D01*
X20190000Y-41900000D02*
X20390000Y-41900000D01*
X20290000Y-41600000D02*
X20290000Y-41900000D01*
X20390000Y-40800000D02*
X21000000Y-40800000D01*
X21000000Y-40800000D02*
X21000000Y-42750000D01*
X21000000Y-42750000D02*
X24500000Y-42750000D01*
X24500000Y-42750000D02*
X24500000Y-29850000D01*
X24500000Y-29850000D02*
X21000000Y-29850000D01*
X21000000Y-29850000D02*
X21000000Y-31800000D01*
X21000000Y-31800000D02*
X20390000Y-31800000D01*
X21700000Y-43360000D02*
X21700000Y-42750000D01*
X23000000Y-43360000D02*
X23000000Y-42750000D01*
X21700000Y-29240000D02*
X21700000Y-29850000D01*
X23000000Y-29240000D02*
X23000000Y-29850000D01*
X24500000Y-40400000D02*
X24000000Y-40400000D01*
X24000000Y-40400000D02*
X24000000Y-40200000D01*
X24000000Y-40200000D02*
X24500000Y-40200000D01*
X24500000Y-40300000D02*
X24000000Y-40300000D01*
X24500000Y-38400000D02*
X24000000Y-38400000D01*
X24000000Y-38400000D02*
X24000000Y-38200000D01*
X24000000Y-38200000D02*
X24500000Y-38200000D01*
X24500000Y-38300000D02*
X24000000Y-38300000D01*
X24500000Y-36400000D02*
X24000000Y-36400000D01*
X24000000Y-36400000D02*
X24000000Y-36200000D01*
X24000000Y-36200000D02*
X24500000Y-36200000D01*
X24500000Y-36300000D02*
X24000000Y-36300000D01*
X24500000Y-34400000D02*
X24000000Y-34400000D01*
X24000000Y-34400000D02*
X24000000Y-34200000D01*
X24000000Y-34200000D02*
X24500000Y-34200000D01*
X24500000Y-34300000D02*
X24000000Y-34300000D01*
X24500000Y-32400000D02*
X24000000Y-32400000D01*
X24000000Y-32400000D02*
X24000000Y-32200000D01*
X24000000Y-32200000D02*
X24500000Y-32200000D01*
X24500000Y-32300000D02*
X24000000Y-32300000D01*
X20090000Y-42410000D02*
X20090000Y-43660000D01*
X20090000Y-43660000D02*
X21340000Y-43660000D01*
X20390000Y-58060000D02*
X25110000Y-58060000D01*
X25110000Y-58060000D02*
X25110000Y-51940000D01*
X25110000Y-51940000D02*
X20390000Y-51940000D01*
X20390000Y-51940000D02*
X20390000Y-58060000D01*
X20390000Y-56300000D02*
X20190000Y-56300000D01*
X20190000Y-56300000D02*
X20190000Y-56600000D01*
X20190000Y-56600000D02*
X20390000Y-56600000D01*
X20290000Y-56300000D02*
X20290000Y-56600000D01*
X20390000Y-55500000D02*
X21000000Y-55500000D01*
X21000000Y-55500000D02*
X21000000Y-57450000D01*
X21000000Y-57450000D02*
X24500000Y-57450000D01*
X24500000Y-57450000D02*
X24500000Y-52550000D01*
X24500000Y-52550000D02*
X21000000Y-52550000D01*
X21000000Y-52550000D02*
X21000000Y-54500000D01*
X21000000Y-54500000D02*
X20390000Y-54500000D01*
X21700000Y-58060000D02*
X21700000Y-57450000D01*
X23000000Y-58060000D02*
X23000000Y-57450000D01*
X21700000Y-51940000D02*
X21700000Y-52550000D01*
X23000000Y-51940000D02*
X23000000Y-52550000D01*
X24500000Y-55100000D02*
X24000000Y-55100000D01*
X24000000Y-55100000D02*
X24000000Y-54900000D01*
X24000000Y-54900000D02*
X24500000Y-54900000D01*
X24500000Y-55000000D02*
X24000000Y-55000000D01*
X20090000Y-57110000D02*
X20090000Y-58360000D01*
X20090000Y-58360000D02*
X21340000Y-58360000D01*
X20090000Y-51060000D02*
X21340000Y-51060000D01*
X20090000Y-49810000D02*
X20090000Y-51060000D01*
X24500000Y-47700000D02*
X24000000Y-47700000D01*
X24000000Y-47600000D02*
X24500000Y-47600000D01*
X24000000Y-47800000D02*
X24000000Y-47600000D01*
X24500000Y-47800000D02*
X24000000Y-47800000D01*
X23000000Y-44640000D02*
X23000000Y-45250000D01*
X21700000Y-44640000D02*
X21700000Y-45250000D01*
X23000000Y-50760000D02*
X23000000Y-50150000D01*
X21700000Y-50760000D02*
X21700000Y-50150000D01*
X21000000Y-47200000D02*
X20390000Y-47200000D01*
X21000000Y-45250000D02*
X21000000Y-47200000D01*
X24500000Y-45250000D02*
X21000000Y-45250000D01*
X24500000Y-50150000D02*
X24500000Y-45250000D01*
X21000000Y-50150000D02*
X24500000Y-50150000D01*
X21000000Y-48200000D02*
X21000000Y-50150000D01*
X20390000Y-48200000D02*
X21000000Y-48200000D01*
X20290000Y-49000000D02*
X20290000Y-49300000D01*
X20190000Y-49300000D02*
X20390000Y-49300000D01*
X20190000Y-49000000D02*
X20190000Y-49300000D01*
X20390000Y-49000000D02*
X20190000Y-49000000D01*
X20390000Y-44640000D02*
X20390000Y-50760000D01*
X25110000Y-44640000D02*
X20390000Y-44640000D01*
X25110000Y-50760000D02*
X25110000Y-44640000D01*
X20390000Y-50760000D02*
X25110000Y-50760000D01*
X49050000Y-52700000D02*
X49050000Y-52900000D01*
X53350000Y-52700000D02*
X49050000Y-52700000D01*
X53350000Y-52850000D02*
X53350000Y-52700000D01*
X53350000Y-57900000D02*
X53350000Y-57750000D01*
X49050000Y-57900000D02*
X53350000Y-57900000D01*
X49050000Y-57700000D02*
X49050000Y-57900000D01*
X62250000Y-52900000D02*
X62250000Y-52700000D01*
X62250000Y-52700000D02*
X57950000Y-52700000D01*
X57950000Y-52700000D02*
X57950000Y-52850000D01*
X57950000Y-57750000D02*
X57950000Y-57900000D01*
X57950000Y-57900000D02*
X62250000Y-57900000D01*
X62250000Y-57900000D02*
X62250000Y-57700000D01*
X43980000Y-30440000D02*
X43980000Y-31900000D01*
X40820000Y-30440000D02*
X40820000Y-32600000D01*
X40820000Y-30440000D02*
X41750000Y-30440000D01*
X43980000Y-30440000D02*
X43050000Y-30440000D01*
X43980000Y-35340000D02*
X43980000Y-36800000D01*
X40820000Y-35340000D02*
X40820000Y-37500000D01*
X40820000Y-35340000D02*
X41750000Y-35340000D01*
X43980000Y-35340000D02*
X43050000Y-35340000D01*
X25890000Y-54763748D02*
X25890000Y-55286252D01*
X27310000Y-54763748D02*
X27310000Y-55286252D01*
X25890000Y-49986252D02*
X25890000Y-49463748D01*
X27310000Y-49986252D02*
X27310000Y-49463748D01*
X52790000Y-47163748D02*
X52790000Y-47686252D01*
X54210000Y-47163748D02*
X54210000Y-47686252D01*
X46800000Y-58000000D02*
X38800000Y-58000000D01*
X38800000Y-58000000D02*
X38800000Y-52000000D01*
X38800000Y-52000000D02*
X46800000Y-52000000D01*
X46800000Y-52000000D02*
X46800000Y-58000000D01*
X56260000Y-47163748D02*
X56260000Y-47686252D01*
X54840000Y-47163748D02*
X54840000Y-47686252D01*
X52490000Y-37863748D02*
X52490000Y-38386252D01*
X53910000Y-37863748D02*
X53910000Y-38386252D01*
X56490000Y-38386252D02*
X56490000Y-37863748D01*
X57910000Y-38386252D02*
X57910000Y-37863748D01*
X38689564Y-27810000D02*
X37485436Y-27810000D01*
X38689564Y-25990000D02*
X37485436Y-25990000D01*
X38689564Y-30890000D02*
X37485436Y-30890000D01*
X38689564Y-32710000D02*
X37485436Y-32710000D01*
X38689564Y-35890000D02*
X37485436Y-35890000D01*
X38689564Y-37710000D02*
X37485436Y-37710000D01*
X37886252Y-23990000D02*
X37363748Y-23990000D01*
X37886252Y-25410000D02*
X37363748Y-25410000D01*
X44490000Y-26336252D02*
X44490000Y-25813748D01*
X45910000Y-26336252D02*
X45910000Y-25813748D01*
X37886252Y-30310000D02*
X37363748Y-30310000D01*
X37886252Y-28890000D02*
X37363748Y-28890000D01*
X44490000Y-31236252D02*
X44490000Y-30713748D01*
X45910000Y-31236252D02*
X45910000Y-30713748D01*
X37886252Y-35210000D02*
X37363748Y-35210000D01*
X37886252Y-33790000D02*
X37363748Y-33790000D01*
X45910000Y-36136252D02*
X45910000Y-35613748D01*
X44490000Y-36136252D02*
X44490000Y-35613748D01*
X46436252Y-49610000D02*
X45913748Y-49610000D01*
X46436252Y-48190000D02*
X45913748Y-48190000D01*
D10*
X58725000Y-27650000D02*
X54275000Y-27650000D01*
X60250000Y-34550000D02*
X54275000Y-34550000D01*
D11*
X57360436Y-21440000D02*
X58564564Y-21440000D01*
X57360436Y-23260000D02*
X58564564Y-23260000D01*
X64410000Y-44711252D02*
X64410000Y-44188748D01*
X62990000Y-44711252D02*
X62990000Y-44188748D01*
X74440000Y-42736252D02*
X74440000Y-42213748D01*
X75860000Y-42736252D02*
X75860000Y-42213748D01*
X68313748Y-23560000D02*
X68836252Y-23560000D01*
X68313748Y-22140000D02*
X68836252Y-22140000D01*
X76440000Y-42736252D02*
X76440000Y-42213748D01*
X77860000Y-42736252D02*
X77860000Y-42213748D01*
X55500000Y-25400000D02*
X52350000Y-25400000D01*
X55500000Y-23700000D02*
X52350000Y-23700000D01*
X55500000Y-25400000D02*
X55500000Y-23700000D01*
X68440000Y-34960436D02*
X68440000Y-36164564D01*
X70260000Y-34960436D02*
X70260000Y-36164564D01*
X66710000Y-34910436D02*
X66710000Y-36114564D01*
X64890000Y-34910436D02*
X64890000Y-36114564D01*
X70940000Y-34960436D02*
X70940000Y-36164564D01*
X72760000Y-34960436D02*
X72760000Y-36164564D01*
X75870000Y-58190000D02*
X78530000Y-58190000D01*
X75870000Y-47970000D02*
X75870000Y-58190000D01*
X78530000Y-47970000D02*
X78530000Y-58190000D01*
X75870000Y-47970000D02*
X78530000Y-47970000D01*
X75870000Y-46700000D02*
X75870000Y-45370000D01*
X75870000Y-45370000D02*
X77200000Y-45370000D01*
X53636252Y-21790000D02*
X53113748Y-21790000D01*
X53636252Y-23210000D02*
X53113748Y-23210000D01*
X58686252Y-25260000D02*
X58163748Y-25260000D01*
X58686252Y-23840000D02*
X58163748Y-23840000D01*
D10*
X70975000Y-42250000D02*
X66525000Y-42250000D01*
X72500000Y-49150000D02*
X66525000Y-49150000D01*
D11*
X68540000Y-40286252D02*
X68540000Y-39763748D01*
X69960000Y-40286252D02*
X69960000Y-39763748D01*
X66510000Y-40286252D02*
X66510000Y-39763748D01*
X65090000Y-40286252D02*
X65090000Y-39763748D01*
X70990000Y-40286252D02*
X70990000Y-39763748D01*
X72410000Y-40286252D02*
X72410000Y-39763748D01*
X73490000Y-56086252D02*
X73490000Y-55563748D01*
X74910000Y-56086252D02*
X74910000Y-55563748D01*
X75870000Y-31750000D02*
X78530000Y-31750000D01*
X75870000Y-24070000D02*
X75870000Y-31750000D01*
X78530000Y-24070000D02*
X78530000Y-31750000D01*
X75870000Y-24070000D02*
X78530000Y-24070000D01*
X75870000Y-22800000D02*
X75870000Y-21470000D01*
X75870000Y-21470000D02*
X77200000Y-21470000D01*
D10*
X63190476Y-30022380D02*
X63190476Y-30736666D01*
X63142857Y-30879523D01*
X63047619Y-30974761D01*
X62904761Y-31022380D01*
X62809523Y-31022380D01*
X64190476Y-31022380D02*
X63619047Y-31022380D01*
X63904761Y-31022380D02*
X63904761Y-30022380D01*
X63809523Y-30165238D01*
X63714285Y-30260476D01*
X63619047Y-30308095D01*
X64809523Y-30022380D02*
X64904761Y-30022380D01*
X65000000Y-30070000D01*
X65047619Y-30117619D01*
X65095238Y-30212857D01*
X65142857Y-30403333D01*
X65142857Y-30641428D01*
X65095238Y-30831904D01*
X65047619Y-30927142D01*
X65000000Y-30974761D01*
X64904761Y-31022380D01*
X64809523Y-31022380D01*
X64714285Y-30974761D01*
X64666666Y-30927142D01*
X64619047Y-30831904D01*
X64571428Y-30641428D01*
X64571428Y-30403333D01*
X64619047Y-30212857D01*
X64666666Y-30117619D01*
X64714285Y-30070000D01*
X64809523Y-30022380D01*
X44857142Y-43952380D02*
X44523809Y-43476190D01*
X44285714Y-43952380D02*
X44285714Y-42952380D01*
X44666666Y-42952380D01*
X44761904Y-43000000D01*
X44809523Y-43047619D01*
X44857142Y-43142857D01*
X44857142Y-43285714D01*
X44809523Y-43380952D01*
X44761904Y-43428571D01*
X44666666Y-43476190D01*
X44285714Y-43476190D01*
X45190476Y-42952380D02*
X45809523Y-42952380D01*
X45476190Y-43333333D01*
X45619047Y-43333333D01*
X45714285Y-43380952D01*
X45761904Y-43428571D01*
X45809523Y-43523809D01*
X45809523Y-43761904D01*
X45761904Y-43857142D01*
X45714285Y-43904761D01*
X45619047Y-43952380D01*
X45333333Y-43952380D01*
X45238095Y-43904761D01*
X45190476Y-43857142D01*
X46428571Y-42952380D02*
X46523809Y-42952380D01*
X46619047Y-43000000D01*
X46666666Y-43047619D01*
X46714285Y-43142857D01*
X46761904Y-43333333D01*
X46761904Y-43571428D01*
X46714285Y-43761904D01*
X46666666Y-43857142D01*
X46619047Y-43904761D01*
X46523809Y-43952380D01*
X46428571Y-43952380D01*
X46333333Y-43904761D01*
X46285714Y-43857142D01*
X46238095Y-43761904D01*
X46190476Y-43571428D01*
X46190476Y-43333333D01*
X46238095Y-43142857D01*
X46285714Y-43047619D01*
X46333333Y-43000000D01*
X46428571Y-42952380D01*
X68338095Y-29852380D02*
X68338095Y-30661904D01*
X68385714Y-30757142D01*
X68433333Y-30804761D01*
X68528571Y-30852380D01*
X68719047Y-30852380D01*
X68814285Y-30804761D01*
X68861904Y-30757142D01*
X68909523Y-30661904D01*
X68909523Y-29852380D01*
X69338095Y-29947619D02*
X69385714Y-29900000D01*
X69480952Y-29852380D01*
X69719047Y-29852380D01*
X69814285Y-29900000D01*
X69861904Y-29947619D01*
X69909523Y-30042857D01*
X69909523Y-30138095D01*
X69861904Y-30280952D01*
X69290476Y-30852380D01*
X69909523Y-30852380D01*
X57957142Y-42866666D02*
X58004761Y-42914285D01*
X58052380Y-43057142D01*
X58052380Y-43152380D01*
X58004761Y-43295238D01*
X57909523Y-43390476D01*
X57814285Y-43438095D01*
X57623809Y-43485714D01*
X57480952Y-43485714D01*
X57290476Y-43438095D01*
X57195238Y-43390476D01*
X57100000Y-43295238D01*
X57052380Y-43152380D01*
X57052380Y-43057142D01*
X57100000Y-42914285D01*
X57147619Y-42866666D01*
X57052380Y-42533333D02*
X57052380Y-41914285D01*
X57433333Y-42247619D01*
X57433333Y-42104761D01*
X57480952Y-42009523D01*
X57528571Y-41961904D01*
X57623809Y-41914285D01*
X57861904Y-41914285D01*
X57957142Y-41961904D01*
X58004761Y-42009523D01*
X58052380Y-42104761D01*
X58052380Y-42390476D01*
X58004761Y-42485714D01*
X57957142Y-42533333D01*
X41304761Y-24447619D02*
X41209523Y-24400000D01*
X41114285Y-24304761D01*
X40971428Y-24161904D01*
X40876190Y-24114285D01*
X40780952Y-24114285D01*
X40828571Y-24352380D02*
X40733333Y-24304761D01*
X40638095Y-24209523D01*
X40590476Y-24019047D01*
X40590476Y-23685714D01*
X40638095Y-23495238D01*
X40733333Y-23400000D01*
X40828571Y-23352380D01*
X41019047Y-23352380D01*
X41114285Y-23400000D01*
X41209523Y-23495238D01*
X41257142Y-23685714D01*
X41257142Y-24019047D01*
X41209523Y-24209523D01*
X41114285Y-24304761D01*
X41019047Y-24352380D01*
X40828571Y-24352380D01*
X42114285Y-23685714D02*
X42114285Y-24352380D01*
X41876190Y-23304761D02*
X41638095Y-24019047D01*
X42257142Y-24019047D01*
X41404761Y-39347619D02*
X41309523Y-39300000D01*
X41214285Y-39204761D01*
X41071428Y-39061904D01*
X40976190Y-39014285D01*
X40880952Y-39014285D01*
X40928571Y-39252380D02*
X40833333Y-39204761D01*
X40738095Y-39109523D01*
X40690476Y-38919047D01*
X40690476Y-38585714D01*
X40738095Y-38395238D01*
X40833333Y-38300000D01*
X40928571Y-38252380D01*
X41119047Y-38252380D01*
X41214285Y-38300000D01*
X41309523Y-38395238D01*
X41357142Y-38585714D01*
X41357142Y-38919047D01*
X41309523Y-39109523D01*
X41214285Y-39204761D01*
X41119047Y-39252380D01*
X40928571Y-39252380D01*
X41690476Y-38252380D02*
X42357142Y-38252380D01*
X41928571Y-39252380D01*
X41404761Y-44347619D02*
X41309523Y-44300000D01*
X41214285Y-44204761D01*
X41071428Y-44061904D01*
X40976190Y-44014285D01*
X40880952Y-44014285D01*
X40928571Y-44252380D02*
X40833333Y-44204761D01*
X40738095Y-44109523D01*
X40690476Y-43919047D01*
X40690476Y-43585714D01*
X40738095Y-43395238D01*
X40833333Y-43300000D01*
X40928571Y-43252380D01*
X41119047Y-43252380D01*
X41214285Y-43300000D01*
X41309523Y-43395238D01*
X41357142Y-43585714D01*
X41357142Y-43919047D01*
X41309523Y-44109523D01*
X41214285Y-44204761D01*
X41119047Y-44252380D01*
X40928571Y-44252380D01*
X41928571Y-43680952D02*
X41833333Y-43633333D01*
X41785714Y-43585714D01*
X41738095Y-43490476D01*
X41738095Y-43442857D01*
X41785714Y-43347619D01*
X41833333Y-43300000D01*
X41928571Y-43252380D01*
X42119047Y-43252380D01*
X42214285Y-43300000D01*
X42261904Y-43347619D01*
X42309523Y-43442857D01*
X42309523Y-43490476D01*
X42261904Y-43585714D01*
X42214285Y-43633333D01*
X42119047Y-43680952D01*
X41928571Y-43680952D01*
X41833333Y-43728571D01*
X41785714Y-43776190D01*
X41738095Y-43871428D01*
X41738095Y-44061904D01*
X41785714Y-44157142D01*
X41833333Y-44204761D01*
X41928571Y-44252380D01*
X42119047Y-44252380D01*
X42214285Y-44204761D01*
X42261904Y-44157142D01*
X42309523Y-44061904D01*
X42309523Y-43871428D01*
X42261904Y-43776190D01*
X42214285Y-43728571D01*
X42119047Y-43680952D01*
X44857142Y-38952380D02*
X44523809Y-38476190D01*
X44285714Y-38952380D02*
X44285714Y-37952380D01*
X44666666Y-37952380D01*
X44761904Y-38000000D01*
X44809523Y-38047619D01*
X44857142Y-38142857D01*
X44857142Y-38285714D01*
X44809523Y-38380952D01*
X44761904Y-38428571D01*
X44666666Y-38476190D01*
X44285714Y-38476190D01*
X45238095Y-38047619D02*
X45285714Y-38000000D01*
X45380952Y-37952380D01*
X45619047Y-37952380D01*
X45714285Y-38000000D01*
X45761904Y-38047619D01*
X45809523Y-38142857D01*
X45809523Y-38238095D01*
X45761904Y-38380952D01*
X45190476Y-38952380D01*
X45809523Y-38952380D01*
X46380952Y-38380952D02*
X46285714Y-38333333D01*
X46238095Y-38285714D01*
X46190476Y-38190476D01*
X46190476Y-38142857D01*
X46238095Y-38047619D01*
X46285714Y-38000000D01*
X46380952Y-37952380D01*
X46571428Y-37952380D01*
X46666666Y-38000000D01*
X46714285Y-38047619D01*
X46761904Y-38142857D01*
X46761904Y-38190476D01*
X46714285Y-38285714D01*
X46666666Y-38333333D01*
X46571428Y-38380952D01*
X46380952Y-38380952D01*
X46285714Y-38428571D01*
X46238095Y-38476190D01*
X46190476Y-38571428D01*
X46190476Y-38761904D01*
X46238095Y-38857142D01*
X46285714Y-38904761D01*
X46380952Y-38952380D01*
X46571428Y-38952380D01*
X46666666Y-38904761D01*
X46714285Y-38857142D01*
X46761904Y-38761904D01*
X46761904Y-38571428D01*
X46714285Y-38476190D01*
X46666666Y-38428571D01*
X46571428Y-38380952D01*
X33557142Y-44952380D02*
X33223809Y-44476190D01*
X32985714Y-44952380D02*
X32985714Y-43952380D01*
X33366666Y-43952380D01*
X33461904Y-44000000D01*
X33509523Y-44047619D01*
X33557142Y-44142857D01*
X33557142Y-44285714D01*
X33509523Y-44380952D01*
X33461904Y-44428571D01*
X33366666Y-44476190D01*
X32985714Y-44476190D01*
X33938095Y-44047619D02*
X33985714Y-44000000D01*
X34080952Y-43952380D01*
X34319047Y-43952380D01*
X34414285Y-44000000D01*
X34461904Y-44047619D01*
X34509523Y-44142857D01*
X34509523Y-44238095D01*
X34461904Y-44380952D01*
X33890476Y-44952380D01*
X34509523Y-44952380D01*
X34985714Y-44952380D02*
X35176190Y-44952380D01*
X35271428Y-44904761D01*
X35319047Y-44857142D01*
X35414285Y-44714285D01*
X35461904Y-44523809D01*
X35461904Y-44142857D01*
X35414285Y-44047619D01*
X35366666Y-44000000D01*
X35271428Y-43952380D01*
X35080952Y-43952380D01*
X34985714Y-44000000D01*
X34938095Y-44047619D01*
X34890476Y-44142857D01*
X34890476Y-44380952D01*
X34938095Y-44476190D01*
X34985714Y-44523809D01*
X35080952Y-44571428D01*
X35271428Y-44571428D01*
X35366666Y-44523809D01*
X35414285Y-44476190D01*
X35461904Y-44380952D01*
X33557142Y-39952380D02*
X33223809Y-39476190D01*
X32985714Y-39952380D02*
X32985714Y-38952380D01*
X33366666Y-38952380D01*
X33461904Y-39000000D01*
X33509523Y-39047619D01*
X33557142Y-39142857D01*
X33557142Y-39285714D01*
X33509523Y-39380952D01*
X33461904Y-39428571D01*
X33366666Y-39476190D01*
X32985714Y-39476190D01*
X33938095Y-39047619D02*
X33985714Y-39000000D01*
X34080952Y-38952380D01*
X34319047Y-38952380D01*
X34414285Y-39000000D01*
X34461904Y-39047619D01*
X34509523Y-39142857D01*
X34509523Y-39238095D01*
X34461904Y-39380952D01*
X33890476Y-39952380D01*
X34509523Y-39952380D01*
X34842857Y-38952380D02*
X35509523Y-38952380D01*
X35080952Y-39952380D01*
X49207142Y-41617857D02*
X49254761Y-41665476D01*
X49302380Y-41808333D01*
X49302380Y-41903571D01*
X49254761Y-42046428D01*
X49159523Y-42141666D01*
X49064285Y-42189285D01*
X48873809Y-42236904D01*
X48730952Y-42236904D01*
X48540476Y-42189285D01*
X48445238Y-42141666D01*
X48350000Y-42046428D01*
X48302380Y-41903571D01*
X48302380Y-41808333D01*
X48350000Y-41665476D01*
X48397619Y-41617857D01*
X49302380Y-40665476D02*
X49302380Y-41236904D01*
X49302380Y-40951190D02*
X48302380Y-40951190D01*
X48445238Y-41046428D01*
X48540476Y-41141666D01*
X48588095Y-41236904D01*
X48302380Y-40332142D02*
X48302380Y-39713095D01*
X48683333Y-40046428D01*
X48683333Y-39903571D01*
X48730952Y-39808333D01*
X48778571Y-39760714D01*
X48873809Y-39713095D01*
X49111904Y-39713095D01*
X49207142Y-39760714D01*
X49254761Y-39808333D01*
X49302380Y-39903571D01*
X49302380Y-40189285D01*
X49254761Y-40284523D01*
X49207142Y-40332142D01*
X33557142Y-42252380D02*
X33223809Y-41776190D01*
X32985714Y-42252380D02*
X32985714Y-41252380D01*
X33366666Y-41252380D01*
X33461904Y-41300000D01*
X33509523Y-41347619D01*
X33557142Y-41442857D01*
X33557142Y-41585714D01*
X33509523Y-41680952D01*
X33461904Y-41728571D01*
X33366666Y-41776190D01*
X32985714Y-41776190D01*
X34509523Y-42252380D02*
X33938095Y-42252380D01*
X34223809Y-42252380D02*
X34223809Y-41252380D01*
X34128571Y-41395238D01*
X34033333Y-41490476D01*
X33938095Y-41538095D01*
X34985714Y-42252380D02*
X35176190Y-42252380D01*
X35271428Y-42204761D01*
X35319047Y-42157142D01*
X35414285Y-42014285D01*
X35461904Y-41823809D01*
X35461904Y-41442857D01*
X35414285Y-41347619D01*
X35366666Y-41300000D01*
X35271428Y-41252380D01*
X35080952Y-41252380D01*
X34985714Y-41300000D01*
X34938095Y-41347619D01*
X34890476Y-41442857D01*
X34890476Y-41680952D01*
X34938095Y-41776190D01*
X34985714Y-41823809D01*
X35080952Y-41871428D01*
X35271428Y-41871428D01*
X35366666Y-41823809D01*
X35414285Y-41776190D01*
X35461904Y-41680952D01*
X33557142Y-47252380D02*
X33223809Y-46776190D01*
X32985714Y-47252380D02*
X32985714Y-46252380D01*
X33366666Y-46252380D01*
X33461904Y-46300000D01*
X33509523Y-46347619D01*
X33557142Y-46442857D01*
X33557142Y-46585714D01*
X33509523Y-46680952D01*
X33461904Y-46728571D01*
X33366666Y-46776190D01*
X32985714Y-46776190D01*
X33938095Y-46347619D02*
X33985714Y-46300000D01*
X34080952Y-46252380D01*
X34319047Y-46252380D01*
X34414285Y-46300000D01*
X34461904Y-46347619D01*
X34509523Y-46442857D01*
X34509523Y-46538095D01*
X34461904Y-46680952D01*
X33890476Y-47252380D01*
X34509523Y-47252380D01*
X35128571Y-46252380D02*
X35223809Y-46252380D01*
X35319047Y-46300000D01*
X35366666Y-46347619D01*
X35414285Y-46442857D01*
X35461904Y-46633333D01*
X35461904Y-46871428D01*
X35414285Y-47061904D01*
X35366666Y-47157142D01*
X35319047Y-47204761D01*
X35223809Y-47252380D01*
X35128571Y-47252380D01*
X35033333Y-47204761D01*
X34985714Y-47157142D01*
X34938095Y-47061904D01*
X34890476Y-46871428D01*
X34890476Y-46633333D01*
X34938095Y-46442857D01*
X34985714Y-46347619D01*
X35033333Y-46300000D01*
X35128571Y-46252380D01*
X49207142Y-46617857D02*
X49254761Y-46665476D01*
X49302380Y-46808333D01*
X49302380Y-46903571D01*
X49254761Y-47046428D01*
X49159523Y-47141666D01*
X49064285Y-47189285D01*
X48873809Y-47236904D01*
X48730952Y-47236904D01*
X48540476Y-47189285D01*
X48445238Y-47141666D01*
X48350000Y-47046428D01*
X48302380Y-46903571D01*
X48302380Y-46808333D01*
X48350000Y-46665476D01*
X48397619Y-46617857D01*
X49302380Y-45665476D02*
X49302380Y-46236904D01*
X49302380Y-45951190D02*
X48302380Y-45951190D01*
X48445238Y-46046428D01*
X48540476Y-46141666D01*
X48588095Y-46236904D01*
X48635714Y-44808333D02*
X49302380Y-44808333D01*
X48254761Y-45046428D02*
X48969047Y-45284523D01*
X48969047Y-44665476D01*
X51857142Y-42766666D02*
X51904761Y-42814285D01*
X51952380Y-42957142D01*
X51952380Y-43052380D01*
X51904761Y-43195238D01*
X51809523Y-43290476D01*
X51714285Y-43338095D01*
X51523809Y-43385714D01*
X51380952Y-43385714D01*
X51190476Y-43338095D01*
X51095238Y-43290476D01*
X51000000Y-43195238D01*
X50952380Y-43052380D01*
X50952380Y-42957142D01*
X51000000Y-42814285D01*
X51047619Y-42766666D01*
X51952380Y-41814285D02*
X51952380Y-42385714D01*
X51952380Y-42100000D02*
X50952380Y-42100000D01*
X51095238Y-42195238D01*
X51190476Y-42290476D01*
X51238095Y-42385714D01*
X54333333Y-43257142D02*
X54285714Y-43304761D01*
X54142857Y-43352380D01*
X54047619Y-43352380D01*
X53904761Y-43304761D01*
X53809523Y-43209523D01*
X53761904Y-43114285D01*
X53714285Y-42923809D01*
X53714285Y-42780952D01*
X53761904Y-42590476D01*
X53809523Y-42495238D01*
X53904761Y-42400000D01*
X54047619Y-42352380D01*
X54142857Y-42352380D01*
X54285714Y-42400000D01*
X54333333Y-42447619D01*
X54714285Y-42447619D02*
X54761904Y-42400000D01*
X54857142Y-42352380D01*
X55095238Y-42352380D01*
X55190476Y-42400000D01*
X55238095Y-42447619D01*
X55285714Y-42542857D01*
X55285714Y-42638095D01*
X55238095Y-42780952D01*
X54666666Y-43352380D01*
X55285714Y-43352380D01*
X55008333Y-41057142D02*
X54960714Y-41104761D01*
X54817857Y-41152380D01*
X54722619Y-41152380D01*
X54579761Y-41104761D01*
X54484523Y-41009523D01*
X54436904Y-40914285D01*
X54389285Y-40723809D01*
X54389285Y-40580952D01*
X54436904Y-40390476D01*
X54484523Y-40295238D01*
X54579761Y-40200000D01*
X54722619Y-40152380D01*
X54817857Y-40152380D01*
X54960714Y-40200000D01*
X55008333Y-40247619D01*
X55865476Y-40485714D02*
X55865476Y-41152380D01*
X55627380Y-40104761D02*
X55389285Y-40819047D01*
X56008333Y-40819047D01*
X49207142Y-26717857D02*
X49254761Y-26765476D01*
X49302380Y-26908333D01*
X49302380Y-27003571D01*
X49254761Y-27146428D01*
X49159523Y-27241666D01*
X49064285Y-27289285D01*
X48873809Y-27336904D01*
X48730952Y-27336904D01*
X48540476Y-27289285D01*
X48445238Y-27241666D01*
X48350000Y-27146428D01*
X48302380Y-27003571D01*
X48302380Y-26908333D01*
X48350000Y-26765476D01*
X48397619Y-26717857D01*
X49302380Y-25765476D02*
X49302380Y-26336904D01*
X49302380Y-26051190D02*
X48302380Y-26051190D01*
X48445238Y-26146428D01*
X48540476Y-26241666D01*
X48588095Y-26336904D01*
X48302380Y-25146428D02*
X48302380Y-25051190D01*
X48350000Y-24955952D01*
X48397619Y-24908333D01*
X48492857Y-24860714D01*
X48683333Y-24813095D01*
X48921428Y-24813095D01*
X49111904Y-24860714D01*
X49207142Y-24908333D01*
X49254761Y-24955952D01*
X49302380Y-25051190D01*
X49302380Y-25146428D01*
X49254761Y-25241666D01*
X49207142Y-25289285D01*
X49111904Y-25336904D01*
X48921428Y-25384523D01*
X48683333Y-25384523D01*
X48492857Y-25336904D01*
X48397619Y-25289285D01*
X48350000Y-25241666D01*
X48302380Y-25146428D01*
X49207142Y-31617857D02*
X49254761Y-31665476D01*
X49302380Y-31808333D01*
X49302380Y-31903571D01*
X49254761Y-32046428D01*
X49159523Y-32141666D01*
X49064285Y-32189285D01*
X48873809Y-32236904D01*
X48730952Y-32236904D01*
X48540476Y-32189285D01*
X48445238Y-32141666D01*
X48350000Y-32046428D01*
X48302380Y-31903571D01*
X48302380Y-31808333D01*
X48350000Y-31665476D01*
X48397619Y-31617857D01*
X49302380Y-30665476D02*
X49302380Y-31236904D01*
X49302380Y-30951190D02*
X48302380Y-30951190D01*
X48445238Y-31046428D01*
X48540476Y-31141666D01*
X48588095Y-31236904D01*
X49302380Y-29713095D02*
X49302380Y-30284523D01*
X49302380Y-29998809D02*
X48302380Y-29998809D01*
X48445238Y-30094047D01*
X48540476Y-30189285D01*
X48588095Y-30284523D01*
X49207142Y-36517857D02*
X49254761Y-36565476D01*
X49302380Y-36708333D01*
X49302380Y-36803571D01*
X49254761Y-36946428D01*
X49159523Y-37041666D01*
X49064285Y-37089285D01*
X48873809Y-37136904D01*
X48730952Y-37136904D01*
X48540476Y-37089285D01*
X48445238Y-37041666D01*
X48350000Y-36946428D01*
X48302380Y-36803571D01*
X48302380Y-36708333D01*
X48350000Y-36565476D01*
X48397619Y-36517857D01*
X49302380Y-35565476D02*
X49302380Y-36136904D01*
X49302380Y-35851190D02*
X48302380Y-35851190D01*
X48445238Y-35946428D01*
X48540476Y-36041666D01*
X48588095Y-36136904D01*
X48397619Y-35184523D02*
X48350000Y-35136904D01*
X48302380Y-35041666D01*
X48302380Y-34803571D01*
X48350000Y-34708333D01*
X48397619Y-34660714D01*
X48492857Y-34613095D01*
X48588095Y-34613095D01*
X48730952Y-34660714D01*
X49302380Y-35232142D01*
X49302380Y-34613095D01*
X49832142Y-50557142D02*
X49784523Y-50604761D01*
X49641666Y-50652380D01*
X49546428Y-50652380D01*
X49403571Y-50604761D01*
X49308333Y-50509523D01*
X49260714Y-50414285D01*
X49213095Y-50223809D01*
X49213095Y-50080952D01*
X49260714Y-49890476D01*
X49308333Y-49795238D01*
X49403571Y-49700000D01*
X49546428Y-49652380D01*
X49641666Y-49652380D01*
X49784523Y-49700000D01*
X49832142Y-49747619D01*
X50784523Y-50652380D02*
X50213095Y-50652380D01*
X50498809Y-50652380D02*
X50498809Y-49652380D01*
X50403571Y-49795238D01*
X50308333Y-49890476D01*
X50213095Y-49938095D01*
X51689285Y-49652380D02*
X51213095Y-49652380D01*
X51165476Y-50128571D01*
X51213095Y-50080952D01*
X51308333Y-50033333D01*
X51546428Y-50033333D01*
X51641666Y-50080952D01*
X51689285Y-50128571D01*
X51736904Y-50223809D01*
X51736904Y-50461904D01*
X51689285Y-50557142D01*
X51641666Y-50604761D01*
X51546428Y-50652380D01*
X51308333Y-50652380D01*
X51213095Y-50604761D01*
X51165476Y-50557142D01*
X21841666Y-27702380D02*
X21841666Y-28416666D01*
X21794047Y-28559523D01*
X21698809Y-28654761D01*
X21555952Y-28702380D01*
X21460714Y-28702380D01*
X22270238Y-27797619D02*
X22317857Y-27750000D01*
X22413095Y-27702380D01*
X22651190Y-27702380D01*
X22746428Y-27750000D01*
X22794047Y-27797619D01*
X22841666Y-27892857D01*
X22841666Y-27988095D01*
X22794047Y-28130952D01*
X22222619Y-28702380D01*
X22841666Y-28702380D01*
X25816666Y-51852380D02*
X25816666Y-52566666D01*
X25769047Y-52709523D01*
X25673809Y-52804761D01*
X25530952Y-52852380D01*
X25435714Y-52852380D01*
X26197619Y-51852380D02*
X26816666Y-51852380D01*
X26483333Y-52233333D01*
X26626190Y-52233333D01*
X26721428Y-52280952D01*
X26769047Y-52328571D01*
X26816666Y-52423809D01*
X26816666Y-52661904D01*
X26769047Y-52757142D01*
X26721428Y-52804761D01*
X26626190Y-52852380D01*
X26340476Y-52852380D01*
X26245238Y-52804761D01*
X26197619Y-52757142D01*
X26016666Y-44052380D02*
X26016666Y-44766666D01*
X25969047Y-44909523D01*
X25873809Y-45004761D01*
X25730952Y-45052380D01*
X25635714Y-45052380D01*
X26921428Y-44385714D02*
X26921428Y-45052380D01*
X26683333Y-44004761D02*
X26445238Y-44719047D01*
X27064285Y-44719047D01*
X51254761Y-59247619D02*
X51159523Y-59200000D01*
X51064285Y-59104761D01*
X50921428Y-58961904D01*
X50826190Y-58914285D01*
X50730952Y-58914285D01*
X50778571Y-59152380D02*
X50683333Y-59104761D01*
X50588095Y-59009523D01*
X50540476Y-58819047D01*
X50540476Y-58485714D01*
X50588095Y-58295238D01*
X50683333Y-58200000D01*
X50778571Y-58152380D01*
X50969047Y-58152380D01*
X51064285Y-58200000D01*
X51159523Y-58295238D01*
X51207142Y-58485714D01*
X51207142Y-58819047D01*
X51159523Y-59009523D01*
X51064285Y-59104761D01*
X50969047Y-59152380D01*
X50778571Y-59152380D01*
X52159523Y-59152380D02*
X51588095Y-59152380D01*
X51873809Y-59152380D02*
X51873809Y-58152380D01*
X51778571Y-58295238D01*
X51683333Y-58390476D01*
X51588095Y-58438095D01*
X59854761Y-59297619D02*
X59759523Y-59250000D01*
X59664285Y-59154761D01*
X59521428Y-59011904D01*
X59426190Y-58964285D01*
X59330952Y-58964285D01*
X59378571Y-59202380D02*
X59283333Y-59154761D01*
X59188095Y-59059523D01*
X59140476Y-58869047D01*
X59140476Y-58535714D01*
X59188095Y-58345238D01*
X59283333Y-58250000D01*
X59378571Y-58202380D01*
X59569047Y-58202380D01*
X59664285Y-58250000D01*
X59759523Y-58345238D01*
X59807142Y-58535714D01*
X59807142Y-58869047D01*
X59759523Y-59059523D01*
X59664285Y-59154761D01*
X59569047Y-59202380D01*
X59378571Y-59202380D01*
X60140476Y-58202380D02*
X60759523Y-58202380D01*
X60426190Y-58583333D01*
X60569047Y-58583333D01*
X60664285Y-58630952D01*
X60711904Y-58678571D01*
X60759523Y-58773809D01*
X60759523Y-59011904D01*
X60711904Y-59107142D01*
X60664285Y-59154761D01*
X60569047Y-59202380D01*
X60283333Y-59202380D01*
X60188095Y-59154761D01*
X60140476Y-59107142D01*
X41304761Y-29447619D02*
X41209523Y-29400000D01*
X41114285Y-29304761D01*
X40971428Y-29161904D01*
X40876190Y-29114285D01*
X40780952Y-29114285D01*
X40828571Y-29352380D02*
X40733333Y-29304761D01*
X40638095Y-29209523D01*
X40590476Y-29019047D01*
X40590476Y-28685714D01*
X40638095Y-28495238D01*
X40733333Y-28400000D01*
X40828571Y-28352380D01*
X41019047Y-28352380D01*
X41114285Y-28400000D01*
X41209523Y-28495238D01*
X41257142Y-28685714D01*
X41257142Y-29019047D01*
X41209523Y-29209523D01*
X41114285Y-29304761D01*
X41019047Y-29352380D01*
X40828571Y-29352380D01*
X42161904Y-28352380D02*
X41685714Y-28352380D01*
X41638095Y-28828571D01*
X41685714Y-28780952D01*
X41780952Y-28733333D01*
X42019047Y-28733333D01*
X42114285Y-28780952D01*
X42161904Y-28828571D01*
X42209523Y-28923809D01*
X42209523Y-29161904D01*
X42161904Y-29257142D01*
X42114285Y-29304761D01*
X42019047Y-29352380D01*
X41780952Y-29352380D01*
X41685714Y-29304761D01*
X41638095Y-29257142D01*
X41404761Y-34247619D02*
X41309523Y-34200000D01*
X41214285Y-34104761D01*
X41071428Y-33961904D01*
X40976190Y-33914285D01*
X40880952Y-33914285D01*
X40928571Y-34152380D02*
X40833333Y-34104761D01*
X40738095Y-34009523D01*
X40690476Y-33819047D01*
X40690476Y-33485714D01*
X40738095Y-33295238D01*
X40833333Y-33200000D01*
X40928571Y-33152380D01*
X41119047Y-33152380D01*
X41214285Y-33200000D01*
X41309523Y-33295238D01*
X41357142Y-33485714D01*
X41357142Y-33819047D01*
X41309523Y-34009523D01*
X41214285Y-34104761D01*
X41119047Y-34152380D01*
X40928571Y-34152380D01*
X42214285Y-33152380D02*
X42023809Y-33152380D01*
X41928571Y-33200000D01*
X41880952Y-33247619D01*
X41785714Y-33390476D01*
X41738095Y-33580952D01*
X41738095Y-33961904D01*
X41785714Y-34057142D01*
X41833333Y-34104761D01*
X41928571Y-34152380D01*
X42119047Y-34152380D01*
X42214285Y-34104761D01*
X42261904Y-34057142D01*
X42309523Y-33961904D01*
X42309523Y-33723809D01*
X42261904Y-33628571D01*
X42214285Y-33580952D01*
X42119047Y-33533333D01*
X41928571Y-33533333D01*
X41833333Y-33580952D01*
X41785714Y-33628571D01*
X41738095Y-33723809D01*
X26433333Y-58102380D02*
X26100000Y-57626190D01*
X25861904Y-58102380D02*
X25861904Y-57102380D01*
X26242857Y-57102380D01*
X26338095Y-57150000D01*
X26385714Y-57197619D01*
X26433333Y-57292857D01*
X26433333Y-57435714D01*
X26385714Y-57530952D01*
X26338095Y-57578571D01*
X26242857Y-57626190D01*
X25861904Y-57626190D01*
X27385714Y-58102380D02*
X26814285Y-58102380D01*
X27100000Y-58102380D02*
X27100000Y-57102380D01*
X27004761Y-57245238D01*
X26909523Y-57340476D01*
X26814285Y-57388095D01*
X26433333Y-47652380D02*
X26100000Y-47176190D01*
X25861904Y-47652380D02*
X25861904Y-46652380D01*
X26242857Y-46652380D01*
X26338095Y-46700000D01*
X26385714Y-46747619D01*
X26433333Y-46842857D01*
X26433333Y-46985714D01*
X26385714Y-47080952D01*
X26338095Y-47128571D01*
X26242857Y-47176190D01*
X25861904Y-47176190D01*
X26814285Y-46747619D02*
X26861904Y-46700000D01*
X26957142Y-46652380D01*
X27195238Y-46652380D01*
X27290476Y-46700000D01*
X27338095Y-46747619D01*
X27385714Y-46842857D01*
X27385714Y-46938095D01*
X27338095Y-47080952D01*
X26766666Y-47652380D01*
X27385714Y-47652380D01*
X53333333Y-50552380D02*
X53000000Y-50076190D01*
X52761904Y-50552380D02*
X52761904Y-49552380D01*
X53142857Y-49552380D01*
X53238095Y-49600000D01*
X53285714Y-49647619D01*
X53333333Y-49742857D01*
X53333333Y-49885714D01*
X53285714Y-49980952D01*
X53238095Y-50028571D01*
X53142857Y-50076190D01*
X52761904Y-50076190D01*
X53666666Y-49552380D02*
X54285714Y-49552380D01*
X53952380Y-49933333D01*
X54095238Y-49933333D01*
X54190476Y-49980952D01*
X54238095Y-50028571D01*
X54285714Y-50123809D01*
X54285714Y-50361904D01*
X54238095Y-50457142D01*
X54190476Y-50504761D01*
X54095238Y-50552380D01*
X53809523Y-50552380D01*
X53714285Y-50504761D01*
X53666666Y-50457142D01*
X42633333Y-59302380D02*
X42300000Y-58826190D01*
X42061904Y-59302380D02*
X42061904Y-58302380D01*
X42442857Y-58302380D01*
X42538095Y-58350000D01*
X42585714Y-58397619D01*
X42633333Y-58492857D01*
X42633333Y-58635714D01*
X42585714Y-58730952D01*
X42538095Y-58778571D01*
X42442857Y-58826190D01*
X42061904Y-58826190D01*
X43538095Y-58302380D02*
X43061904Y-58302380D01*
X43014285Y-58778571D01*
X43061904Y-58730952D01*
X43157142Y-58683333D01*
X43395238Y-58683333D01*
X43490476Y-58730952D01*
X43538095Y-58778571D01*
X43585714Y-58873809D01*
X43585714Y-59111904D01*
X43538095Y-59207142D01*
X43490476Y-59254761D01*
X43395238Y-59302380D01*
X43157142Y-59302380D01*
X43061904Y-59254761D01*
X43014285Y-59207142D01*
X55333333Y-50552380D02*
X55000000Y-50076190D01*
X54761904Y-50552380D02*
X54761904Y-49552380D01*
X55142857Y-49552380D01*
X55238095Y-49600000D01*
X55285714Y-49647619D01*
X55333333Y-49742857D01*
X55333333Y-49885714D01*
X55285714Y-49980952D01*
X55238095Y-50028571D01*
X55142857Y-50076190D01*
X54761904Y-50076190D01*
X56190476Y-49552380D02*
X56000000Y-49552380D01*
X55904761Y-49600000D01*
X55857142Y-49647619D01*
X55761904Y-49790476D01*
X55714285Y-49980952D01*
X55714285Y-50361904D01*
X55761904Y-50457142D01*
X55809523Y-50504761D01*
X55904761Y-50552380D01*
X56095238Y-50552380D01*
X56190476Y-50504761D01*
X56238095Y-50457142D01*
X56285714Y-50361904D01*
X56285714Y-50123809D01*
X56238095Y-50028571D01*
X56190476Y-49980952D01*
X56095238Y-49933333D01*
X55904761Y-49933333D01*
X55809523Y-49980952D01*
X55761904Y-50028571D01*
X55714285Y-50123809D01*
X53033333Y-41177380D02*
X52700000Y-40701190D01*
X52461904Y-41177380D02*
X52461904Y-40177380D01*
X52842857Y-40177380D01*
X52938095Y-40225000D01*
X52985714Y-40272619D01*
X53033333Y-40367857D01*
X53033333Y-40510714D01*
X52985714Y-40605952D01*
X52938095Y-40653571D01*
X52842857Y-40701190D01*
X52461904Y-40701190D01*
X53366666Y-40177380D02*
X54033333Y-40177380D01*
X53604761Y-41177380D01*
X57033333Y-41152380D02*
X56700000Y-40676190D01*
X56461904Y-41152380D02*
X56461904Y-40152380D01*
X56842857Y-40152380D01*
X56938095Y-40200000D01*
X56985714Y-40247619D01*
X57033333Y-40342857D01*
X57033333Y-40485714D01*
X56985714Y-40580952D01*
X56938095Y-40628571D01*
X56842857Y-40676190D01*
X56461904Y-40676190D01*
X57604761Y-40580952D02*
X57509523Y-40533333D01*
X57461904Y-40485714D01*
X57414285Y-40390476D01*
X57414285Y-40342857D01*
X57461904Y-40247619D01*
X57509523Y-40200000D01*
X57604761Y-40152380D01*
X57795238Y-40152380D01*
X57890476Y-40200000D01*
X57938095Y-40247619D01*
X57985714Y-40342857D01*
X57985714Y-40390476D01*
X57938095Y-40485714D01*
X57890476Y-40533333D01*
X57795238Y-40580952D01*
X57604761Y-40580952D01*
X57509523Y-40628571D01*
X57461904Y-40676190D01*
X57414285Y-40771428D01*
X57414285Y-40961904D01*
X57461904Y-41057142D01*
X57509523Y-41104761D01*
X57604761Y-41152380D01*
X57795238Y-41152380D01*
X57890476Y-41104761D01*
X57938095Y-41057142D01*
X57985714Y-40961904D01*
X57985714Y-40771428D01*
X57938095Y-40676190D01*
X57890476Y-40628571D01*
X57795238Y-40580952D01*
X33557142Y-27352380D02*
X33223809Y-26876190D01*
X32985714Y-27352380D02*
X32985714Y-26352380D01*
X33366666Y-26352380D01*
X33461904Y-26400000D01*
X33509523Y-26447619D01*
X33557142Y-26542857D01*
X33557142Y-26685714D01*
X33509523Y-26780952D01*
X33461904Y-26828571D01*
X33366666Y-26876190D01*
X32985714Y-26876190D01*
X34509523Y-27352380D02*
X33938095Y-27352380D01*
X34223809Y-27352380D02*
X34223809Y-26352380D01*
X34128571Y-26495238D01*
X34033333Y-26590476D01*
X33938095Y-26638095D01*
X35366666Y-26352380D02*
X35176190Y-26352380D01*
X35080952Y-26400000D01*
X35033333Y-26447619D01*
X34938095Y-26590476D01*
X34890476Y-26780952D01*
X34890476Y-27161904D01*
X34938095Y-27257142D01*
X34985714Y-27304761D01*
X35080952Y-27352380D01*
X35271428Y-27352380D01*
X35366666Y-27304761D01*
X35414285Y-27257142D01*
X35461904Y-27161904D01*
X35461904Y-26923809D01*
X35414285Y-26828571D01*
X35366666Y-26780952D01*
X35271428Y-26733333D01*
X35080952Y-26733333D01*
X34985714Y-26780952D01*
X34938095Y-26828571D01*
X34890476Y-26923809D01*
X33457142Y-32252380D02*
X33123809Y-31776190D01*
X32885714Y-32252380D02*
X32885714Y-31252380D01*
X33266666Y-31252380D01*
X33361904Y-31300000D01*
X33409523Y-31347619D01*
X33457142Y-31442857D01*
X33457142Y-31585714D01*
X33409523Y-31680952D01*
X33361904Y-31728571D01*
X33266666Y-31776190D01*
X32885714Y-31776190D01*
X34409523Y-32252380D02*
X33838095Y-32252380D01*
X34123809Y-32252380D02*
X34123809Y-31252380D01*
X34028571Y-31395238D01*
X33933333Y-31490476D01*
X33838095Y-31538095D01*
X34742857Y-31252380D02*
X35409523Y-31252380D01*
X34980952Y-32252380D01*
X33557142Y-37252380D02*
X33223809Y-36776190D01*
X32985714Y-37252380D02*
X32985714Y-36252380D01*
X33366666Y-36252380D01*
X33461904Y-36300000D01*
X33509523Y-36347619D01*
X33557142Y-36442857D01*
X33557142Y-36585714D01*
X33509523Y-36680952D01*
X33461904Y-36728571D01*
X33366666Y-36776190D01*
X32985714Y-36776190D01*
X34509523Y-37252380D02*
X33938095Y-37252380D01*
X34223809Y-37252380D02*
X34223809Y-36252380D01*
X34128571Y-36395238D01*
X34033333Y-36490476D01*
X33938095Y-36538095D01*
X35080952Y-36680952D02*
X34985714Y-36633333D01*
X34938095Y-36585714D01*
X34890476Y-36490476D01*
X34890476Y-36442857D01*
X34938095Y-36347619D01*
X34985714Y-36300000D01*
X35080952Y-36252380D01*
X35271428Y-36252380D01*
X35366666Y-36300000D01*
X35414285Y-36347619D01*
X35461904Y-36442857D01*
X35461904Y-36490476D01*
X35414285Y-36585714D01*
X35366666Y-36633333D01*
X35271428Y-36680952D01*
X35080952Y-36680952D01*
X34985714Y-36728571D01*
X34938095Y-36776190D01*
X34890476Y-36871428D01*
X34890476Y-37061904D01*
X34938095Y-37157142D01*
X34985714Y-37204761D01*
X35080952Y-37252380D01*
X35271428Y-37252380D01*
X35366666Y-37204761D01*
X35414285Y-37157142D01*
X35461904Y-37061904D01*
X35461904Y-36871428D01*
X35414285Y-36776190D01*
X35366666Y-36728571D01*
X35271428Y-36680952D01*
X33557142Y-25152380D02*
X33223809Y-24676190D01*
X32985714Y-25152380D02*
X32985714Y-24152380D01*
X33366666Y-24152380D01*
X33461904Y-24200000D01*
X33509523Y-24247619D01*
X33557142Y-24342857D01*
X33557142Y-24485714D01*
X33509523Y-24580952D01*
X33461904Y-24628571D01*
X33366666Y-24676190D01*
X32985714Y-24676190D01*
X33938095Y-24247619D02*
X33985714Y-24200000D01*
X34080952Y-24152380D01*
X34319047Y-24152380D01*
X34414285Y-24200000D01*
X34461904Y-24247619D01*
X34509523Y-24342857D01*
X34509523Y-24438095D01*
X34461904Y-24580952D01*
X33890476Y-25152380D01*
X34509523Y-25152380D01*
X35461904Y-25152380D02*
X34890476Y-25152380D01*
X35176190Y-25152380D02*
X35176190Y-24152380D01*
X35080952Y-24295238D01*
X34985714Y-24390476D01*
X34890476Y-24438095D01*
X44857142Y-24052380D02*
X44523809Y-23576190D01*
X44285714Y-24052380D02*
X44285714Y-23052380D01*
X44666666Y-23052380D01*
X44761904Y-23100000D01*
X44809523Y-23147619D01*
X44857142Y-23242857D01*
X44857142Y-23385714D01*
X44809523Y-23480952D01*
X44761904Y-23528571D01*
X44666666Y-23576190D01*
X44285714Y-23576190D01*
X45238095Y-23147619D02*
X45285714Y-23100000D01*
X45380952Y-23052380D01*
X45619047Y-23052380D01*
X45714285Y-23100000D01*
X45761904Y-23147619D01*
X45809523Y-23242857D01*
X45809523Y-23338095D01*
X45761904Y-23480952D01*
X45190476Y-24052380D01*
X45809523Y-24052380D01*
X46190476Y-23147619D02*
X46238095Y-23100000D01*
X46333333Y-23052380D01*
X46571428Y-23052380D01*
X46666666Y-23100000D01*
X46714285Y-23147619D01*
X46761904Y-23242857D01*
X46761904Y-23338095D01*
X46714285Y-23480952D01*
X46142857Y-24052380D01*
X46761904Y-24052380D01*
X33457142Y-30052380D02*
X33123809Y-29576190D01*
X32885714Y-30052380D02*
X32885714Y-29052380D01*
X33266666Y-29052380D01*
X33361904Y-29100000D01*
X33409523Y-29147619D01*
X33457142Y-29242857D01*
X33457142Y-29385714D01*
X33409523Y-29480952D01*
X33361904Y-29528571D01*
X33266666Y-29576190D01*
X32885714Y-29576190D01*
X33838095Y-29147619D02*
X33885714Y-29100000D01*
X33980952Y-29052380D01*
X34219047Y-29052380D01*
X34314285Y-29100000D01*
X34361904Y-29147619D01*
X34409523Y-29242857D01*
X34409523Y-29338095D01*
X34361904Y-29480952D01*
X33790476Y-30052380D01*
X34409523Y-30052380D01*
X34742857Y-29052380D02*
X35361904Y-29052380D01*
X35028571Y-29433333D01*
X35171428Y-29433333D01*
X35266666Y-29480952D01*
X35314285Y-29528571D01*
X35361904Y-29623809D01*
X35361904Y-29861904D01*
X35314285Y-29957142D01*
X35266666Y-30004761D01*
X35171428Y-30052380D01*
X34885714Y-30052380D01*
X34790476Y-30004761D01*
X34742857Y-29957142D01*
X44857142Y-29052380D02*
X44523809Y-28576190D01*
X44285714Y-29052380D02*
X44285714Y-28052380D01*
X44666666Y-28052380D01*
X44761904Y-28100000D01*
X44809523Y-28147619D01*
X44857142Y-28242857D01*
X44857142Y-28385714D01*
X44809523Y-28480952D01*
X44761904Y-28528571D01*
X44666666Y-28576190D01*
X44285714Y-28576190D01*
X45238095Y-28147619D02*
X45285714Y-28100000D01*
X45380952Y-28052380D01*
X45619047Y-28052380D01*
X45714285Y-28100000D01*
X45761904Y-28147619D01*
X45809523Y-28242857D01*
X45809523Y-28338095D01*
X45761904Y-28480952D01*
X45190476Y-29052380D01*
X45809523Y-29052380D01*
X46666666Y-28385714D02*
X46666666Y-29052380D01*
X46428571Y-28004761D02*
X46190476Y-28719047D01*
X46809523Y-28719047D01*
X33557142Y-34952380D02*
X33223809Y-34476190D01*
X32985714Y-34952380D02*
X32985714Y-33952380D01*
X33366666Y-33952380D01*
X33461904Y-34000000D01*
X33509523Y-34047619D01*
X33557142Y-34142857D01*
X33557142Y-34285714D01*
X33509523Y-34380952D01*
X33461904Y-34428571D01*
X33366666Y-34476190D01*
X32985714Y-34476190D01*
X33938095Y-34047619D02*
X33985714Y-34000000D01*
X34080952Y-33952380D01*
X34319047Y-33952380D01*
X34414285Y-34000000D01*
X34461904Y-34047619D01*
X34509523Y-34142857D01*
X34509523Y-34238095D01*
X34461904Y-34380952D01*
X33890476Y-34952380D01*
X34509523Y-34952380D01*
X35414285Y-33952380D02*
X34938095Y-33952380D01*
X34890476Y-34428571D01*
X34938095Y-34380952D01*
X35033333Y-34333333D01*
X35271428Y-34333333D01*
X35366666Y-34380952D01*
X35414285Y-34428571D01*
X35461904Y-34523809D01*
X35461904Y-34761904D01*
X35414285Y-34857142D01*
X35366666Y-34904761D01*
X35271428Y-34952380D01*
X35033333Y-34952380D01*
X34938095Y-34904761D01*
X34890476Y-34857142D01*
X44857142Y-33952380D02*
X44523809Y-33476190D01*
X44285714Y-33952380D02*
X44285714Y-32952380D01*
X44666666Y-32952380D01*
X44761904Y-33000000D01*
X44809523Y-33047619D01*
X44857142Y-33142857D01*
X44857142Y-33285714D01*
X44809523Y-33380952D01*
X44761904Y-33428571D01*
X44666666Y-33476190D01*
X44285714Y-33476190D01*
X45238095Y-33047619D02*
X45285714Y-33000000D01*
X45380952Y-32952380D01*
X45619047Y-32952380D01*
X45714285Y-33000000D01*
X45761904Y-33047619D01*
X45809523Y-33142857D01*
X45809523Y-33238095D01*
X45761904Y-33380952D01*
X45190476Y-33952380D01*
X45809523Y-33952380D01*
X46666666Y-32952380D02*
X46476190Y-32952380D01*
X46380952Y-33000000D01*
X46333333Y-33047619D01*
X46238095Y-33190476D01*
X46190476Y-33380952D01*
X46190476Y-33761904D01*
X46238095Y-33857142D01*
X46285714Y-33904761D01*
X46380952Y-33952380D01*
X46571428Y-33952380D01*
X46666666Y-33904761D01*
X46714285Y-33857142D01*
X46761904Y-33761904D01*
X46761904Y-33523809D01*
X46714285Y-33428571D01*
X46666666Y-33380952D01*
X46571428Y-33333333D01*
X46380952Y-33333333D01*
X46285714Y-33380952D01*
X46238095Y-33428571D01*
X46190476Y-33523809D01*
X42107142Y-49352380D02*
X41773809Y-48876190D01*
X41535714Y-49352380D02*
X41535714Y-48352380D01*
X41916666Y-48352380D01*
X42011904Y-48400000D01*
X42059523Y-48447619D01*
X42107142Y-48542857D01*
X42107142Y-48685714D01*
X42059523Y-48780952D01*
X42011904Y-48828571D01*
X41916666Y-48876190D01*
X41535714Y-48876190D01*
X42440476Y-48352380D02*
X43059523Y-48352380D01*
X42726190Y-48733333D01*
X42869047Y-48733333D01*
X42964285Y-48780952D01*
X43011904Y-48828571D01*
X43059523Y-48923809D01*
X43059523Y-49161904D01*
X43011904Y-49257142D01*
X42964285Y-49304761D01*
X42869047Y-49352380D01*
X42583333Y-49352380D01*
X42488095Y-49304761D01*
X42440476Y-49257142D01*
X44011904Y-49352380D02*
X43440476Y-49352380D01*
X43726190Y-49352380D02*
X43726190Y-48352380D01*
X43630952Y-48495238D01*
X43535714Y-48590476D01*
X43440476Y-48638095D01*
X60563095Y-34877380D02*
X60563095Y-35686904D01*
X60610714Y-35782142D01*
X60658333Y-35829761D01*
X60753571Y-35877380D01*
X60944047Y-35877380D01*
X61039285Y-35829761D01*
X61086904Y-35782142D01*
X61134523Y-35686904D01*
X61134523Y-34877380D01*
X62134523Y-35877380D02*
X61563095Y-35877380D01*
X61848809Y-35877380D02*
X61848809Y-34877380D01*
X61753571Y-35020238D01*
X61658333Y-35115476D01*
X61563095Y-35163095D01*
X21516666Y-22302380D02*
X21516666Y-23016666D01*
X21469047Y-23159523D01*
X21373809Y-23254761D01*
X21230952Y-23302380D01*
X21135714Y-23302380D01*
X22516666Y-23302380D02*
X21945238Y-23302380D01*
X22230952Y-23302380D02*
X22230952Y-22302380D01*
X22135714Y-22445238D01*
X22040476Y-22540476D01*
X21945238Y-22588095D01*
X30566666Y-52452380D02*
X30566666Y-53166666D01*
X30519047Y-53309523D01*
X30423809Y-53404761D01*
X30280952Y-53452380D01*
X30185714Y-53452380D01*
X31519047Y-52452380D02*
X31042857Y-52452380D01*
X30995238Y-52928571D01*
X31042857Y-52880952D01*
X31138095Y-52833333D01*
X31376190Y-52833333D01*
X31471428Y-52880952D01*
X31519047Y-52928571D01*
X31566666Y-53023809D01*
X31566666Y-53261904D01*
X31519047Y-53357142D01*
X31471428Y-53404761D01*
X31376190Y-53452380D01*
X31138095Y-53452380D01*
X31042857Y-53404761D01*
X30995238Y-53357142D01*
X27016666Y-22302380D02*
X27016666Y-23016666D01*
X26969047Y-23159523D01*
X26873809Y-23254761D01*
X26730952Y-23302380D01*
X26635714Y-23302380D01*
X27921428Y-22302380D02*
X27730952Y-22302380D01*
X27635714Y-22350000D01*
X27588095Y-22397619D01*
X27492857Y-22540476D01*
X27445238Y-22730952D01*
X27445238Y-23111904D01*
X27492857Y-23207142D01*
X27540476Y-23254761D01*
X27635714Y-23302380D01*
X27826190Y-23302380D01*
X27921428Y-23254761D01*
X27969047Y-23207142D01*
X28016666Y-23111904D01*
X28016666Y-22873809D01*
X27969047Y-22778571D01*
X27921428Y-22730952D01*
X27826190Y-22683333D01*
X27635714Y-22683333D01*
X27540476Y-22730952D01*
X27492857Y-22778571D01*
X27445238Y-22873809D01*
X66616666Y-51902380D02*
X66616666Y-52616666D01*
X66569047Y-52759523D01*
X66473809Y-52854761D01*
X66330952Y-52902380D01*
X66235714Y-52902380D01*
X66997619Y-51902380D02*
X67664285Y-51902380D01*
X67235714Y-52902380D01*
X61283333Y-22707142D02*
X61235714Y-22754761D01*
X61092857Y-22802380D01*
X60997619Y-22802380D01*
X60854761Y-22754761D01*
X60759523Y-22659523D01*
X60711904Y-22564285D01*
X60664285Y-22373809D01*
X60664285Y-22230952D01*
X60711904Y-22040476D01*
X60759523Y-21945238D01*
X60854761Y-21850000D01*
X60997619Y-21802380D01*
X61092857Y-21802380D01*
X61235714Y-21850000D01*
X61283333Y-21897619D01*
X62188095Y-21802380D02*
X61711904Y-21802380D01*
X61664285Y-22278571D01*
X61711904Y-22230952D01*
X61807142Y-22183333D01*
X62045238Y-22183333D01*
X62140476Y-22230952D01*
X62188095Y-22278571D01*
X62235714Y-22373809D01*
X62235714Y-22611904D01*
X62188095Y-22707142D01*
X62140476Y-22754761D01*
X62045238Y-22802380D01*
X61807142Y-22802380D01*
X61711904Y-22754761D01*
X61664285Y-22707142D01*
X62407142Y-44616666D02*
X62454761Y-44664285D01*
X62502380Y-44807142D01*
X62502380Y-44902380D01*
X62454761Y-45045238D01*
X62359523Y-45140476D01*
X62264285Y-45188095D01*
X62073809Y-45235714D01*
X61930952Y-45235714D01*
X61740476Y-45188095D01*
X61645238Y-45140476D01*
X61550000Y-45045238D01*
X61502380Y-44902380D01*
X61502380Y-44807142D01*
X61550000Y-44664285D01*
X61597619Y-44616666D01*
X62502380Y-44140476D02*
X62502380Y-43950000D01*
X62454761Y-43854761D01*
X62407142Y-43807142D01*
X62264285Y-43711904D01*
X62073809Y-43664285D01*
X61692857Y-43664285D01*
X61597619Y-43711904D01*
X61550000Y-43759523D01*
X61502380Y-43854761D01*
X61502380Y-44045238D01*
X61550000Y-44140476D01*
X61597619Y-44188095D01*
X61692857Y-44235714D01*
X61930952Y-44235714D01*
X62026190Y-44188095D01*
X62073809Y-44140476D01*
X62121428Y-44045238D01*
X62121428Y-43854761D01*
X62073809Y-43759523D01*
X62026190Y-43711904D01*
X61930952Y-43664285D01*
X76557142Y-39842857D02*
X76604761Y-39890476D01*
X76652380Y-40033333D01*
X76652380Y-40128571D01*
X76604761Y-40271428D01*
X76509523Y-40366666D01*
X76414285Y-40414285D01*
X76223809Y-40461904D01*
X76080952Y-40461904D01*
X75890476Y-40414285D01*
X75795238Y-40366666D01*
X75700000Y-40271428D01*
X75652380Y-40128571D01*
X75652380Y-40033333D01*
X75700000Y-39890476D01*
X75747619Y-39842857D01*
X76652380Y-38890476D02*
X76652380Y-39461904D01*
X76652380Y-39176190D02*
X75652380Y-39176190D01*
X75795238Y-39271428D01*
X75890476Y-39366666D01*
X75938095Y-39461904D01*
X75652380Y-38033333D02*
X75652380Y-38223809D01*
X75700000Y-38319047D01*
X75747619Y-38366666D01*
X75890476Y-38461904D01*
X76080952Y-38509523D01*
X76461904Y-38509523D01*
X76557142Y-38461904D01*
X76604761Y-38414285D01*
X76652380Y-38319047D01*
X76652380Y-38128571D01*
X76604761Y-38033333D01*
X76557142Y-37985714D01*
X76461904Y-37938095D01*
X76223809Y-37938095D01*
X76128571Y-37985714D01*
X76080952Y-38033333D01*
X76033333Y-38128571D01*
X76033333Y-38319047D01*
X76080952Y-38414285D01*
X76128571Y-38461904D01*
X76223809Y-38509523D01*
X67957142Y-21607142D02*
X67909523Y-21654761D01*
X67766666Y-21702380D01*
X67671428Y-21702380D01*
X67528571Y-21654761D01*
X67433333Y-21559523D01*
X67385714Y-21464285D01*
X67338095Y-21273809D01*
X67338095Y-21130952D01*
X67385714Y-20940476D01*
X67433333Y-20845238D01*
X67528571Y-20750000D01*
X67671428Y-20702380D01*
X67766666Y-20702380D01*
X67909523Y-20750000D01*
X67957142Y-20797619D01*
X68909523Y-21702380D02*
X68338095Y-21702380D01*
X68623809Y-21702380D02*
X68623809Y-20702380D01*
X68528571Y-20845238D01*
X68433333Y-20940476D01*
X68338095Y-20988095D01*
X69242857Y-20702380D02*
X69909523Y-20702380D01*
X69480952Y-21702380D01*
X77907142Y-39842857D02*
X77954761Y-39890476D01*
X78002380Y-40033333D01*
X78002380Y-40128571D01*
X77954761Y-40271428D01*
X77859523Y-40366666D01*
X77764285Y-40414285D01*
X77573809Y-40461904D01*
X77430952Y-40461904D01*
X77240476Y-40414285D01*
X77145238Y-40366666D01*
X77050000Y-40271428D01*
X77002380Y-40128571D01*
X77002380Y-40033333D01*
X77050000Y-39890476D01*
X77097619Y-39842857D01*
X78002380Y-38890476D02*
X78002380Y-39461904D01*
X78002380Y-39176190D02*
X77002380Y-39176190D01*
X77145238Y-39271428D01*
X77240476Y-39366666D01*
X77288095Y-39461904D01*
X77430952Y-38319047D02*
X77383333Y-38414285D01*
X77335714Y-38461904D01*
X77240476Y-38509523D01*
X77192857Y-38509523D01*
X77097619Y-38461904D01*
X77050000Y-38414285D01*
X77002380Y-38319047D01*
X77002380Y-38128571D01*
X77050000Y-38033333D01*
X77097619Y-37985714D01*
X77192857Y-37938095D01*
X77240476Y-37938095D01*
X77335714Y-37985714D01*
X77383333Y-38033333D01*
X77430952Y-38128571D01*
X77430952Y-38319047D01*
X77478571Y-38414285D01*
X77526190Y-38461904D01*
X77621428Y-38509523D01*
X77811904Y-38509523D01*
X77907142Y-38461904D01*
X77954761Y-38414285D01*
X78002380Y-38319047D01*
X78002380Y-38128571D01*
X77954761Y-38033333D01*
X77907142Y-37985714D01*
X77811904Y-37938095D01*
X77621428Y-37938095D01*
X77526190Y-37985714D01*
X77478571Y-38033333D01*
X77430952Y-38128571D01*
X49961904Y-24402380D02*
X49961904Y-23402380D01*
X50200000Y-23402380D01*
X50342857Y-23450000D01*
X50438095Y-23545238D01*
X50485714Y-23640476D01*
X50533333Y-23830952D01*
X50533333Y-23973809D01*
X50485714Y-24164285D01*
X50438095Y-24259523D01*
X50342857Y-24354761D01*
X50200000Y-24402380D01*
X49961904Y-24402380D01*
X51485714Y-24402380D02*
X50914285Y-24402380D01*
X51200000Y-24402380D02*
X51200000Y-23402380D01*
X51104761Y-23545238D01*
X51009523Y-23640476D01*
X50914285Y-23688095D01*
X68102380Y-36764285D02*
X67102380Y-36764285D01*
X67102380Y-36526190D01*
X67150000Y-36383333D01*
X67245238Y-36288095D01*
X67340476Y-36240476D01*
X67530952Y-36192857D01*
X67673809Y-36192857D01*
X67864285Y-36240476D01*
X67959523Y-36288095D01*
X68054761Y-36383333D01*
X68102380Y-36526190D01*
X68102380Y-36764285D01*
X68102380Y-35240476D02*
X68102380Y-35811904D01*
X68102380Y-35526190D02*
X67102380Y-35526190D01*
X67245238Y-35621428D01*
X67340476Y-35716666D01*
X67388095Y-35811904D01*
X68102380Y-34288095D02*
X68102380Y-34859523D01*
X68102380Y-34573809D02*
X67102380Y-34573809D01*
X67245238Y-34669047D01*
X67340476Y-34764285D01*
X67388095Y-34859523D01*
X64502380Y-36714285D02*
X63502380Y-36714285D01*
X63502380Y-36476190D01*
X63550000Y-36333333D01*
X63645238Y-36238095D01*
X63740476Y-36190476D01*
X63930952Y-36142857D01*
X64073809Y-36142857D01*
X64264285Y-36190476D01*
X64359523Y-36238095D01*
X64454761Y-36333333D01*
X64502380Y-36476190D01*
X64502380Y-36714285D01*
X64502380Y-35190476D02*
X64502380Y-35761904D01*
X64502380Y-35476190D02*
X63502380Y-35476190D01*
X63645238Y-35571428D01*
X63740476Y-35666666D01*
X63788095Y-35761904D01*
X63597619Y-34809523D02*
X63550000Y-34761904D01*
X63502380Y-34666666D01*
X63502380Y-34428571D01*
X63550000Y-34333333D01*
X63597619Y-34285714D01*
X63692857Y-34238095D01*
X63788095Y-34238095D01*
X63930952Y-34285714D01*
X64502380Y-34857142D01*
X64502380Y-34238095D01*
X74122380Y-36776785D02*
X73122380Y-36776785D01*
X73122380Y-36538690D01*
X73170000Y-36395833D01*
X73265238Y-36300595D01*
X73360476Y-36252976D01*
X73550952Y-36205357D01*
X73693809Y-36205357D01*
X73884285Y-36252976D01*
X73979523Y-36300595D01*
X74074761Y-36395833D01*
X74122380Y-36538690D01*
X74122380Y-36776785D01*
X74122380Y-35252976D02*
X74122380Y-35824404D01*
X74122380Y-35538690D02*
X73122380Y-35538690D01*
X73265238Y-35633928D01*
X73360476Y-35729166D01*
X73408095Y-35824404D01*
X73122380Y-34919642D02*
X73122380Y-34300595D01*
X73503333Y-34633928D01*
X73503333Y-34491071D01*
X73550952Y-34395833D01*
X73598571Y-34348214D01*
X73693809Y-34300595D01*
X73931904Y-34300595D01*
X74027142Y-34348214D01*
X74074761Y-34395833D01*
X74122380Y-34491071D01*
X74122380Y-34776785D01*
X74074761Y-34872023D01*
X74027142Y-34919642D01*
X74402380Y-48883333D02*
X75116666Y-48883333D01*
X75259523Y-48930952D01*
X75354761Y-49026190D01*
X75402380Y-49169047D01*
X75402380Y-49264285D01*
X75402380Y-48359523D02*
X75402380Y-48169047D01*
X75354761Y-48073809D01*
X75307142Y-48026190D01*
X75164285Y-47930952D01*
X74973809Y-47883333D01*
X74592857Y-47883333D01*
X74497619Y-47930952D01*
X74450000Y-47978571D01*
X74402380Y-48073809D01*
X74402380Y-48264285D01*
X74450000Y-48359523D01*
X74497619Y-48407142D01*
X74592857Y-48454761D01*
X74830952Y-48454761D01*
X74926190Y-48407142D01*
X74973809Y-48359523D01*
X75021428Y-48264285D01*
X75021428Y-48073809D01*
X74973809Y-47978571D01*
X74926190Y-47930952D01*
X74830952Y-47883333D01*
X50483333Y-22852380D02*
X50150000Y-22376190D01*
X49911904Y-22852380D02*
X49911904Y-21852380D01*
X50292857Y-21852380D01*
X50388095Y-21900000D01*
X50435714Y-21947619D01*
X50483333Y-22042857D01*
X50483333Y-22185714D01*
X50435714Y-22280952D01*
X50388095Y-22328571D01*
X50292857Y-22376190D01*
X49911904Y-22376190D01*
X51340476Y-22185714D02*
X51340476Y-22852380D01*
X51102380Y-21804761D02*
X50864285Y-22519047D01*
X51483333Y-22519047D01*
X58507142Y-26852380D02*
X58173809Y-26376190D01*
X57935714Y-26852380D02*
X57935714Y-25852380D01*
X58316666Y-25852380D01*
X58411904Y-25900000D01*
X58459523Y-25947619D01*
X58507142Y-26042857D01*
X58507142Y-26185714D01*
X58459523Y-26280952D01*
X58411904Y-26328571D01*
X58316666Y-26376190D01*
X57935714Y-26376190D01*
X59459523Y-26852380D02*
X58888095Y-26852380D01*
X59173809Y-26852380D02*
X59173809Y-25852380D01*
X59078571Y-25995238D01*
X58983333Y-26090476D01*
X58888095Y-26138095D01*
X60078571Y-25852380D02*
X60173809Y-25852380D01*
X60269047Y-25900000D01*
X60316666Y-25947619D01*
X60364285Y-26042857D01*
X60411904Y-26233333D01*
X60411904Y-26471428D01*
X60364285Y-26661904D01*
X60316666Y-26757142D01*
X60269047Y-26804761D01*
X60173809Y-26852380D01*
X60078571Y-26852380D01*
X59983333Y-26804761D01*
X59935714Y-26757142D01*
X59888095Y-26661904D01*
X59840476Y-26471428D01*
X59840476Y-26233333D01*
X59888095Y-26042857D01*
X59935714Y-25947619D01*
X59983333Y-25900000D01*
X60078571Y-25852380D01*
X67988095Y-49452380D02*
X67988095Y-50261904D01*
X68035714Y-50357142D01*
X68083333Y-50404761D01*
X68178571Y-50452380D01*
X68369047Y-50452380D01*
X68464285Y-50404761D01*
X68511904Y-50357142D01*
X68559523Y-50261904D01*
X68559523Y-49452380D01*
X68940476Y-49452380D02*
X69559523Y-49452380D01*
X69226190Y-49833333D01*
X69369047Y-49833333D01*
X69464285Y-49880952D01*
X69511904Y-49928571D01*
X69559523Y-50023809D01*
X69559523Y-50261904D01*
X69511904Y-50357142D01*
X69464285Y-50404761D01*
X69369047Y-50452380D01*
X69083333Y-50452380D01*
X68988095Y-50404761D01*
X68940476Y-50357142D01*
X68052380Y-40667857D02*
X67576190Y-41001190D01*
X68052380Y-41239285D02*
X67052380Y-41239285D01*
X67052380Y-40858333D01*
X67100000Y-40763095D01*
X67147619Y-40715476D01*
X67242857Y-40667857D01*
X67385714Y-40667857D01*
X67480952Y-40715476D01*
X67528571Y-40763095D01*
X67576190Y-40858333D01*
X67576190Y-41239285D01*
X67052380Y-40334523D02*
X67052380Y-39715476D01*
X67433333Y-40048809D01*
X67433333Y-39905952D01*
X67480952Y-39810714D01*
X67528571Y-39763095D01*
X67623809Y-39715476D01*
X67861904Y-39715476D01*
X67957142Y-39763095D01*
X68004761Y-39810714D01*
X68052380Y-39905952D01*
X68052380Y-40191666D01*
X68004761Y-40286904D01*
X67957142Y-40334523D01*
X67385714Y-38858333D02*
X68052380Y-38858333D01*
X67004761Y-39096428D02*
X67719047Y-39334523D01*
X67719047Y-38715476D01*
X64602380Y-40667857D02*
X64126190Y-41001190D01*
X64602380Y-41239285D02*
X63602380Y-41239285D01*
X63602380Y-40858333D01*
X63650000Y-40763095D01*
X63697619Y-40715476D01*
X63792857Y-40667857D01*
X63935714Y-40667857D01*
X64030952Y-40715476D01*
X64078571Y-40763095D01*
X64126190Y-40858333D01*
X64126190Y-41239285D01*
X63602380Y-40334523D02*
X63602380Y-39715476D01*
X63983333Y-40048809D01*
X63983333Y-39905952D01*
X64030952Y-39810714D01*
X64078571Y-39763095D01*
X64173809Y-39715476D01*
X64411904Y-39715476D01*
X64507142Y-39763095D01*
X64554761Y-39810714D01*
X64602380Y-39905952D01*
X64602380Y-40191666D01*
X64554761Y-40286904D01*
X64507142Y-40334523D01*
X63602380Y-38810714D02*
X63602380Y-39286904D01*
X64078571Y-39334523D01*
X64030952Y-39286904D01*
X63983333Y-39191666D01*
X63983333Y-38953571D01*
X64030952Y-38858333D01*
X64078571Y-38810714D01*
X64173809Y-38763095D01*
X64411904Y-38763095D01*
X64507142Y-38810714D01*
X64554761Y-38858333D01*
X64602380Y-38953571D01*
X64602380Y-39191666D01*
X64554761Y-39286904D01*
X64507142Y-39334523D01*
X74002380Y-40767857D02*
X73526190Y-41101190D01*
X74002380Y-41339285D02*
X73002380Y-41339285D01*
X73002380Y-40958333D01*
X73050000Y-40863095D01*
X73097619Y-40815476D01*
X73192857Y-40767857D01*
X73335714Y-40767857D01*
X73430952Y-40815476D01*
X73478571Y-40863095D01*
X73526190Y-40958333D01*
X73526190Y-41339285D01*
X73002380Y-40434523D02*
X73002380Y-39815476D01*
X73383333Y-40148809D01*
X73383333Y-40005952D01*
X73430952Y-39910714D01*
X73478571Y-39863095D01*
X73573809Y-39815476D01*
X73811904Y-39815476D01*
X73907142Y-39863095D01*
X73954761Y-39910714D01*
X74002380Y-40005952D01*
X74002380Y-40291666D01*
X73954761Y-40386904D01*
X73907142Y-40434523D01*
X73002380Y-38958333D02*
X73002380Y-39148809D01*
X73050000Y-39244047D01*
X73097619Y-39291666D01*
X73240476Y-39386904D01*
X73430952Y-39434523D01*
X73811904Y-39434523D01*
X73907142Y-39386904D01*
X73954761Y-39339285D01*
X74002380Y-39244047D01*
X74002380Y-39053571D01*
X73954761Y-38958333D01*
X73907142Y-38910714D01*
X73811904Y-38863095D01*
X73573809Y-38863095D01*
X73478571Y-38910714D01*
X73430952Y-38958333D01*
X73383333Y-39053571D01*
X73383333Y-39244047D01*
X73430952Y-39339285D01*
X73478571Y-39386904D01*
X73573809Y-39434523D01*
X74602380Y-53192857D02*
X74126190Y-53526190D01*
X74602380Y-53764285D02*
X73602380Y-53764285D01*
X73602380Y-53383333D01*
X73650000Y-53288095D01*
X73697619Y-53240476D01*
X73792857Y-53192857D01*
X73935714Y-53192857D01*
X74030952Y-53240476D01*
X74078571Y-53288095D01*
X74126190Y-53383333D01*
X74126190Y-53764285D01*
X73602380Y-52859523D02*
X73602380Y-52240476D01*
X73983333Y-52573809D01*
X73983333Y-52430952D01*
X74030952Y-52335714D01*
X74078571Y-52288095D01*
X74173809Y-52240476D01*
X74411904Y-52240476D01*
X74507142Y-52288095D01*
X74554761Y-52335714D01*
X74602380Y-52430952D01*
X74602380Y-52716666D01*
X74554761Y-52811904D01*
X74507142Y-52859523D01*
X73697619Y-51859523D02*
X73650000Y-51811904D01*
X73602380Y-51716666D01*
X73602380Y-51478571D01*
X73650000Y-51383333D01*
X73697619Y-51335714D01*
X73792857Y-51288095D01*
X73888095Y-51288095D01*
X74030952Y-51335714D01*
X74602380Y-51907142D01*
X74602380Y-51288095D01*
X74466666Y-21552380D02*
X74466666Y-22266666D01*
X74419047Y-22409523D01*
X74323809Y-22504761D01*
X74180952Y-22552380D01*
X74085714Y-22552380D01*
X75085714Y-21980952D02*
X74990476Y-21933333D01*
X74942857Y-21885714D01*
X74895238Y-21790476D01*
X74895238Y-21742857D01*
X74942857Y-21647619D01*
X74990476Y-21600000D01*
X75085714Y-21552380D01*
X75276190Y-21552380D01*
X75371428Y-21600000D01*
X75419047Y-21647619D01*
X75466666Y-21742857D01*
X75466666Y-21790476D01*
X75419047Y-21885714D01*
X75371428Y-21933333D01*
X75276190Y-21980952D01*
X75085714Y-21980952D01*
X74990476Y-22028571D01*
X74942857Y-22076190D01*
X74895238Y-22171428D01*
X74895238Y-22361904D01*
X74942857Y-22457142D01*
X74990476Y-22504761D01*
X75085714Y-22552380D01*
X75276190Y-22552380D01*
X75371428Y-22504761D01*
X75419047Y-22457142D01*
X75466666Y-22361904D01*
X75466666Y-22171428D01*
X75419047Y-22076190D01*
X75371428Y-22028571D01*
X75276190Y-21980952D01*
M02*
